SplineFontDB: 3.0
FontName: Dave
FullName: Dave Regular
FamilyName: Dave
Weight: Book
Copyright: Copyright i-e-b 2018-2020\n"Computer says no" by "CMunk" (https://fontstruct.com/fontstructors/show/25776/cmunk)
Version: 1.0
ItalicAngle: 0
UnderlinePosition: -41
UnderlineWidth: 100
Ascent: 819
Descent: 205
InvalidEm: 0
sfntRevision: 0x00010000
LayerCount: 2
Layer: 0 1 "Back" 1
Layer: 1 1 "Fore" 0
XUID: [1021 81 -837077078 24771]
StyleMap: 0x0040
FSType: 0
OS2Version: 0
OS2_WeightWidthSlopeOnly: 0
OS2_UseTypoMetrics: 0
CreationTime: 1537189093
ModificationTime: 1619774520
PfmFamily: 49
TTFWeight: 400
TTFWidth: 5
LineGap: 0
VLineGap: 0
Panose: 0 11 0 9 0 0 0 0 0 4
OS2TypoAscent: 725
OS2TypoAOffset: 0
OS2TypoDescent: -161
OS2TypoDOffset: 0
OS2TypoLinegap: 0
OS2WinAscent: 1074
OS2WinAOffset: 0
OS2WinDescent: 242
OS2WinDOffset: 0
HheadAscent: 1074
HheadAOffset: 0
HheadDescent: -242
HheadDOffset: 0
OS2SubXSize: 859
OS2SubYSize: 859
OS2SubXOff: 0
OS2SubYOff: 100
OS2SupXSize: 859
OS2SupYSize: 859
OS2SupXOff: 0
OS2SupYOff: 859
OS2StrikeYSize: 86
OS2StrikeYPos: 342
OS2CapHeight: 432
OS2XHeight: 336
OS2FamilyClass: 1285
OS2Vendor: 'FSTR'
MarkAttachClasses: 1
DEI: 91125

StartChar: .notdef
Encoding: 65536 -1 0
Width: 537
Flags: MW
LayerCount: 2
Fore
SplineSet
188 81 m 1,0,-1
 188 161 l 1,1,-1
 269 161 l 1,2,-1
 269 81 l 1,3,-1
 188 81 l 1,0,-1
188 215 m 1,4,-1
 188 322 l 1,5,-1
 322 457 l 1,6,-1
 322 483 l 1,7,-1
 242 564 l 1,8,-1
 215 564 l 1,9,-1
 107 457 l 1,10,-1
 54 510 l 1,11,-1
 188 645 l 1,12,-1
 269 645 l 1,13,-1
 403 510 l 1,14,-1
 403 430 l 1,15,-1
 269 295 l 1,16,-1
 269 215 l 1,17,-1
 188 215 l 1,4,-1
56 54 m 1,18,-1
 432 54 l 1,19,-1
 430 671 l 1,20,-1
 457 698 l 1,21,-1
 27 698 l 1,22,-1
 27 27 l 1,23,-1
 56 54 l 1,18,-1
0 0 m 1,24,-1
 0 725 l 1,25,-1
 483 725 l 1,26,-1
 483 0 l 1,27,-1
 0 0 l 1,24,-1
EndSplineSet
Validated: 1
EndChar

StartChar: exclam
Encoding: 33 33 4
Width: 537
GlyphClass: 2
Flags: MW
LayerCount: 2
Fore
SplineSet
134 0 m 1,0,-1
 134 134 l 1,1,-1
 269 134 l 1,2,-1
 269 0 l 1,3,-1
 134 0 l 1,0,-1
148 242 m 1,4,-1
 107 483 l 1,5,-1
 107 725 l 1,6,-1
 295 725 l 1,7,-1
 295 483 l 1,8,-1
 255 242 l 1,9,-1
 148 242 l 1,4,-1
EndSplineSet
Validated: 1
EndChar

StartChar: quotedbl
Encoding: 34 34 5
Width: 537
GlyphClass: 2
Flags: MW
LayerCount: 2
Fore
SplineSet
54 430 m 1,0,-1
 54 725 l 1,1,-1
 134 725 l 1,2,-1
 134 537 l 1,3,-1
 107 430 l 1,4,-1
 54 430 l 1,0,-1
269 430 m 1,5,-1
 269 725 l 1,6,-1
 349 725 l 1,7,-1
 349 537 l 1,8,-1
 322 430 l 1,9,-1
 269 430 l 1,5,-1
EndSplineSet
Validated: 1
EndChar

StartChar: numbersign
Encoding: 35 35 6
Width: 537
GlyphClass: 2
Flags: MW
LayerCount: 2
Fore
SplineSet
269 242 m 1,0,-1
 309 483 l 1,1,-1
 161 483 l 1,2,-1
 121 242 l 1,3,-1
 269 242 l 1,0,-1
0 0 m 1,4,-1
 27 161 l 1,5,-1
 -54 161 l 1,6,-1
 -54 242 l 1,7,-1
 40 242 l 1,8,-1
 81 483 l 1,9,-1
 0 483 l 1,10,-1
 0 564 l 1,11,-1
 94 564 l 1,12,-1
 121 725 l 1,13,-1
 201 725 l 1,14,-1
 175 564 l 1,15,-1
 322 564 l 1,16,-1
 349 725 l 1,17,-1
 430 725 l 1,18,-1
 403 564 l 1,19,-1
 483 564 l 1,20,-1
 483 483 l 1,21,-1
 389 483 l 1,22,-1
 349 242 l 1,23,-1
 430 242 l 1,24,-1
 430 161 l 1,25,-1
 336 161 l 1,26,-1
 309 0 l 1,27,-1
 228 0 l 1,28,-1
 255 161 l 1,29,-1
 107 161 l 1,30,-1
 81 0 l 1,31,-1
 0 0 l 1,4,-1
EndSplineSet
Validated: 1
EndChar

StartChar: dollar
Encoding: 36 36 7
Width: 537
GlyphClass: 2
Flags: MW
LayerCount: 2
Fore
SplineSet
322 161 m 1,0,-1
 322 242 l 1,1,-1
 242 326 l 5,2,-1
 242 81 l 1,3,-1
 322 161 l 1,0,-1
161 645 m 1,4,-1
 81 564 l 1,5,-1
 81 483 l 1,6,-1
 161 407 l 5,7,-1
 161 645 l 1,4,-1
161 -81 m 1,8,-1
 161 0 l 1,9,-1
 134 0 l 1,10,-1
 0 134 l 1,11,-1
 54 188 l 1,12,-1
 161 81 l 1,13,-1
 161 326 l 5,14,-1
 134 326 l 5,15,-1
 0 457 l 1,16,-1
 0 591 l 1,17,-1
 134 725 l 1,18,-1
 161 725 l 1,19,-1
 161 806 l 1,20,-1
 242 806 l 1,21,-1
 242 725 l 1,22,-1
 269 725 l 1,23,-1
 403 591 l 1,24,-1
 349 537 l 1,25,-1
 242 645 l 1,26,-1
 242 407 l 5,27,-1
 269 407 l 5,28,-1
 403 269 l 1,29,-1
 403 134 l 1,30,-1
 269 0 l 1,31,-1
 242 0 l 1,32,-1
 242 -81 l 1,33,-1
 161 -81 l 1,8,-1
EndSplineSet
Validated: 1
EndChar

StartChar: percent
Encoding: 37 37 8
Width: 537
GlyphClass: 2
Flags: MW
LayerCount: 2
Fore
SplineSet
295 54 m 1,0,-1
 349 107 l 1,1,-1
 349 134 l 1,2,-1
 295 188 l 1,3,-1
 269 188 l 1,4,-1
 215 134 l 1,5,-1
 215 107 l 1,6,-1
 269 54 l 1,7,-1
 295 54 l 1,0,-1
242 0 m 1,8,-1
 161 81 l 1,9,-1
 161 161 l 1,10,-1
 242 242 l 1,11,-1
 322 242 l 1,12,-1
 403 161 l 1,13,-1
 403 81 l 1,14,-1
 322 0 l 1,15,-1
 242 0 l 1,8,-1
0 215 m 1,16,-1
 349 564 l 1,17,-1
 403 510 l 1,18,-1
 54 161 l 1,19,-1
 0 215 l 1,16,-1
134 537 m 1,20,-1
 188 591 l 1,21,-1
 188 618 l 1,22,-1
 134 671 l 1,23,-1
 107 671 l 1,24,-1
 54 618 l 1,25,-1
 54 591 l 1,26,-1
 107 537 l 1,27,-1
 134 537 l 1,20,-1
81 483 m 1,28,-1
 0 564 l 1,29,-1
 0 645 l 1,30,-1
 81 725 l 1,31,-1
 161 725 l 1,32,-1
 242 645 l 1,33,-1
 242 564 l 1,34,-1
 161 483 l 1,35,-1
 81 483 l 1,28,-1
EndSplineSet
Validated: 1
EndChar

StartChar: ampersand
Encoding: 38 38 9
Width: 537
GlyphClass: 2
Flags: MW
LayerCount: 2
Fore
SplineSet
175 81 m 1,0,-1
 235 201 l 1,1,-1
 143 384 l 1,2,-1
 81 322 l 1,3,-1
 81 161 l 1,4,-1
 161 81 l 1,5,-1
 175 81 l 1,0,-1
161 510 m 1,6,-1
 215 564 l 1,7,-1
 215 591 l 1,8,-1
 161 645 l 1,9,-1
 134 645 l 1,10,-1
 81 591 l 1,11,-1
 81 564 l 1,12,-1
 134 510 l 1,13,-1
 161 510 l 1,6,-1
134 0 m 1,14,-1
 0 134 l 1,15,-1
 0 349 l 1,16,-1
 107 457 l 1,17,-1
 27 537 l 1,18,-1
 27 618 l 1,19,-1
 107 698 l 1,20,-1
 188 698 l 1,21,-1
 269 618 l 1,22,-1
 269 537 l 1,23,-1
 188 457 l 1,24,-1
 275 282 l 1,25,-1
 336 403 l 1,26,-1
 349 403 l 1,27,-1
 403 376 l 1,28,-1
 316 201 l 1,29,-1
 403 27 l 1,30,-1
 349 0 l 1,31,-1
 336 0 l 1,32,-1
 275 121 l 1,33,-1
 215 0 l 1,34,-1
 134 0 l 1,14,-1
EndSplineSet
Validated: 1
EndChar

StartChar: quotesingle
Encoding: 39 39 10
Width: 537
GlyphClass: 2
Flags: MW
LayerCount: 2
Fore
SplineSet
161 457 m 1,0,-1
 161 725 l 1,1,-1
 295 725 l 1,2,-1
 295 671 l 1,3,-1
 242 457 l 1,4,-1
 161 457 l 1,0,-1
EndSplineSet
Validated: 1
EndChar

StartChar: parenleft
Encoding: 40 40 11
Width: 537
GlyphClass: 2
Flags: MW
LayerCount: 2
Fore
SplineSet
215 -134 m 1,0,-1
 134 -54 l 1,1,-1
 107 107 l 1,2,-1
 107 564 l 1,3,-1
 134 725 l 1,4,-1
 215 806 l 1,5,-1
 269 833 l 1,6,-1
 295 806 l 1,7,-1
 215 725 l 1,8,-1
 188 564 l 1,9,-1
 188 107 l 1,10,-1
 215 -54 l 1,11,-1
 295 -134 l 1,12,-1
 269 -161 l 1,13,-1
 215 -134 l 1,0,-1
EndSplineSet
Validated: 1
EndChar

StartChar: parenright
Encoding: 41 41 12
Width: 537
GlyphClass: 2
Flags: MW
LayerCount: 2
Fore
SplineSet
107 -134 m 1,0,-1
 188 -54 l 1,1,-1
 215 107 l 1,2,-1
 215 564 l 1,3,-1
 188 725 l 1,4,-1
 107 806 l 1,5,-1
 134 833 l 1,6,-1
 188 806 l 1,7,-1
 269 725 l 1,8,-1
 295 564 l 1,9,-1
 295 107 l 1,10,-1
 269 -54 l 1,11,-1
 188 -134 l 1,12,-1
 134 -161 l 1,13,-1
 107 -134 l 1,0,-1
EndSplineSet
Validated: 1
EndChar

StartChar: asterisk
Encoding: 42 42 13
Width: 537
GlyphClass: 2
Flags: MW
LayerCount: 2
Fore
SplineSet
107 269 m 1,0,-1
 54 295 l 1,1,-1
 144 477 l 1,2,-1
 0 551 l 1,3,-1
 0 564 l 1,4,-1
 27 618 l 1,5,-1
 161 551 l 1,6,-1
 161 725 l 1,7,-1
 242 725 l 1,8,-1
 242 551 l 1,9,-1
 376 618 l 1,10,-1
 403 564 l 1,11,-1
 403 551 l 1,12,-1
 257 477 l 1,13,-1
 349 295 l 1,14,-1
 295 269 l 1,15,-1
 282 269 l 1,16,-1
 201 430 l 1,17,-1
 121 269 l 1,18,-1
 107 269 l 1,0,-1
EndSplineSet
Validated: 1
EndChar

StartChar: plus
Encoding: 43 43 14
Width: 537
GlyphClass: 2
Flags: MW
LayerCount: 2
Fore
SplineSet
161 73 m 1,0,-1
 161 242 l 1,1,-1
 0 242 l 1,2,-1
 0 322 l 1,3,-1
 161 322 l 1,4,-1
 161 489 l 1,5,-1
 242 489 l 1,6,-1
 242 322 l 1,7,-1
 403 322 l 1,8,-1
 403 242 l 1,9,-1
 242 242 l 1,10,-1
 242 73 l 1,11,-1
 161 73 l 1,0,-1
EndSplineSet
Validated: 1
EndChar

StartChar: comma
Encoding: 44 44 15
Width: 537
GlyphClass: 2
Flags: MW
LayerCount: 2
Fore
SplineSet
107 -121 m 1,0,-1
 188 -40 l 1,1,-1
 188 -13 l 1,2,-1
 134 -13 l 1,3,-1
 134 121 l 1,4,-1
 269 121 l 1,5,-1
 269 -67 l 1,6,-1
 161 -175 l 1,7,-1
 107 -121 l 1,0,-1
EndSplineSet
Validated: 1
EndChar

StartChar: hyphen
Encoding: 45 45 16
Width: 537
GlyphClass: 2
Flags: MW
LayerCount: 2
Fore
SplineSet
54 242 m 1,0,-1
 54 322 l 1,1,-1
 349 322 l 1,2,-1
 349 242 l 1,3,-1
 54 242 l 1,0,-1
EndSplineSet
Validated: 1
EndChar

StartChar: period
Encoding: 46 46 17
Width: 537
GlyphClass: 2
Flags: MW
LayerCount: 2
Fore
SplineSet
134 27 m 1,0,-1
 134 161 l 1,1,-1
 269 161 l 1,2,-1
 269 27 l 1,3,-1
 134 27 l 1,0,-1
EndSplineSet
Validated: 1
EndChar

StartChar: slash
Encoding: 47 47 18
Width: 537
GlyphClass: 2
Flags: MW
LayerCount: 2
Fore
SplineSet
0 -107 m 5,0,-1
 -54 -81 l 5,1,-1
 363 752 l 5,2,-1
 376 752 l 5,3,-1
 430 725 l 5,4,-1
 13 -107 l 5,5,-1
 0 -107 l 5,0,-1
EndSplineSet
Validated: 1
EndChar

StartChar: zero
Encoding: 48 48 19
Width: 537
GlyphClass: 2
Flags: MW
LayerCount: 2
Fore
SplineSet
242 81 m 1,0,-1
 322 161 l 1,1,-1
 322 476 l 1,2,-1
 81 178 l 1,3,-1
 81 161 l 1,4,-1
 161 81 l 1,5,-1
 242 81 l 1,0,-1
322 543 m 1,6,-1
 322 564 l 1,7,-1
 242 645 l 1,8,-1
 161 645 l 1,9,-1
 81 564 l 1,10,-1
 81 245 l 1,11,-1
 322 543 l 1,6,-1
134 0 m 1,12,-1
 0 134 l 1,13,-1
 0 591 l 1,14,-1
 134 725 l 1,15,-1
 269 725 l 1,16,-1
 403 591 l 1,17,-1
 403 134 l 1,18,-1
 269 0 l 1,19,-1
 134 0 l 1,12,-1
EndSplineSet
Validated: 1
EndChar

StartChar: one
Encoding: 49 49 20
Width: 537
GlyphClass: 2
Flags: MW
LayerCount: 2
Fore
SplineSet
27 0 m 1,0,-1
 27 81 l 1,1,-1
 161 81 l 1,2,-1
 161 591 l 1,3,-1
 54 483 l 1,4,-1
 0 537 l 1,5,-1
 188 725 l 1,6,-1
 242 725 l 1,7,-1
 242 81 l 1,8,-1
 376 81 l 1,9,-1
 376 0 l 1,10,-1
 27 0 l 1,0,-1
EndSplineSet
Validated: 1
EndChar

StartChar: two
Encoding: 50 50 21
Width: 537
GlyphClass: 2
Flags: MW
LayerCount: 2
Fore
SplineSet
0 0 m 1,0,-1
 0 161 l 1,1,-1
 322 483 l 1,2,-1
 322 564 l 1,3,-1
 242 645 l 1,4,-1
 161 645 l 1,5,-1
 54 537 l 1,6,-1
 0 591 l 1,7,-1
 134 725 l 1,8,-1
 269 725 l 1,9,-1
 403 591 l 1,10,-1
 403 457 l 1,11,-1
 81 134 l 1,12,-1
 81 81 l 1,13,-1
 403 81 l 1,14,-1
 403 0 l 1,15,-1
 0 0 l 1,0,-1
EndSplineSet
Validated: 1
EndChar

StartChar: three
Encoding: 51 51 22
Width: 537
GlyphClass: 2
Flags: MW
LayerCount: 2
Fore
SplineSet
309 389 m 1,0,-1
 403 295 l 1,1,-1
 403 134 l 1,2,-1
 269 0 l 1,3,-1
 134 0 l 1,4,-1
 0 134 l 1,5,-1
 54 188 l 1,6,-1
 161 81 l 1,7,-1
 242 81 l 1,8,-1
 322 161 l 1,9,-1
 322 269 l 1,10,-1
 242 349 l 1,11,-1
 134 349 l 1,12,-1
 134 430 l 1,13,-1
 242 430 l 1,14,-1
 322 510 l 1,15,-1
 322 564 l 1,16,-1
 242 645 l 1,17,-1
 161 645 l 1,18,-1
 54 537 l 1,19,-1
 0 591 l 1,20,-1
 134 725 l 1,21,-1
 269 725 l 1,22,-1
 403 591 l 1,23,-1
 403 483 l 1,24,-1
 309 389 l 1,0,-1
EndSplineSet
Validated: 1
EndChar

StartChar: four
Encoding: 52 52 23
Width: 537
GlyphClass: 2
Flags: MW
LayerCount: 2
Fore
SplineSet
242 242 m 1,0,-1
 242 537 l 1,1,-1
 94 242 l 1,2,-1
 242 242 l 1,0,-1
242 0 m 1,3,-1
 242 161 l 1,4,-1
 0 161 l 1,5,-1
 0 215 l 1,6,-1
 255 725 l 1,7,-1
 322 725 l 1,8,-1
 322 242 l 1,9,-1
 403 242 l 1,10,-1
 403 161 l 1,11,-1
 322 161 l 1,12,-1
 322 0 l 1,13,-1
 242 0 l 1,3,-1
EndSplineSet
Validated: 1
EndChar

StartChar: five
Encoding: 53 53 24
Width: 537
GlyphClass: 2
Flags: MW
LayerCount: 2
Fore
SplineSet
134 0 m 1,0,-1
 0 134 l 1,1,-1
 54 188 l 1,2,-1
 161 81 l 1,3,-1
 242 81 l 1,4,-1
 322 161 l 1,5,-1
 322 322 l 1,6,-1
 242 403 l 1,7,-1
 161 403 l 1,8,-1
 81 322 l 1,9,-1
 0 322 l 1,10,-1
 0 725 l 1,11,-1
 403 725 l 1,12,-1
 403 645 l 1,13,-1
 81 645 l 1,14,-1
 81 430 l 1,15,-1
 134 483 l 1,16,-1
 269 483 l 1,17,-1
 403 349 l 1,18,-1
 403 134 l 1,19,-1
 269 0 l 1,20,-1
 134 0 l 1,0,-1
EndSplineSet
Validated: 1
EndChar

StartChar: six
Encoding: 54 54 25
Width: 537
GlyphClass: 2
Flags: MW
LayerCount: 2
Fore
SplineSet
242 81 m 1,0,-1
 322 161 l 1,1,-1
 322 322 l 1,2,-1
 242 403 l 1,3,-1
 161 403 l 1,4,-1
 81 322 l 1,5,-1
 81 161 l 1,6,-1
 161 81 l 1,7,-1
 242 81 l 1,0,-1
134 0 m 1,8,-1
 0 134 l 1,9,-1
 0 591 l 1,10,-1
 134 725 l 1,11,-1
 269 725 l 1,12,-1
 403 591 l 1,13,-1
 349 537 l 1,14,-1
 242 645 l 1,15,-1
 161 645 l 1,16,-1
 81 564 l 1,17,-1
 81 430 l 1,18,-1
 134 483 l 1,19,-1
 269 483 l 1,20,-1
 403 349 l 1,21,-1
 403 134 l 1,22,-1
 269 0 l 1,23,-1
 134 0 l 1,8,-1
EndSplineSet
Validated: 1
EndChar

StartChar: seven
Encoding: 55 55 26
Width: 537
GlyphClass: 2
Flags: MW
LayerCount: 2
Fore
SplineSet
54 0 m 1,0,-1
 0 27 l 1,1,-1
 309 645 l 1,2,-1
 0 645 l 1,3,-1
 0 725 l 1,4,-1
 403 725 l 1,5,-1
 403 671 l 1,6,-1
 67 0 l 1,7,-1
 54 0 l 1,0,-1
EndSplineSet
Validated: 1
EndChar

StartChar: eight
Encoding: 56 56 27
Width: 537
GlyphClass: 2
Flags: MW
LayerCount: 2
Fore
SplineSet
242 81 m 1,0,-1
 322 161 l 1,1,-1
 322 269 l 1,2,-1
 242 349 l 1,3,-1
 161 349 l 1,4,-1
 81 269 l 1,5,-1
 81 161 l 1,6,-1
 161 81 l 1,7,-1
 242 81 l 1,0,-1
242 434 m 1,8,-1
 322 514 l 1,9,-1
 322 568 l 1,10,-1
 242 649 l 1,11,-1
 161 649 l 1,12,-1
 81 568 l 1,13,-1
 81 514 l 1,14,-1
 161 434 l 1,15,-1
 242 434 l 1,8,-1
309 393 m 1,16,-1
 403 295 l 1,17,-1
 403 134 l 1,18,-1
 269 0 l 1,19,-1
 134 0 l 1,20,-1
 0 134 l 1,21,-1
 0 295 l 1,22,-1
 94 393 l 1,23,-1
 0 487 l 1,24,-1
 0 595 l 1,25,-1
 134 729 l 1,26,-1
 269 729 l 1,27,-1
 403 595 l 1,28,-1
 403 487 l 1,29,-1
 309 393 l 1,16,-1
EndSplineSet
Validated: 1
EndChar

StartChar: nine
Encoding: 57 57 28
Width: 537
GlyphClass: 2
Flags: MW
LayerCount: 2
Fore
SplineSet
242 376 m 1,0,-1
 322 457 l 1,1,-1
 322 564 l 1,2,-1
 242 645 l 1,3,-1
 161 645 l 1,4,-1
 81 564 l 1,5,-1
 81 457 l 1,6,-1
 161 376 l 1,7,-1
 242 376 l 1,0,-1
134 0 m 1,8,-1
 0 134 l 1,9,-1
 54 188 l 1,10,-1
 161 81 l 1,11,-1
 242 81 l 1,12,-1
 322 161 l 1,13,-1
 322 349 l 1,14,-1
 269 295 l 1,15,-1
 134 295 l 1,16,-1
 0 430 l 1,17,-1
 0 591 l 1,18,-1
 134 725 l 1,19,-1
 269 725 l 1,20,-1
 403 591 l 1,21,-1
 403 134 l 1,22,-1
 269 0 l 1,23,-1
 134 0 l 1,8,-1
EndSplineSet
Validated: 1
EndChar

StartChar: colon
Encoding: 58 58 29
Width: 537
GlyphClass: 2
Flags: MW
LayerCount: 2
Fore
SplineSet
134 0 m 1,0,-1
 134 134 l 1,1,-1
 269 134 l 1,2,-1
 269 0 l 1,3,-1
 134 0 l 1,0,-1
134 430 m 1,4,-1
 134 564 l 1,5,-1
 269 564 l 1,6,-1
 269 430 l 1,7,-1
 134 430 l 1,4,-1
EndSplineSet
Validated: 1
EndChar

StartChar: semicolon
Encoding: 59 59 30
Width: 537
GlyphClass: 2
Flags: MW
LayerCount: 2
Fore
SplineSet
107 -107 m 1,0,-1
 188 -27 l 1,1,-1
 188 0 l 1,2,-1
 134 0 l 1,3,-1
 134 134 l 1,4,-1
 269 134 l 1,5,-1
 269 -54 l 1,6,-1
 161 -161 l 1,7,-1
 107 -107 l 1,0,-1
134 430 m 1,8,-1
 134 564 l 1,9,-1
 269 564 l 1,10,-1
 269 430 l 1,11,-1
 134 430 l 1,8,-1
EndSplineSet
Validated: 1
EndChar

StartChar: less
Encoding: 60 60 31
Width: 537
GlyphClass: 2
Flags: MW
LayerCount: 2
Fore
SplineSet
27 255 m 1,0,-1
 27 309 l 1,1,-1
 376 483 l 1,2,-1
 403 430 l 1,3,-1
 403 416 l 1,4,-1
 134 282 l 1,5,-1
 403 148 l 1,6,-1
 403 134 l 1,7,-1
 376 81 l 1,8,-1
 27 255 l 1,0,-1
EndSplineSet
Validated: 1
EndChar

StartChar: equal
Encoding: 61 61 32
Width: 537
GlyphClass: 2
Flags: MW
LayerCount: 2
Fore
SplineSet
0 161 m 5,0,-1
 0 242 l 5,1,-1
 403 242 l 5,2,-1
 403 161 l 5,3,-1
 0 161 l 5,0,-1
0 322 m 5,4,-1
 0 403 l 5,5,-1
 403 403 l 5,6,-1
 403 322 l 5,7,-1
 0 322 l 5,4,-1
EndSplineSet
Validated: 1
EndChar

StartChar: greater
Encoding: 62 62 33
Width: 537
GlyphClass: 2
Flags: MW
LayerCount: 2
Fore
SplineSet
0 134 m 1,0,-1
 0 148 l 1,1,-1
 269 282 l 1,2,-1
 0 416 l 1,3,-1
 0 430 l 1,4,-1
 27 483 l 1,5,-1
 376 309 l 1,6,-1
 376 255 l 1,7,-1
 27 81 l 1,8,-1
 0 134 l 1,0,-1
EndSplineSet
Validated: 1
EndChar

StartChar: question
Encoding: 63 63 34
Width: 537
GlyphClass: 2
Flags: MW
LayerCount: 2
Fore
SplineSet
134 0 m 1,0,-1
 134 134 l 1,1,-1
 269 134 l 1,2,-1
 269 0 l 1,3,-1
 134 0 l 1,0,-1
161 215 m 1,4,-1
 161 322 l 1,5,-1
 322 483 l 1,6,-1
 322 564 l 1,7,-1
 242 645 l 1,8,-1
 161 645 l 1,9,-1
 54 537 l 1,10,-1
 0 591 l 1,11,-1
 134 725 l 1,12,-1
 269 725 l 1,13,-1
 403 591 l 1,14,-1
 403 457 l 1,15,-1
 242 295 l 1,16,-1
 242 215 l 1,17,-1
 161 215 l 1,4,-1
EndSplineSet
Validated: 1
EndChar

StartChar: at
Encoding: 64 64 35
Width: 537
GlyphClass: 2
Flags: MW
LayerCount: 2
Fore
SplineSet
322 242 m 1,0,-1
 322 403 l 1,1,-1
 269 403 l 1,2,-1
 215 349 l 1,3,-1
 215 188 l 1,4,-1
 242 161 l 1,5,-1
 322 242 l 1,0,-1
81 -161 m 1,6,-1
 -54 -27 l 1,7,-1
 -54 591 l 1,8,-1
 81 725 l 1,9,-1
 269 725 l 1,10,-1
 403 591 l 1,11,-1
 403 81 l 1,12,-1
 322 81 l 1,13,-1
 322 134 l 1,14,-1
 269 81 l 1,15,-1
 215 81 l 1,16,-1
 134 161 l 1,17,-1
 134 376 l 1,18,-1
 242 483 l 1,19,-1
 322 483 l 1,20,-1
 322 564 l 1,21,-1
 242 645 l 1,22,-1
 107 645 l 1,23,-1
 27 564 l 1,24,-1
 27 0 l 1,25,-1
 107 -81 l 1,26,-1
 242 -81 l 1,27,-1
 349 27 l 1,28,-1
 403 -27 l 1,29,-1
 269 -161 l 1,30,-1
 81 -161 l 1,6,-1
EndSplineSet
Validated: 1
EndChar

StartChar: A
Encoding: 65 65 36
Width: 537
GlyphClass: 2
Flags: MW
LayerCount: 2
Fore
SplineSet
322 322 m 1,0,-1
 322 376 l 1,1,-1
 201 618 l 1,2,-1
 81 376 l 1,3,-1
 81 322 l 1,4,-1
 322 322 l 1,0,-1
0 0 m 1,5,-1
 0 376 l 1,6,-1
 175 725 l 1,7,-1
 228 725 l 1,8,-1
 403 376 l 1,9,-1
 403 0 l 1,10,-1
 322 0 l 1,11,-1
 322 242 l 1,12,-1
 81 242 l 1,13,-1
 81 0 l 1,14,-1
 0 0 l 1,5,-1
EndSplineSet
Validated: 1
EndChar

StartChar: B
Encoding: 66 66 37
Width: 537
GlyphClass: 2
Flags: MW
LayerCount: 2
Fore
SplineSet
242 81 m 1,0,-1
 322 161 l 1,1,-1
 322 242 l 1,2,-1
 242 336 l 1,3,-1
 81 336 l 1,4,-1
 81 81 l 1,5,-1
 242 81 l 1,0,-1
242 415 m 1,6,-1
 322 483 l 1,7,-1
 322 564 l 1,8,-1
 242 645 l 1,9,-1
 81 645 l 1,10,-1
 81 415 l 1,11,-1
 242 415 l 1,6,-1
309 373 m 1,12,-1
 403 269 l 1,13,-1
 403 134 l 1,14,-1
 269 0 l 1,15,-1
 0 0 l 1,16,-1
 0 725 l 1,17,-1
 269 725 l 1,18,-1
 403 591 l 1,19,-1
 403 457 l 1,20,-1
 309 373 l 1,12,-1
EndSplineSet
Validated: 1
EndChar

StartChar: C
Encoding: 67 67 38
Width: 537
GlyphClass: 2
Flags: MW
LayerCount: 2
Fore
SplineSet
134 0 m 1,0,-1
 0 134 l 1,1,-1
 0 591 l 1,2,-1
 134 725 l 1,3,-1
 269 725 l 1,4,-1
 403 591 l 1,5,-1
 349 537 l 1,6,-1
 242 645 l 1,7,-1
 161 645 l 1,8,-1
 81 564 l 1,9,-1
 81 161 l 1,10,-1
 161 81 l 1,11,-1
 242 81 l 1,12,-1
 349 188 l 1,13,-1
 403 134 l 1,14,-1
 269 0 l 1,15,-1
 134 0 l 1,0,-1
EndSplineSet
Validated: 1
EndChar

StartChar: D
Encoding: 68 68 39
Width: 537
GlyphClass: 2
Flags: MW
LayerCount: 2
Fore
SplineSet
242 81 m 1,0,-1
 322 161 l 1,1,-1
 322 564 l 1,2,-1
 242 645 l 1,3,-1
 81 645 l 1,4,-1
 81 81 l 1,5,-1
 242 81 l 1,0,-1
0 0 m 1,6,-1
 0 725 l 1,7,-1
 269 725 l 1,8,-1
 403 591 l 1,9,-1
 403 134 l 1,10,-1
 269 0 l 1,11,-1
 0 0 l 1,6,-1
EndSplineSet
Validated: 1
EndChar

StartChar: E
Encoding: 69 69 40
Width: 537
GlyphClass: 2
Flags: MW
LayerCount: 2
Fore
SplineSet
0 0 m 1,0,-1
 0 725 l 1,1,-1
 403 725 l 1,2,-1
 403 645 l 1,3,-1
 81 645 l 1,4,-1
 81 413 l 1,5,-1
 322 413 l 1,6,-1
 322 332 l 1,7,-1
 81 332 l 1,8,-1
 81 81 l 1,9,-1
 403 81 l 1,10,-1
 403 0 l 1,11,-1
 0 0 l 1,0,-1
EndSplineSet
Validated: 1
EndChar

StartChar: F
Encoding: 70 70 41
Width: 537
GlyphClass: 2
Flags: MW
LayerCount: 2
Fore
SplineSet
0 0 m 1,0,-1
 0 725 l 1,1,-1
 403 725 l 1,2,-1
 403 645 l 1,3,-1
 81 645 l 1,4,-1
 81 414 l 1,5,-1
 322 414 l 1,6,-1
 322 333 l 1,7,-1
 81 333 l 1,8,-1
 81 0 l 1,9,-1
 0 0 l 1,0,-1
EndSplineSet
Validated: 1
EndChar

StartChar: G
Encoding: 71 71 42
Width: 537
GlyphClass: 2
Flags: MW
LayerCount: 2
Fore
SplineSet
134 0 m 1,0,-1
 0 134 l 1,1,-1
 0 591 l 1,2,-1
 134 725 l 1,3,-1
 269 725 l 1,4,-1
 403 591 l 1,5,-1
 349 537 l 1,6,-1
 242 645 l 1,7,-1
 161 645 l 1,8,-1
 81 564 l 1,9,-1
 81 161 l 1,10,-1
 161 81 l 1,11,-1
 215 81 l 1,12,-1
 322 188 l 1,13,-1
 322 322 l 1,14,-1
 161 322 l 1,15,-1
 161 403 l 1,16,-1
 403 403 l 1,17,-1
 403 0 l 1,18,-1
 322 0 l 1,19,-1
 322 81 l 1,20,-1
 242 0 l 1,21,-1
 134 0 l 1,0,-1
EndSplineSet
Validated: 1
EndChar

StartChar: H
Encoding: 72 72 43
Width: 537
GlyphClass: 2
Flags: MW
LayerCount: 2
Fore
SplineSet
0 0 m 1,0,-1
 0 725 l 1,1,-1
 81 725 l 1,2,-1
 81 409 l 5,3,-1
 322 409 l 5,4,-1
 322 725 l 1,5,-1
 403 725 l 1,6,-1
 403 0 l 1,7,-1
 322 0 l 1,8,-1
 322 328 l 5,9,-1
 81 328 l 5,10,-1
 81 0 l 1,11,-1
 0 0 l 1,0,-1
EndSplineSet
Validated: 1
EndChar

StartChar: I
Encoding: 73 73 44
Width: 537
GlyphClass: 2
Flags: MW
LayerCount: 2
Fore
SplineSet
54 0 m 1,0,-1
 54 81 l 1,1,-1
 161 81 l 1,2,-1
 161 645 l 1,3,-1
 54 645 l 1,4,-1
 54 725 l 1,5,-1
 349 725 l 1,6,-1
 349 645 l 1,7,-1
 242 645 l 1,8,-1
 242 81 l 1,9,-1
 349 81 l 1,10,-1
 349 0 l 1,11,-1
 54 0 l 1,0,-1
EndSplineSet
Validated: 1
EndChar

StartChar: J
Encoding: 74 74 45
Width: 537
GlyphClass: 2
Flags: MW
LayerCount: 2
Fore
SplineSet
134 0 m 1,0,-1
 0 134 l 1,1,-1
 54 188 l 1,2,-1
 161 81 l 1,3,-1
 242 81 l 1,4,-1
 322 161 l 1,5,-1
 322 725 l 1,6,-1
 403 725 l 1,7,-1
 403 134 l 1,8,-1
 269 0 l 1,9,-1
 134 0 l 1,0,-1
EndSplineSet
Validated: 1
EndChar

StartChar: K
Encoding: 75 75 46
Width: 537
GlyphClass: 2
Flags: MW
LayerCount: 2
Fore
SplineSet
0 0 m 1,0,-1
 0 725 l 1,1,-1
 81 725 l 1,2,-1
 81 407 l 5,3,-1
 175 407 l 5,4,-1
 336 725 l 1,5,-1
 349 725 l 1,6,-1
 403 698 l 1,7,-1
 235 367 l 5,8,-1
 403 27 l 1,9,-1
 349 0 l 1,10,-1
 336 0 l 1,11,-1
 175 326 l 5,12,-1
 81 326 l 5,13,-1
 81 0 l 1,14,-1
 0 0 l 1,0,-1
EndSplineSet
Validated: 1
EndChar

StartChar: L
Encoding: 76 76 47
Width: 537
GlyphClass: 2
Flags: MW
LayerCount: 2
Fore
SplineSet
0 0 m 1,0,-1
 0 725 l 1,1,-1
 81 725 l 1,2,-1
 81 81 l 1,3,-1
 403 81 l 1,4,-1
 403 0 l 1,5,-1
 0 0 l 1,0,-1
EndSplineSet
Validated: 1
EndChar

StartChar: M
Encoding: 77 77 48
Width: 537
GlyphClass: 2
Flags: MW
LayerCount: 2
Fore
SplineSet
0 0 m 1,0,-1
 0 725 l 1,1,-1
 67 725 l 1,2,-1
 201 457 l 1,3,-1
 336 725 l 1,4,-1
 403 725 l 1,5,-1
 403 0 l 1,6,-1
 322 0 l 1,7,-1
 322 537 l 1,8,-1
 228 349 l 1,9,-1
 175 349 l 1,10,-1
 81 537 l 1,11,-1
 81 0 l 1,12,-1
 0 0 l 1,0,-1
EndSplineSet
Validated: 1
EndChar

StartChar: N
Encoding: 78 78 49
Width: 537
GlyphClass: 2
Flags: MW
LayerCount: 2
Fore
SplineSet
0 0 m 1,0,-1
 0 725 l 1,1,-1
 67 725 l 1,2,-1
 322 215 l 1,3,-1
 322 725 l 1,4,-1
 403 725 l 1,5,-1
 403 0 l 1,6,-1
 349 0 l 1,7,-1
 81 537 l 1,8,-1
 81 0 l 1,9,-1
 0 0 l 1,0,-1
EndSplineSet
Validated: 1
EndChar

StartChar: O
Encoding: 79 79 50
Width: 537
GlyphClass: 2
Flags: MW
LayerCount: 2
Fore
SplineSet
242 81 m 1,0,-1
 322 161 l 1,1,-1
 322 564 l 1,2,-1
 242 645 l 1,3,-1
 161 645 l 1,4,-1
 81 564 l 1,5,-1
 81 161 l 1,6,-1
 161 81 l 1,7,-1
 242 81 l 1,0,-1
134 0 m 1,8,-1
 0 134 l 1,9,-1
 0 591 l 1,10,-1
 134 725 l 1,11,-1
 269 725 l 1,12,-1
 403 591 l 1,13,-1
 403 134 l 1,14,-1
 269 0 l 1,15,-1
 134 0 l 1,8,-1
EndSplineSet
Validated: 1
EndChar

StartChar: P
Encoding: 80 80 51
Width: 537
GlyphClass: 2
Flags: MW
LayerCount: 2
Fore
SplineSet
242 403 m 1,0,-1
 322 483 l 1,1,-1
 322 564 l 1,2,-1
 242 645 l 1,3,-1
 81 645 l 1,4,-1
 81 403 l 1,5,-1
 242 403 l 1,0,-1
0 0 m 1,6,-1
 0 725 l 1,7,-1
 269 725 l 1,8,-1
 403 591 l 1,9,-1
 403 457 l 1,10,-1
 269 322 l 1,11,-1
 81 322 l 1,12,-1
 81 0 l 1,13,-1
 0 0 l 1,6,-1
EndSplineSet
Validated: 1
EndChar

StartChar: Q
Encoding: 81 81 52
Width: 537
GlyphClass: 2
Flags: MW
LayerCount: 2
Fore
SplineSet
309 148 m 1,0,-1
 322 161 l 1,1,-1
 322 564 l 1,2,-1
 242 645 l 1,3,-1
 161 645 l 1,4,-1
 81 564 l 1,5,-1
 81 161 l 1,6,-1
 161 81 l 1,7,-1
 242 81 l 1,8,-1
 255 94 l 1,9,-1
 161 188 l 1,10,-1
 215 242 l 1,11,-1
 309 148 l 1,0,-1
309 40 m 1,12,-1
 269 0 l 1,13,-1
 134 0 l 1,14,-1
 0 134 l 1,15,-1
 0 591 l 1,16,-1
 134 725 l 1,17,-1
 269 725 l 1,18,-1
 403 591 l 1,19,-1
 403 134 l 1,20,-1
 363 94 l 1,21,-1
 457 0 l 1,22,-1
 403 -54 l 1,23,-1
 309 40 l 1,12,-1
EndSplineSet
Validated: 1
EndChar

StartChar: R
Encoding: 82 82 53
Width: 537
GlyphClass: 2
Flags: MW
LayerCount: 2
Fore
SplineSet
242 407 m 5,0,-1
 322 483 l 1,1,-1
 322 564 l 1,2,-1
 242 645 l 1,3,-1
 81 645 l 1,4,-1
 81 407 l 5,5,-1
 242 407 l 5,0,-1
0 0 m 1,6,-1
 0 725 l 1,7,-1
 269 725 l 1,8,-1
 403 591 l 1,9,-1
 403 457 l 1,10,-1
 269 326 l 5,11,-1
 255 326 l 5,12,-1
 403 27 l 1,13,-1
 349 0 l 1,14,-1
 336 0 l 1,15,-1
 175 326 l 5,16,-1
 81 326 l 5,17,-1
 81 0 l 1,18,-1
 0 0 l 1,6,-1
EndSplineSet
Validated: 1
EndChar

StartChar: S
Encoding: 83 83 54
Width: 537
GlyphClass: 2
Flags: MW
LayerCount: 2
Fore
SplineSet
134 0 m 1,0,-1
 0 134 l 1,1,-1
 54 188 l 1,2,-1
 161 81 l 1,3,-1
 242 81 l 1,4,-1
 322 161 l 1,5,-1
 322 246 l 1,6,-1
 242 333 l 1,7,-1
 134 335 l 1,8,-1
 0 464 l 1,9,-1
 0 591 l 1,10,-1
 134 725 l 1,11,-1
 269 725 l 1,12,-1
 403 591 l 1,13,-1
 349 537 l 1,14,-1
 242 645 l 1,15,-1
 161 645 l 1,16,-1
 81 564 l 1,17,-1
 81 492 l 1,18,-1
 161 416 l 1,19,-1
 269 414 l 1,20,-1
 403 273 l 1,21,-1
 403 134 l 1,22,-1
 269 0 l 1,23,-1
 134 0 l 1,0,-1
EndSplineSet
Validated: 1
EndChar

StartChar: T
Encoding: 84 84 55
Width: 537
GlyphClass: 2
Flags: MW
LayerCount: 2
Fore
SplineSet
161 0 m 1,0,-1
 161 645 l 1,1,-1
 0 645 l 1,2,-1
 0 725 l 1,3,-1
 403 725 l 1,4,-1
 403 645 l 1,5,-1
 242 645 l 1,6,-1
 242 0 l 1,7,-1
 161 0 l 1,0,-1
EndSplineSet
Validated: 1
EndChar

StartChar: U
Encoding: 85 85 56
Width: 537
GlyphClass: 2
Flags: MW
LayerCount: 2
Fore
SplineSet
134 0 m 1,0,-1
 0 134 l 1,1,-1
 0 725 l 1,2,-1
 81 725 l 1,3,-1
 81 161 l 1,4,-1
 161 81 l 1,5,-1
 242 81 l 1,6,-1
 322 161 l 1,7,-1
 322 725 l 1,8,-1
 403 725 l 1,9,-1
 403 134 l 1,10,-1
 269 0 l 1,11,-1
 134 0 l 1,0,-1
EndSplineSet
Validated: 1
EndChar

StartChar: V
Encoding: 86 86 57
Width: 537
GlyphClass: 2
Flags: MW
LayerCount: 2
Fore
SplineSet
175 0 m 1,0,-1
 0 349 l 1,1,-1
 0 725 l 1,2,-1
 81 725 l 1,3,-1
 81 349 l 1,4,-1
 201 107 l 1,5,-1
 322 349 l 1,6,-1
 322 725 l 1,7,-1
 403 725 l 1,8,-1
 403 349 l 1,9,-1
 228 0 l 1,10,-1
 175 0 l 1,0,-1
EndSplineSet
Validated: 1
EndChar

StartChar: W
Encoding: 87 87 58
Width: 537
GlyphClass: 2
Flags: MW
LayerCount: 2
Fore
SplineSet
0 0 m 1,0,-1
 0 725 l 1,1,-1
 81 725 l 1,2,-1
 81 188 l 1,3,-1
 175 376 l 1,4,-1
 228 376 l 1,5,-1
 322 188 l 1,6,-1
 322 725 l 1,7,-1
 403 725 l 1,8,-1
 403 0 l 1,9,-1
 336 0 l 1,10,-1
 201 269 l 1,11,-1
 67 0 l 1,12,-1
 0 0 l 1,0,-1
EndSplineSet
Validated: 1
EndChar

StartChar: X
Encoding: 88 88 59
Width: 537
GlyphClass: 2
Flags: MW
LayerCount: 2
Fore
SplineSet
54 0 m 1,0,-1
 0 27 l 1,1,-1
 161 349 l 1,2,-1
 161 376 l 1,3,-1
 0 698 l 1,4,-1
 54 725 l 1,5,-1
 67 725 l 1,6,-1
 201 457 l 1,7,-1
 336 725 l 1,8,-1
 349 725 l 1,9,-1
 403 698 l 1,10,-1
 242 376 l 1,11,-1
 242 349 l 1,12,-1
 403 27 l 1,13,-1
 349 0 l 1,14,-1
 336 0 l 1,15,-1
 201 269 l 1,16,-1
 67 0 l 1,17,-1
 54 0 l 1,0,-1
EndSplineSet
Validated: 1
EndChar

StartChar: Y
Encoding: 89 89 60
Width: 537
GlyphClass: 2
Flags: MW
LayerCount: 2
Fore
SplineSet
161 0 m 1,0,-1
 161 376 l 1,1,-1
 0 698 l 1,2,-1
 54 725 l 1,3,-1
 67 725 l 1,4,-1
 201 457 l 1,5,-1
 336 725 l 1,6,-1
 349 725 l 1,7,-1
 403 698 l 1,8,-1
 242 376 l 1,9,-1
 242 0 l 1,10,-1
 161 0 l 1,0,-1
EndSplineSet
Validated: 1
EndChar

StartChar: Z
Encoding: 90 90 61
Width: 537
GlyphClass: 2
Flags: MW
LayerCount: 2
Fore
SplineSet
0 0 m 1,0,-1
 0 54 l 1,1,-1
 295 645 l 1,2,-1
 0 645 l 1,3,-1
 0 725 l 1,4,-1
 403 725 l 1,5,-1
 403 698 l 1,6,-1
 94 81 l 1,7,-1
 403 81 l 1,8,-1
 403 0 l 1,9,-1
 0 0 l 1,0,-1
EndSplineSet
Validated: 1
EndChar

StartChar: bracketleft
Encoding: 91 91 62
Width: 537
GlyphClass: 2
Flags: MW
LayerCount: 2
Fore
SplineSet
54 -134 m 1,0,-1
 54 806 l 1,1,-1
 322 806 l 1,2,-1
 322 725 l 1,3,-1
 134 725 l 1,4,-1
 134 -54 l 1,5,-1
 322 -54 l 1,6,-1
 322 -134 l 1,7,-1
 54 -134 l 1,0,-1
EndSplineSet
Validated: 1
EndChar

StartChar: backslash
Encoding: 92 92 63
Width: 537
GlyphClass: 2
Flags: MW
LayerCount: 2
Fore
SplineSet
389 -107 m 1,0,-1
 -27 725 l 1,1,-1
 27 752 l 1,2,-1
 40 752 l 1,3,-1
 457 -81 l 1,4,-1
 403 -107 l 1,5,-1
 389 -107 l 1,0,-1
EndSplineSet
Validated: 1
EndChar

StartChar: bracketright
Encoding: 93 93 64
Width: 537
GlyphClass: 2
Flags: MW
LayerCount: 2
Fore
SplineSet
27 -134 m 1,0,-1
 27 -54 l 1,1,-1
 215 -54 l 1,2,-1
 215 725 l 1,3,-1
 27 725 l 1,4,-1
 27 806 l 1,5,-1
 295 806 l 1,6,-1
 295 -134 l 1,7,-1
 27 -134 l 1,0,-1
EndSplineSet
Validated: 1
EndChar

StartChar: asciicircum
Encoding: 94 94 65
Width: 537
GlyphClass: 2
Flags: MW
LayerCount: 2
Fore
SplineSet
54 349 m 1,0,-1
 0 376 l 1,1,-1
 175 725 l 1,2,-1
 228 725 l 1,3,-1
 403 376 l 1,4,-1
 349 349 l 1,5,-1
 336 349 l 1,6,-1
 201 618 l 1,7,-1
 67 349 l 1,8,-1
 54 349 l 1,0,-1
EndSplineSet
Validated: 1
EndChar

StartChar: underscore
Encoding: 95 95 66
Width: 537
GlyphClass: 2
Flags: MW
LayerCount: 2
Fore
SplineSet
-27 -107 m 1,0,-1
 -27 -27 l 1,1,-1
 483 -27 l 1,2,-1
 483 -107 l 1,3,-1
 -27 -107 l 1,0,-1
EndSplineSet
Validated: 1
EndChar

StartChar: grave
Encoding: 96 96 67
Width: 537
GlyphClass: 2
Flags: MW
LayerCount: 2
Fore
SplineSet
201 457 m 1,0,-1
 81 698 l 1,1,-1
 134 725 l 1,2,-1
 148 725 l 1,3,-1
 269 483 l 1,4,-1
 215 457 l 1,5,-1
 201 457 l 1,0,-1
EndSplineSet
Validated: 1
EndChar

StartChar: a
Encoding: 97 97 68
Width: 537
GlyphClass: 2
Flags: MW
LayerCount: 2
Fore
SplineSet
215 81 m 1,0,-1
 322 188 l 1,1,-1
 322 269 l 1,2,-1
 161 269 l 1,3,-1
 81 188 l 1,4,-1
 81 161 l 1,5,-1
 161 81 l 1,6,-1
 215 81 l 1,0,-1
134 0 m 1,7,-1
 0 134 l 1,8,-1
 0 215 l 1,9,-1
 134 349 l 1,10,-1
 322 349 l 1,11,-1
 322 403 l 1,12,-1
 242 483 l 1,13,-1
 161 483 l 1,14,-1
 54 376 l 1,15,-1
 0 430 l 1,16,-1
 134 564 l 1,17,-1
 269 564 l 1,18,-1
 403 430 l 1,19,-1
 403 0 l 1,20,-1
 322 0 l 1,21,-1
 322 81 l 1,22,-1
 242 0 l 1,23,-1
 134 0 l 1,7,-1
EndSplineSet
Validated: 1
EndChar

StartChar: b
Encoding: 98 98 69
Width: 537
GlyphClass: 2
Flags: MW
LayerCount: 2
Fore
SplineSet
242 81 m 1,0,-1
 322 161 l 1,1,-1
 322 403 l 1,2,-1
 242 483 l 1,3,-1
 188 483 l 1,4,-1
 81 376 l 1,5,-1
 81 161 l 1,6,-1
 161 81 l 1,7,-1
 242 81 l 1,0,-1
0 0 m 1,8,-1
 0 725 l 1,9,-1
 81 725 l 1,10,-1
 81 483 l 1,11,-1
 161 564 l 1,12,-1
 269 564 l 1,13,-1
 403 430 l 1,14,-1
 403 134 l 1,15,-1
 269 0 l 1,16,-1
 134 0 l 1,17,-1
 81 54 l 1,18,-1
 81 0 l 1,19,-1
 0 0 l 1,8,-1
EndSplineSet
Validated: 1
EndChar

StartChar: c
Encoding: 99 99 70
Width: 537
GlyphClass: 2
Flags: MW
LayerCount: 2
Fore
SplineSet
134 0 m 1,0,-1
 0 134 l 1,1,-1
 0 430 l 1,2,-1
 134 564 l 1,3,-1
 269 564 l 1,4,-1
 403 430 l 1,5,-1
 349 376 l 1,6,-1
 242 483 l 1,7,-1
 161 483 l 1,8,-1
 81 403 l 1,9,-1
 81 161 l 1,10,-1
 161 81 l 1,11,-1
 242 81 l 1,12,-1
 349 188 l 1,13,-1
 403 134 l 1,14,-1
 269 0 l 1,15,-1
 134 0 l 1,0,-1
EndSplineSet
Validated: 1
EndChar

StartChar: d
Encoding: 100 100 71
Width: 537
GlyphClass: 2
Flags: MW
LayerCount: 2
Fore
SplineSet
215 81 m 1,0,-1
 322 188 l 1,1,-1
 322 403 l 1,2,-1
 242 483 l 1,3,-1
 161 483 l 1,4,-1
 81 403 l 1,5,-1
 81 161 l 1,6,-1
 161 81 l 1,7,-1
 215 81 l 1,0,-1
134 0 m 1,8,-1
 0 134 l 1,9,-1
 0 430 l 1,10,-1
 134 564 l 1,11,-1
 269 564 l 1,12,-1
 322 510 l 1,13,-1
 322 725 l 1,14,-1
 403 725 l 1,15,-1
 403 0 l 1,16,-1
 322 0 l 1,17,-1
 322 81 l 1,18,-1
 242 0 l 1,19,-1
 134 0 l 1,8,-1
EndSplineSet
Validated: 1
EndChar

StartChar: e
Encoding: 101 101 72
Width: 537
GlyphClass: 2
Flags: MW
LayerCount: 2
Fore
SplineSet
322 322 m 1,0,-1
 322 403 l 1,1,-1
 242 483 l 1,2,-1
 161 483 l 1,3,-1
 81 403 l 1,4,-1
 81 322 l 1,5,-1
 322 322 l 1,0,-1
134 0 m 1,6,-1
 0 134 l 1,7,-1
 0 430 l 1,8,-1
 134 564 l 1,9,-1
 269 564 l 1,10,-1
 403 430 l 1,11,-1
 403 242 l 1,12,-1
 81 242 l 1,13,-1
 81 161 l 1,14,-1
 161 81 l 1,15,-1
 242 81 l 1,16,-1
 349 188 l 1,17,-1
 403 134 l 1,18,-1
 269 0 l 1,19,-1
 134 0 l 1,6,-1
EndSplineSet
Validated: 1
EndChar

StartChar: f
Encoding: 102 102 73
Width: 537
GlyphClass: 2
Flags: MW
LayerCount: 2
Fore
SplineSet
81 0 m 1,0,-1
 81 403 l 1,1,-1
 0 403 l 1,2,-1
 0 483 l 1,3,-1
 81 483 l 1,4,-1
 81 618 l 1,5,-1
 188 725 l 1,6,-1
 295 725 l 1,7,-1
 403 618 l 1,8,-1
 349 564 l 1,9,-1
 269 645 l 1,10,-1
 215 645 l 1,11,-1
 161 591 l 1,12,-1
 161 483 l 1,13,-1
 322 483 l 1,14,-1
 322 403 l 1,15,-1
 161 403 l 1,16,-1
 161 0 l 1,17,-1
 81 0 l 1,0,-1
EndSplineSet
Validated: 1
EndChar

StartChar: g
Encoding: 103 103 74
Width: 537
GlyphClass: 2
Flags: MW
LayerCount: 2
Fore
SplineSet
215 81 m 1,0,-1
 322 188 l 1,1,-1
 322 403 l 1,2,-1
 242 483 l 1,3,-1
 161 483 l 1,4,-1
 81 403 l 1,5,-1
 81 161 l 1,6,-1
 161 81 l 1,7,-1
 215 81 l 1,0,-1
107 -167 m 5,8,-1
 0 -54 l 1,9,-1
 54 0 l 1,10,-1
 134 -87 l 5,11,-1
 269 -87 l 5,12,-1
 322 -27 l 1,13,-1
 322 81 l 1,14,-1
 242 0 l 1,15,-1
 134 0 l 1,16,-1
 0 134 l 1,17,-1
 0 430 l 1,18,-1
 134 564 l 1,19,-1
 269 564 l 1,20,-1
 322 510 l 1,21,-1
 322 564 l 1,22,-1
 403 564 l 1,23,-1
 403 -54 l 1,24,-1
 295 -167 l 5,25,-1
 107 -167 l 5,8,-1
EndSplineSet
Validated: 1
EndChar

StartChar: h
Encoding: 104 104 75
Width: 537
GlyphClass: 2
Flags: MW
LayerCount: 2
Fore
SplineSet
0 0 m 1,0,-1
 0 725 l 1,1,-1
 81 725 l 1,2,-1
 81 483 l 1,3,-1
 161 564 l 1,4,-1
 269 564 l 1,5,-1
 403 430 l 1,6,-1
 403 0 l 1,7,-1
 322 0 l 1,8,-1
 322 403 l 1,9,-1
 242 483 l 1,10,-1
 188 483 l 1,11,-1
 81 376 l 1,12,-1
 81 0 l 1,13,-1
 0 0 l 1,0,-1
EndSplineSet
Validated: 1
EndChar

StartChar: i
Encoding: 105 105 76
Width: 537
GlyphClass: 2
Flags: MW
LayerCount: 2
Fore
SplineSet
81 0 m 1,0,-1
 81 81 l 1,1,-1
 161 81 l 1,2,-1
 161 483 l 1,3,-1
 54 483 l 1,4,-1
 54 564 l 1,5,-1
 242 564 l 1,6,-1
 242 81 l 1,7,-1
 322 81 l 1,8,-1
 322 0 l 1,9,-1
 81 0 l 1,0,-1
161 645 m 1,10,-1
 161 725 l 1,11,-1
 242 725 l 1,12,-1
 242 645 l 1,13,-1
 161 645 l 1,10,-1
EndSplineSet
Validated: 1
EndChar

StartChar: j
Encoding: 106 106 77
Width: 537
GlyphClass: 2
Flags: MW
LayerCount: 2
Fore
SplineSet
107 -161 m 1,0,-1
 0 -54 l 1,1,-1
 54 0 l 1,2,-1
 134 -81 l 1,3,-1
 188 -81 l 1,4,-1
 242 -27 l 1,5,-1
 242 483 l 1,6,-1
 161 483 l 1,7,-1
 161 564 l 1,8,-1
 322 564 l 1,9,-1
 322 -54 l 1,10,-1
 215 -161 l 1,11,-1
 107 -161 l 1,0,-1
242 645 m 1,12,-1
 242 725 l 1,13,-1
 322 725 l 1,14,-1
 322 645 l 1,15,-1
 242 645 l 1,12,-1
EndSplineSet
Validated: 1
EndChar

StartChar: k
Encoding: 107 107 78
Width: 537
GlyphClass: 2
Flags: MW
LayerCount: 2
Fore
SplineSet
0 0 m 1,0,-1
 0 725 l 1,1,-1
 81 725 l 1,2,-1
 81 326 l 5,3,-1
 215 326 l 5,4,-1
 336 564 l 1,5,-1
 349 564 l 1,6,-1
 403 537 l 1,7,-1
 275 286 l 5,8,-1
 403 27 l 1,9,-1
 349 0 l 1,10,-1
 336 0 l 1,11,-1
 215 246 l 5,12,-1
 81 246 l 5,13,-1
 81 0 l 1,14,-1
 0 0 l 1,0,-1
EndSplineSet
Validated: 1
EndChar

StartChar: l
Encoding: 108 108 79
Width: 537
GlyphClass: 2
Flags: MW
LayerCount: 2
Fore
SplineSet
81 0 m 1,0,-1
 81 81 l 1,1,-1
 161 81 l 1,2,-1
 161 645 l 1,3,-1
 54 645 l 1,4,-1
 54 725 l 1,5,-1
 161 725 l 1,6,-1
 242 645 l 1,7,-1
 242 81 l 1,8,-1
 322 81 l 1,9,-1
 322 0 l 1,10,-1
 81 0 l 1,0,-1
EndSplineSet
Validated: 1
EndChar

StartChar: m
Encoding: 109 109 80
Width: 537
GlyphClass: 2
Flags: MW
LayerCount: 2
Fore
SplineSet
0 0 m 1,0,-1
 0 564 l 1,1,-1
 81 564 l 1,2,-1
 81 510 l 1,3,-1
 134 564 l 1,4,-1
 161 564 l 1,5,-1
 223 510 l 1,6,-1
 277 564 l 1,7,-1
 303 564 l 1,8,-1
 411 457 l 1,9,-1
 411 0 l 1,10,-1
 330 0 l 1,11,-1
 330 430 l 1,12,-1
 277 483 l 1,13,-1
 240 483 l 1,14,-1
 240 0 l 1,15,-1
 183 0 l 1,16,-1
 183 457 l 1,17,-1
 148 483 l 1,18,-1
 81 483 l 1,19,-1
 81 0 l 1,20,-1
 0 0 l 1,0,-1
EndSplineSet
Validated: 1
EndChar

StartChar: n
Encoding: 110 110 81
Width: 537
GlyphClass: 2
Flags: MW
LayerCount: 2
Fore
SplineSet
0 0 m 1,0,-1
 0 564 l 1,1,-1
 81 564 l 1,2,-1
 81 483 l 1,3,-1
 161 564 l 1,4,-1
 269 564 l 1,5,-1
 403 430 l 1,6,-1
 403 0 l 1,7,-1
 322 0 l 1,8,-1
 322 403 l 1,9,-1
 242 483 l 1,10,-1
 188 483 l 1,11,-1
 81 376 l 1,12,-1
 81 0 l 1,13,-1
 0 0 l 1,0,-1
EndSplineSet
Validated: 1
EndChar

StartChar: o
Encoding: 111 111 82
Width: 537
GlyphClass: 2
Flags: MW
LayerCount: 2
Fore
SplineSet
242 81 m 1,0,-1
 322 161 l 1,1,-1
 322 403 l 1,2,-1
 242 483 l 1,3,-1
 161 483 l 1,4,-1
 81 403 l 1,5,-1
 81 161 l 1,6,-1
 161 81 l 1,7,-1
 242 81 l 1,0,-1
134 0 m 1,8,-1
 0 134 l 1,9,-1
 0 430 l 1,10,-1
 134 564 l 1,11,-1
 269 564 l 1,12,-1
 403 430 l 1,13,-1
 403 134 l 1,14,-1
 269 0 l 1,15,-1
 134 0 l 1,8,-1
EndSplineSet
Validated: 1
EndChar

StartChar: p
Encoding: 112 112 83
Width: 537
GlyphClass: 2
Flags: MW
LayerCount: 2
Fore
SplineSet
242 81 m 1,0,-1
 322 161 l 1,1,-1
 322 403 l 1,2,-1
 242 483 l 1,3,-1
 188 483 l 1,4,-1
 81 376 l 1,5,-1
 81 161 l 1,6,-1
 161 81 l 1,7,-1
 242 81 l 1,0,-1
0 -161 m 1,8,-1
 0 564 l 1,9,-1
 81 564 l 1,10,-1
 81 483 l 1,11,-1
 161 564 l 1,12,-1
 269 564 l 1,13,-1
 403 430 l 1,14,-1
 403 134 l 1,15,-1
 269 0 l 1,16,-1
 134 0 l 1,17,-1
 81 54 l 1,18,-1
 81 -161 l 1,19,-1
 0 -161 l 1,8,-1
EndSplineSet
Validated: 1
EndChar

StartChar: q
Encoding: 113 113 84
Width: 537
GlyphClass: 2
Flags: MW
LayerCount: 2
Fore
SplineSet
215 81 m 1,0,-1
 322 188 l 1,1,-1
 322 403 l 1,2,-1
 242 483 l 1,3,-1
 161 483 l 1,4,-1
 81 403 l 1,5,-1
 81 161 l 1,6,-1
 161 81 l 1,7,-1
 215 81 l 1,0,-1
322 -161 m 1,8,-1
 322 81 l 1,9,-1
 242 0 l 1,10,-1
 134 0 l 1,11,-1
 0 134 l 1,12,-1
 0 430 l 1,13,-1
 134 564 l 1,14,-1
 269 564 l 1,15,-1
 322 510 l 1,16,-1
 322 564 l 1,17,-1
 403 564 l 1,18,-1
 403 -161 l 1,19,-1
 322 -161 l 1,8,-1
EndSplineSet
Validated: 1
EndChar

StartChar: r
Encoding: 114 114 85
Width: 537
GlyphClass: 2
Flags: MW
LayerCount: 2
Fore
SplineSet
0 0 m 1,0,-1
 0 564 l 1,1,-1
 81 564 l 1,2,-1
 81 483 l 1,3,-1
 161 564 l 1,4,-1
 269 564 l 1,5,-1
 403 430 l 1,6,-1
 349 376 l 1,7,-1
 242 483 l 1,8,-1
 188 483 l 1,9,-1
 81 376 l 1,10,-1
 81 0 l 1,11,-1
 0 0 l 1,0,-1
EndSplineSet
Validated: 1
EndChar

StartChar: s
Encoding: 115 115 86
Width: 537
GlyphClass: 2
Flags: MW
LayerCount: 2
Fore
SplineSet
134 0 m 1,0,-1
 0 134 l 1,1,-1
 54 188 l 1,2,-1
 161 81 l 1,3,-1
 242 81 l 1,4,-1
 322 161 l 1,5,-1
 242 246 l 1,6,-1
 134 246 l 1,7,-1
 0 376 l 1,8,-1
 0 430 l 1,9,-1
 134 564 l 1,10,-1
 269 564 l 1,11,-1
 403 430 l 1,12,-1
 349 376 l 1,13,-1
 242 483 l 1,14,-1
 157 483 l 1,15,-1
 75 403 l 1,16,-1
 157 326 l 1,17,-1
 269 326 l 1,18,-1
 403 188 l 1,19,-1
 403 134 l 1,20,-1
 269 0 l 1,21,-1
 134 0 l 1,0,-1
EndSplineSet
Validated: 1
EndChar

StartChar: t
Encoding: 116 116 87
Width: 537
GlyphClass: 2
Flags: MW
LayerCount: 2
Fore
SplineSet
188 0 m 1,0,-1
 81 107 l 1,1,-1
 81 473 l 5,2,-1
 0 473 l 5,3,-1
 0 554 l 5,4,-1
 81 554 l 5,5,-1
 81 645 l 1,6,-1
 161 645 l 1,7,-1
 161 554 l 5,8,-1
 322 554 l 5,9,-1
 322 473 l 5,10,-1
 161 473 l 5,11,-1
 161 134 l 1,12,-1
 215 81 l 1,13,-1
 242 81 l 1,14,-1
 315 152 l 1,15,-1
 369 98 l 1,16,-1
 269 0 l 1,17,-1
 188 0 l 1,0,-1
EndSplineSet
Validated: 1
EndChar

StartChar: u
Encoding: 117 117 88
Width: 537
GlyphClass: 2
Flags: MW
LayerCount: 2
Fore
SplineSet
134 0 m 1,0,-1
 0 134 l 1,1,-1
 0 564 l 1,2,-1
 81 564 l 1,3,-1
 81 161 l 1,4,-1
 161 81 l 1,5,-1
 215 81 l 1,6,-1
 322 188 l 1,7,-1
 322 564 l 1,8,-1
 403 564 l 1,9,-1
 403 0 l 1,10,-1
 322 0 l 1,11,-1
 322 81 l 1,12,-1
 242 0 l 1,13,-1
 134 0 l 1,0,-1
EndSplineSet
Validated: 1
EndChar

StartChar: v
Encoding: 118 118 89
Width: 537
GlyphClass: 2
Flags: MW
LayerCount: 2
Fore
SplineSet
175 0 m 1,0,-1
 0 349 l 1,1,-1
 0 564 l 1,2,-1
 81 564 l 1,3,-1
 81 349 l 1,4,-1
 201 107 l 1,5,-1
 322 349 l 1,6,-1
 322 564 l 1,7,-1
 403 564 l 1,8,-1
 403 349 l 1,9,-1
 228 0 l 1,10,-1
 175 0 l 1,0,-1
EndSplineSet
Validated: 1
EndChar

StartChar: w
Encoding: 119 119 90
Width: 537
GlyphClass: 2
Flags: MW
LayerCount: 2
Fore
SplineSet
0 0 m 1,0,-1
 0 564 l 1,1,-1
 81 564 l 1,2,-1
 81 188 l 1,3,-1
 175 376 l 1,4,-1
 228 376 l 1,5,-1
 322 188 l 1,6,-1
 322 564 l 1,7,-1
 403 564 l 1,8,-1
 403 0 l 1,9,-1
 336 0 l 1,10,-1
 201 269 l 1,11,-1
 67 0 l 1,12,-1
 0 0 l 1,0,-1
EndSplineSet
Validated: 1
EndChar

StartChar: x
Encoding: 120 120 91
Width: 537
GlyphClass: 2
Flags: MW
LayerCount: 2
Fore
SplineSet
54 0 m 1,0,-1
 0 27 l 1,1,-1
 128 282 l 1,2,-1
 0 537 l 1,3,-1
 54 564 l 1,4,-1
 67 564 l 1,5,-1
 188 322 l 1,6,-1
 215 322 l 1,7,-1
 336 564 l 1,8,-1
 349 564 l 1,9,-1
 403 537 l 1,10,-1
 275 282 l 1,11,-1
 403 27 l 1,12,-1
 349 0 l 1,13,-1
 336 0 l 1,14,-1
 215 242 l 1,15,-1
 188 242 l 1,16,-1
 67 0 l 1,17,-1
 54 0 l 1,0,-1
EndSplineSet
Validated: 1
EndChar

StartChar: y
Encoding: 121 121 92
Width: 537
GlyphClass: 2
Flags: MW
LayerCount: 2
Fore
SplineSet
134 -161 m 1,0,-1
 81 -134 l 1,1,-1
 161 27 l 1,2,-1
 0 349 l 1,3,-1
 0 564 l 1,4,-1
 81 564 l 1,5,-1
 81 349 l 1,6,-1
 201 107 l 1,7,-1
 322 349 l 1,8,-1
 322 564 l 1,9,-1
 403 564 l 1,10,-1
 403 349 l 1,11,-1
 148 -161 l 1,12,-1
 134 -161 l 1,0,-1
EndSplineSet
Validated: 1
EndChar

StartChar: z
Encoding: 122 122 93
Width: 537
GlyphClass: 2
Flags: MW
LayerCount: 2
Fore
SplineSet
0 0 m 1,0,-1
 0 134 l 1,1,-1
 322 457 l 1,2,-1
 322 483 l 1,3,-1
 0 483 l 1,4,-1
 0 564 l 1,5,-1
 403 564 l 1,6,-1
 403 430 l 1,7,-1
 81 107 l 1,8,-1
 81 81 l 1,9,-1
 403 81 l 1,10,-1
 403 0 l 1,11,-1
 0 0 l 1,0,-1
EndSplineSet
Validated: 1
EndChar

StartChar: braceleft
Encoding: 123 123 94
Width: 537
GlyphClass: 2
Flags: MW
LayerCount: 2
Fore
SplineSet
161 0 m 1,0,-1
 161 269 l 1,1,-1
 134 295 l 1,2,-1
 27 295 l 1,3,-1
 27 430 l 1,4,-1
 134 430 l 1,5,-1
 161 457 l 1,6,-1
 161 671 l 1,7,-1
 322 833 l 1,8,-1
 376 779 l 1,9,-1
 242 645 l 1,10,-1
 242 430 l 1,11,-1
 188 430 l 1,12,-1
 161 403 l 1,13,-1
 161 322 l 1,14,-1
 188 295 l 1,15,-1
 242 295 l 1,16,-1
 242 27 l 1,17,-1
 376 -107 l 1,18,-1
 322 -161 l 1,19,-1
 161 0 l 1,0,-1
EndSplineSet
Validated: 1
EndChar

StartChar: bar
Encoding: 124 124 95
Width: 537
GlyphClass: 2
Flags: MW
LayerCount: 2
Fore
SplineSet
161 -161 m 1,0,-1
 161 833 l 1,1,-1
 242 833 l 1,2,-1
 242 -161 l 1,3,-1
 161 -161 l 1,0,-1
EndSplineSet
Validated: 1
EndChar

StartChar: braceright
Encoding: 125 125 96
Width: 537
GlyphClass: 2
Flags: MW
LayerCount: 2
Fore
SplineSet
27 -107 m 1,0,-1
 161 27 l 1,1,-1
 161 295 l 1,2,-1
 215 295 l 1,3,-1
 242 322 l 1,4,-1
 242 403 l 1,5,-1
 215 430 l 1,6,-1
 161 430 l 1,7,-1
 161 645 l 1,8,-1
 27 779 l 1,9,-1
 81 833 l 1,10,-1
 242 671 l 1,11,-1
 242 457 l 1,12,-1
 269 430 l 1,13,-1
 376 430 l 1,14,-1
 376 295 l 1,15,-1
 269 295 l 1,16,-1
 242 269 l 1,17,-1
 242 0 l 1,18,-1
 81 -161 l 1,19,-1
 27 -107 l 1,0,-1
EndSplineSet
Validated: 1
EndChar

StartChar: asciitilde
Encoding: 126 126 97
Width: 537
GlyphClass: 2
Flags: MW
LayerCount: 2
Fore
SplineSet
134 403 m 1,0,-1
 54 322 l 1,1,-1
 54 269 l 1,2,-1
 0 269 l 1,3,-1
 0 376 l 1,4,-1
 134 510 l 1,5,-1
 295 349 l 1,6,-1
 376 430 l 1,7,-1
 376 483 l 1,8,-1
 430 483 l 1,9,-1
 430 376 l 1,10,-1
 295 242 l 1,11,-1
 134 403 l 1,0,-1
EndSplineSet
Validated: 1
EndChar

StartChar: exclamdown
Encoding: 161 161 98
Width: 537
GlyphClass: 2
Flags: MW
LayerCount: 2
Fore
SplineSet
134 -161 m 1,0,-1
 134 81 l 1,1,-1
 175 322 l 1,2,-1
 228 322 l 1,3,-1
 269 81 l 1,4,-1
 269 -161 l 1,5,-1
 134 -161 l 1,0,-1
134 430 m 1,6,-1
 134 564 l 1,7,-1
 269 564 l 1,8,-1
 269 430 l 1,9,-1
 134 430 l 1,6,-1
EndSplineSet
Validated: 1
EndChar

StartChar: cent
Encoding: 162 162 99
Width: 537
GlyphClass: 2
Flags: MW
LayerCount: 2
Fore
SplineSet
259 465 m 1,0,-1
 242 483 l 1,1,-1
 161 483 l 1,2,-1
 81 403 l 1,3,-1
 81 161 l 1,4,-1
 97 143 l 1,5,-1
 259 465 l 1,0,-1
54 -81 m 1,6,-1
 0 -54 l 1,7,-1
 62 71 l 1,8,-1
 0 134 l 1,9,-1
 0 430 l 1,10,-1
 134 564 l 1,11,-1
 269 564 l 1,12,-1
 295 537 l 1,13,-1
 336 618 l 1,14,-1
 349 618 l 1,15,-1
 403 591 l 1,16,-1
 349 483 l 1,17,-1
 403 430 l 1,18,-1
 349 376 l 1,19,-1
 312 411 l 1,20,-1
 151 89 l 1,21,-1
 161 81 l 1,22,-1
 242 81 l 1,23,-1
 349 188 l 1,24,-1
 403 134 l 1,25,-1
 269 0 l 1,26,-1
 134 0 l 1,27,-1
 116 17 l 1,28,-1
 67 -81 l 1,29,-1
 54 -81 l 1,6,-1
EndSplineSet
Validated: 1
EndChar

StartChar: sterling
Encoding: 163 163 100
Width: 537
GlyphClass: 2
Flags: MW
LayerCount: 2
Fore
SplineSet
-27 54 m 1,0,-1
 54 134 l 1,1,-1
 54 322 l 1,2,-1
 0 322 l 1,3,-1
 0 403 l 1,4,-1
 54 403 l 1,5,-1
 54 618 l 1,6,-1
 161 725 l 1,7,-1
 295 725 l 1,8,-1
 403 618 l 1,9,-1
 349 564 l 1,10,-1
 269 645 l 1,11,-1
 188 645 l 1,12,-1
 134 591 l 1,13,-1
 134 403 l 1,14,-1
 295 403 l 1,15,-1
 295 322 l 1,16,-1
 134 322 l 1,17,-1
 134 161 l 1,18,-1
 161 161 l 1,19,-1
 242 81 l 1,20,-1
 269 81 l 1,21,-1
 349 161 l 1,22,-1
 403 107 l 1,23,-1
 295 0 l 1,24,-1
 215 0 l 1,25,-1
 134 81 l 1,26,-1
 107 81 l 1,27,-1
 27 0 l 1,28,-1
 -27 54 l 1,0,-1
EndSplineSet
Validated: 1
EndChar

StartChar: currency
Encoding: 164 164 101
Width: 537
GlyphClass: 2
Flags: MW
LayerCount: 2
Fore
SplineSet
242 161 m 1,0,-1
 322 242 l 1,1,-1
 322 322 l 1,2,-1
 242 403 l 1,3,-1
 161 403 l 1,4,-1
 81 322 l 1,5,-1
 81 242 l 1,6,-1
 161 161 l 1,7,-1
 242 161 l 1,0,-1
40 175 m 1,8,-1
 0 215 l 1,9,-1
 0 349 l 1,10,-1
 40 389 l 1,11,-1
 -27 457 l 1,12,-1
 27 510 l 1,13,-1
 94 443 l 1,14,-1
 134 483 l 1,15,-1
 269 483 l 1,16,-1
 309 443 l 1,17,-1
 376 510 l 1,18,-1
 430 457 l 1,19,-1
 363 389 l 1,20,-1
 403 349 l 1,21,-1
 403 215 l 1,22,-1
 363 175 l 1,23,-1
 430 107 l 1,24,-1
 376 54 l 1,25,-1
 309 121 l 1,26,-1
 269 81 l 1,27,-1
 134 81 l 1,28,-1
 94 121 l 1,29,-1
 27 54 l 1,30,-1
 -27 107 l 1,31,-1
 40 175 l 1,8,-1
EndSplineSet
Validated: 1
EndChar

StartChar: yen
Encoding: 165 165 102
Width: 537
GlyphClass: 2
Flags: MW
LayerCount: 2
Fore
SplineSet
161 0 m 1,0,-1
 161 107 l 1,1,-1
 27 107 l 1,2,-1
 27 188 l 1,3,-1
 161 188 l 1,4,-1
 161 269 l 1,5,-1
 27 269 l 1,6,-1
 27 349 l 1,7,-1
 161 349 l 1,8,-1
 161 376 l 1,9,-1
 0 698 l 1,10,-1
 54 725 l 1,11,-1
 67 725 l 1,12,-1
 201 457 l 1,13,-1
 336 725 l 1,14,-1
 349 725 l 1,15,-1
 403 698 l 1,16,-1
 242 376 l 1,17,-1
 242 349 l 1,18,-1
 376 349 l 1,19,-1
 376 269 l 1,20,-1
 242 269 l 1,21,-1
 242 188 l 1,22,-1
 376 188 l 1,23,-1
 376 107 l 1,24,-1
 242 107 l 1,25,-1
 242 0 l 1,26,-1
 161 0 l 1,0,-1
EndSplineSet
Validated: 1
EndChar

StartChar: brokenbar
Encoding: 166 166 103
Width: 537
GlyphClass: 2
Flags: MW
LayerCount: 2
Fore
SplineSet
161 -161 m 1,0,-1
 161 269 l 1,1,-1
 242 269 l 1,2,-1
 242 -161 l 1,3,-1
 161 -161 l 1,0,-1
161 403 m 1,4,-1
 161 833 l 1,5,-1
 242 833 l 1,6,-1
 242 403 l 1,7,-1
 161 403 l 1,4,-1
EndSplineSet
Validated: 1
EndChar

StartChar: section
Encoding: 167 167 104
Width: 537
GlyphClass: 2
Flags: MW
LayerCount: 2
Fore
SplineSet
242 188 m 1,0,-1
 322 269 l 1,1,-1
 322 295 l 1,2,-1
 242 376 l 1,3,-1
 161 376 l 1,4,-1
 81 295 l 1,5,-1
 81 269 l 1,6,-1
 161 188 l 1,7,-1
 242 188 l 1,0,-1
134 -161 m 1,8,-1
 0 -27 l 1,9,-1
 54 27 l 1,10,-1
 161 -81 l 1,11,-1
 242 -81 l 1,12,-1
 322 0 l 1,13,-1
 322 27 l 1,14,-1
 242 107 l 1,15,-1
 134 107 l 1,16,-1
 0 242 l 1,17,-1
 0 322 l 1,18,-1
 81 403 l 1,19,-1
 81 403 l 1,20,-1
 94 416 l 1,21,-1
 0 510 l 1,22,-1
 0 591 l 1,23,-1
 134 725 l 1,24,-1
 269 725 l 1,25,-1
 403 591 l 1,26,-1
 349 537 l 1,27,-1
 242 645 l 1,28,-1
 161 645 l 1,29,-1
 81 564 l 1,30,-1
 81 537 l 1,31,-1
 161 457 l 1,32,-1
 269 457 l 1,33,-1
 403 322 l 1,34,-1
 403 242 l 1,35,-1
 322 161 l 1,36,-1
 321 161 l 1,37,-1
 309 148 l 1,38,-1
 403 54 l 1,39,-1
 403 -27 l 1,40,-1
 269 -161 l 1,41,-1
 134 -161 l 1,8,-1
EndSplineSet
Validated: 1
EndChar

StartChar: dieresis
Encoding: 168 168 105
Width: 537
GlyphClass: 2
Flags: MW
LayerCount: 2
Fore
SplineSet
54 645 m 1,0,-1
 54 725 l 1,1,-1
 134 725 l 1,2,-1
 134 645 l 1,3,-1
 54 645 l 1,0,-1
269 645 m 1,4,-1
 269 725 l 1,5,-1
 349 725 l 1,6,-1
 349 645 l 1,7,-1
 269 645 l 1,4,-1
EndSplineSet
Validated: 1
EndChar

StartChar: copyright
Encoding: 169 169 106
Width: 537
GlyphClass: 2
Flags: MW
LayerCount: 2
Fore
SplineSet
201 255 m 1,0,-1
 269 322 l 1,1,-1
 322 269 l 1,2,-1
 215 161 l 1,3,-1
 188 161 l 1,4,-1
 81 269 l 1,5,-1
 81 457 l 1,6,-1
 188 564 l 1,7,-1
 215 564 l 1,8,-1
 322 457 l 1,9,-1
 269 403 l 1,10,-1
 201 470 l 1,11,-1
 161 430 l 1,12,-1
 161 295 l 1,13,-1
 201 255 l 1,0,-1
269 54 m 1,14,-1
 376 161 l 1,15,-1
 376 564 l 1,16,-1
 269 671 l 1,17,-1
 134 671 l 1,18,-1
 27 564 l 1,19,-1
 27 161 l 1,20,-1
 134 54 l 1,21,-1
 269 54 l 1,14,-1
107 0 m 1,22,-1
 -27 134 l 1,23,-1
 -27 591 l 1,24,-1
 107 725 l 1,25,-1
 295 725 l 1,26,-1
 430 591 l 1,27,-1
 430 134 l 1,28,-1
 295 0 l 1,29,-1
 107 0 l 1,22,-1
EndSplineSet
Validated: 1
EndChar

StartChar: ordfeminine
Encoding: 170 170 107
Width: 537
GlyphClass: 2
Flags: MW
LayerCount: 2
Fore
SplineSet
215 322 m 1,0,-1
 322 430 l 1,1,-1
 322 457 l 1,2,-1
 161 457 l 1,3,-1
 107 403 l 1,4,-1
 106 403 l 1,5,-1
 94 389 l 1,6,-1
 161 322 l 1,7,-1
 215 322 l 1,0,-1
134 242 m 1,8,-1
 0 376 l 1,9,-1
 0 403 l 1,10,-1
 134 537 l 1,11,-1
 322 537 l 1,12,-1
 322 564 l 1,13,-1
 242 645 l 1,14,-1
 161 645 l 1,15,-1
 54 537 l 1,16,-1
 0 591 l 1,17,-1
 134 725 l 1,18,-1
 269 725 l 1,19,-1
 403 591 l 1,20,-1
 403 242 l 1,21,-1
 322 242 l 1,22,-1
 322 322 l 1,23,-1
 242 242 l 1,24,-1
 134 242 l 1,8,-1
EndSplineSet
Validated: 1
EndChar

StartChar: guillemotleft
Encoding: 171 171 108
Width: 537
GlyphClass: 2
Flags: MW
LayerCount: 2
Fore
SplineSet
94 309 m 1,0,-1
 215 188 l 1,1,-1
 161 134 l 1,2,-1
 -13 309 l 1,3,-1
 161 483 l 1,4,-1
 215 430 l 1,5,-1
 94 309 l 1,0,-1
282 309 m 1,6,-1
 403 188 l 1,7,-1
 349 134 l 1,8,-1
 175 309 l 1,9,-1
 349 483 l 1,10,-1
 403 430 l 1,11,-1
 282 309 l 1,6,-1
EndSplineSet
Validated: 1
EndChar

StartChar: logicalnot
Encoding: 172 172 109
Width: 537
GlyphClass: 2
Flags: MW
LayerCount: 2
Fore
SplineSet
322 161 m 1,0,-1
 322 322 l 1,1,-1
 0 322 l 1,2,-1
 0 403 l 1,3,-1
 403 403 l 1,4,-1
 403 161 l 1,5,-1
 322 161 l 1,0,-1
EndSplineSet
Validated: 1
EndChar

StartChar: uni00AD
Encoding: 173 173 110
Width: 537
GlyphClass: 2
Flags: MW
LayerCount: 2
Fore
SplineSet
107 322 m 1,0,-1
 107 403 l 1,1,-1
 295 403 l 1,2,-1
 295 322 l 1,3,-1
 107 322 l 1,0,-1
EndSplineSet
Validated: 1
EndChar

StartChar: registered
Encoding: 174 174 111
Width: 537
GlyphClass: 2
Flags: MW
LayerCount: 2
Fore
SplineSet
188 403 m 1,0,-1
 215 430 l 1,1,-1
 215 430 l 1,2,-1
 228 443 l 1,3,-1
 188 483 l 1,4,-1
 161 483 l 1,5,-1
 161 403 l 1,6,-1
 188 403 l 1,0,-1
81 161 m 1,7,-1
 81 564 l 1,8,-1
 215 564 l 1,9,-1
 322 457 l 1,10,-1
 322 430 l 1,11,-1
 242 349 l 1,12,-1
 322 188 l 1,13,-1
 269 161 l 1,14,-1
 255 161 l 1,15,-1
 175 322 l 1,16,-1
 161 322 l 1,17,-1
 161 161 l 1,18,-1
 81 161 l 1,7,-1
269 54 m 1,19,-1
 376 161 l 1,20,-1
 376 564 l 1,21,-1
 269 671 l 1,22,-1
 134 671 l 1,23,-1
 27 564 l 1,24,-1
 27 161 l 1,25,-1
 134 54 l 1,26,-1
 269 54 l 1,19,-1
107 0 m 1,27,-1
 -27 134 l 1,28,-1
 -27 591 l 1,29,-1
 107 725 l 1,30,-1
 295 725 l 1,31,-1
 430 591 l 1,32,-1
 430 134 l 1,33,-1
 295 0 l 1,34,-1
 107 0 l 1,27,-1
EndSplineSet
Validated: 1
EndChar

StartChar: macron
Encoding: 175 175 112
Width: 537
GlyphClass: 2
Flags: MW
LayerCount: 2
Fore
SplineSet
54 645 m 1,0,-1
 54 725 l 1,1,-1
 349 725 l 1,2,-1
 349 645 l 1,3,-1
 54 645 l 1,0,-1
EndSplineSet
Validated: 1
EndChar

StartChar: degree
Encoding: 176 176 113
Width: 537
GlyphClass: 2
Flags: MW
LayerCount: 2
Fore
SplineSet
242 483 m 1,0,-1
 295 537 l 1,1,-1
 295 618 l 1,2,-1
 242 671 l 1,3,-1
 161 671 l 1,4,-1
 107 618 l 1,5,-1
 107 537 l 1,6,-1
 161 483 l 1,7,-1
 242 483 l 1,0,-1
134 430 m 1,8,-1
 54 510 l 1,9,-1
 54 645 l 1,10,-1
 134 725 l 1,11,-1
 269 725 l 1,12,-1
 349 645 l 1,13,-1
 349 510 l 1,14,-1
 269 430 l 1,15,-1
 134 430 l 1,8,-1
EndSplineSet
Validated: 1
EndChar

StartChar: plusminus
Encoding: 177 177 114
Width: 537
GlyphClass: 2
Flags: MW
LayerCount: 2
Fore
SplineSet
0 81 m 1,0,-1
 0 161 l 1,1,-1
 403 161 l 1,2,-1
 403 81 l 1,3,-1
 0 81 l 1,0,-1
161 242 m 1,4,-1
 161 403 l 1,5,-1
 0 403 l 1,6,-1
 0 483 l 1,7,-1
 161 483 l 1,8,-1
 161 645 l 1,9,-1
 242 645 l 1,10,-1
 242 483 l 1,11,-1
 403 483 l 1,12,-1
 403 403 l 1,13,-1
 242 403 l 1,14,-1
 242 242 l 1,15,-1
 161 242 l 1,4,-1
EndSplineSet
Validated: 1
EndChar

StartChar: uni00B2
Encoding: 178 178 115
Width: 537
GlyphClass: 2
Flags: MW
LayerCount: 2
Fore
SplineSet
0 242 m 1,0,-1
 0 295 l 1,1,-1
 322 618 l 1,2,-1
 322 645 l 1,3,-1
 242 725 l 1,4,-1
 161 725 l 1,5,-1
 54 618 l 1,6,-1
 0 671 l 1,7,-1
 134 806 l 1,8,-1
 269 806 l 1,9,-1
 403 671 l 1,10,-1
 403 591 l 1,11,-1
 134 322 l 1,12,-1
 403 322 l 1,13,-1
 403 242 l 1,14,-1
 0 242 l 1,0,-1
EndSplineSet
Validated: 1
EndChar

StartChar: uni00B3
Encoding: 179 179 116
Width: 537
GlyphClass: 2
Flags: MW
LayerCount: 2
Fore
SplineSet
134 242 m 1,0,-1
 0 376 l 1,1,-1
 54 430 l 1,2,-1
 161 322 l 1,3,-1
 242 322 l 1,4,-1
 322 403 l 1,5,-1
 242 483 l 1,6,-1
 134 483 l 1,7,-1
 134 564 l 1,8,-1
 242 564 l 1,9,-1
 322 645 l 1,10,-1
 242 725 l 1,11,-1
 161 725 l 1,12,-1
 54 618 l 1,13,-1
 0 671 l 1,14,-1
 134 806 l 1,15,-1
 269 806 l 1,16,-1
 403 671 l 1,17,-1
 403 618 l 1,18,-1
 322 537 l 1,19,-1
 321 537 l 1,20,-1
 309 524 l 1,21,-1
 403 430 l 1,22,-1
 403 376 l 1,23,-1
 269 242 l 1,24,-1
 134 242 l 1,0,-1
EndSplineSet
Validated: 1
EndChar

StartChar: acute
Encoding: 180 180 117
Width: 537
GlyphClass: 2
Flags: MW
LayerCount: 2
Fore
SplineSet
134 349 m 1,0,-1
 81 376 l 1,1,-1
 255 725 l 1,2,-1
 269 725 l 1,3,-1
 322 698 l 1,4,-1
 148 349 l 1,5,-1
 134 349 l 1,0,-1
EndSplineSet
Validated: 1
EndChar

StartChar: mu
Encoding: 181 181 118
Width: 537
GlyphClass: 2
Flags: MW
LayerCount: 2
Fore
SplineSet
0 -161 m 1,0,-1
 0 564 l 1,1,-1
 81 564 l 1,2,-1
 81 161 l 1,3,-1
 161 81 l 1,4,-1
 215 81 l 1,5,-1
 322 188 l 1,6,-1
 322 564 l 1,7,-1
 403 564 l 1,8,-1
 403 0 l 1,9,-1
 322 0 l 1,10,-1
 322 81 l 1,11,-1
 242 0 l 1,12,-1
 134 0 l 1,13,-1
 81 54 l 1,14,-1
 81 -161 l 1,15,-1
 0 -161 l 1,0,-1
EndSplineSet
Validated: 1
EndChar

StartChar: paragraph
Encoding: 182 182 119
Width: 537
GlyphClass: 2
Flags: MW
LayerCount: 2
Fore
SplineSet
188 -161 m 1,0,-1
 188 322 l 1,1,-1
 134 322 l 1,2,-1
 0 457 l 1,3,-1
 0 591 l 1,4,-1
 134 725 l 1,5,-1
 403 725 l 1,6,-1
 403 -161 l 1,7,-1
 322 -161 l 1,8,-1
 322 645 l 1,9,-1
 269 645 l 1,10,-1
 269 -161 l 1,11,-1
 188 -161 l 1,0,-1
EndSplineSet
Validated: 1
EndChar

StartChar: periodcentered
Encoding: 183 183 120
Width: 537
GlyphClass: 2
Flags: MW
LayerCount: 2
Fore
SplineSet
134 295 m 1,0,-1
 134 430 l 1,1,-1
 269 430 l 1,2,-1
 269 295 l 1,3,-1
 134 295 l 1,0,-1
EndSplineSet
Validated: 1
EndChar

StartChar: cedilla
Encoding: 184 184 121
Width: 537
GlyphClass: 2
Flags: MW
LayerCount: 2
Fore
SplineSet
107 -107 m 1,0,-1
 161 -54 l 1,1,-1
 161 81 l 1,2,-1
 242 81 l 1,3,-1
 242 -81 l 1,4,-1
 161 -161 l 1,5,-1
 107 -107 l 1,0,-1
EndSplineSet
Validated: 1
EndChar

StartChar: uni00B9
Encoding: 185 185 122
Width: 537
GlyphClass: 2
Flags: MW
LayerCount: 2
Fore
SplineSet
27 242 m 1,0,-1
 27 322 l 1,1,-1
 161 322 l 1,2,-1
 161 671 l 1,3,-1
 54 564 l 1,4,-1
 0 618 l 1,5,-1
 188 806 l 1,6,-1
 242 806 l 1,7,-1
 242 322 l 1,8,-1
 376 322 l 1,9,-1
 376 242 l 1,10,-1
 27 242 l 1,0,-1
EndSplineSet
Validated: 1
EndChar

StartChar: ordmasculine
Encoding: 186 186 123
Width: 537
GlyphClass: 2
Flags: MW
LayerCount: 2
Fore
SplineSet
242 322 m 1,0,-1
 322 403 l 1,1,-1
 322 564 l 1,2,-1
 242 645 l 1,3,-1
 161 645 l 1,4,-1
 81 564 l 1,5,-1
 81 403 l 1,6,-1
 161 322 l 1,7,-1
 242 322 l 1,0,-1
134 242 m 1,8,-1
 0 376 l 1,9,-1
 0 591 l 1,10,-1
 134 725 l 1,11,-1
 269 725 l 1,12,-1
 403 591 l 1,13,-1
 403 376 l 1,14,-1
 269 242 l 1,15,-1
 134 242 l 1,8,-1
EndSplineSet
Validated: 1
EndChar

StartChar: guillemotright
Encoding: 187 187 124
Width: 537
GlyphClass: 2
Flags: MW
LayerCount: 2
Fore
SplineSet
121 309 m 1,0,-1
 0 430 l 1,1,-1
 54 483 l 1,2,-1
 228 309 l 1,3,-1
 54 134 l 1,4,-1
 0 188 l 1,5,-1
 121 309 l 1,0,-1
309 309 m 1,6,-1
 188 430 l 1,7,-1
 242 483 l 1,8,-1
 416 309 l 1,9,-1
 242 134 l 1,10,-1
 188 188 l 1,11,-1
 309 309 l 1,6,-1
EndSplineSet
Validated: 1
EndChar

StartChar: onequarter
Encoding: 188 188 125
Width: 537
GlyphClass: 2
Flags: MW
LayerCount: 2
Fore
SplineSet
295 134 m 1,0,-1
 295 215 l 1,1,-1
 255 134 l 1,2,-1
 295 134 l 1,0,-1
295 -27 m 1,3,-1
 295 54 l 1,4,-1
 161 54 l 1,5,-1
 161 107 l 1,6,-1
 269 322 l 1,7,-1
 376 322 l 1,8,-1
 376 134 l 1,9,-1
 430 134 l 1,10,-1
 430 54 l 1,11,-1
 376 54 l 1,12,-1
 376 -27 l 1,13,-1
 295 -27 l 1,3,-1
0 215 m 1,14,-1
 349 564 l 1,15,-1
 403 510 l 1,16,-1
 54 161 l 1,17,-1
 0 215 l 1,14,-1
81 403 m 1,18,-1
 81 618 l 1,19,-1
 27 564 l 1,20,-1
 -27 618 l 1,21,-1
 107 752 l 1,22,-1
 161 752 l 1,23,-1
 161 403 l 1,24,-1
 81 403 l 1,18,-1
EndSplineSet
Validated: 1
EndChar

StartChar: onehalf
Encoding: 189 189 126
Width: 537
GlyphClass: 2
Flags: MW
LayerCount: 2
Fore
SplineSet
188 -27 m 1,0,-1
 188 27 l 1,1,-1
 349 188 l 1,2,-1
 349 215 l 1,3,-1
 322 242 l 1,4,-1
 295 242 l 1,5,-1
 242 188 l 1,6,-1
 188 242 l 1,7,-1
 269 322 l 1,8,-1
 349 322 l 1,9,-1
 430 242 l 1,10,-1
 430 161 l 1,11,-1
 322 54 l 1,12,-1
 430 54 l 1,13,-1
 430 -27 l 1,14,-1
 188 -27 l 1,0,-1
0 215 m 1,15,-1
 349 564 l 1,16,-1
 403 510 l 1,17,-1
 54 161 l 1,18,-1
 0 215 l 1,15,-1
81 403 m 1,19,-1
 81 618 l 1,20,-1
 27 564 l 1,21,-1
 -27 618 l 1,22,-1
 107 752 l 1,23,-1
 161 752 l 1,24,-1
 161 403 l 1,25,-1
 81 403 l 1,19,-1
EndSplineSet
Validated: 1
EndChar

StartChar: threequarters
Encoding: 190 190 127
Width: 537
GlyphClass: 2
Flags: MW
LayerCount: 2
Fore
SplineSet
295 134 m 1,0,-1
 295 215 l 1,1,-1
 255 134 l 1,2,-1
 295 134 l 1,0,-1
295 -27 m 1,3,-1
 295 54 l 1,4,-1
 161 54 l 1,5,-1
 161 107 l 1,6,-1
 269 322 l 1,7,-1
 376 322 l 1,8,-1
 376 134 l 1,9,-1
 430 134 l 1,10,-1
 430 54 l 1,11,-1
 376 54 l 1,12,-1
 376 -27 l 1,13,-1
 295 -27 l 1,3,-1
0 215 m 1,14,-1
 349 564 l 1,15,-1
 403 510 l 1,16,-1
 54 161 l 1,17,-1
 0 215 l 1,14,-1
54 403 m 1,18,-1
 -27 483 l 1,19,-1
 27 537 l 1,20,-1
 81 483 l 1,21,-1
 107 483 l 1,22,-1
 134 510 l 1,23,-1
 81 564 l 1,24,-1
 81 591 l 1,25,-1
 134 645 l 1,26,-1
 107 671 l 1,27,-1
 81 671 l 1,28,-1
 27 618 l 1,29,-1
 -27 671 l 1,30,-1
 54 752 l 1,31,-1
 134 752 l 1,32,-1
 215 671 l 1,33,-1
 215 618 l 1,34,-1
 188 591 l 1,35,-1
 186 591 l 1,36,-1
 175 577 l 1,37,-1
 215 537 l 1,38,-1
 215 483 l 1,39,-1
 134 403 l 1,40,-1
 54 403 l 1,18,-1
EndSplineSet
Validated: 1
EndChar

StartChar: questiondown
Encoding: 191 191 128
Width: 537
GlyphClass: 2
Flags: MW
LayerCount: 2
Fore
SplineSet
134 -161 m 1,0,-1
 0 -27 l 1,1,-1
 0 107 l 1,2,-1
 161 269 l 1,3,-1
 161 349 l 1,4,-1
 242 349 l 1,5,-1
 242 242 l 1,6,-1
 81 81 l 1,7,-1
 81 0 l 1,8,-1
 161 -81 l 1,9,-1
 242 -81 l 1,10,-1
 349 27 l 1,11,-1
 403 -27 l 1,12,-1
 269 -161 l 1,13,-1
 134 -161 l 1,0,-1
134 430 m 1,14,-1
 134 564 l 1,15,-1
 269 564 l 1,16,-1
 269 430 l 1,17,-1
 134 430 l 1,14,-1
EndSplineSet
Validated: 1
EndChar

StartChar: Agrave
Encoding: 192 192 129
Width: 537
GlyphClass: 2
Flags: MW
LayerCount: 2
Fore
SplineSet
322 322 m 1,0,-1
 322 376 l 1,1,-1
 201 618 l 1,2,-1
 81 376 l 1,3,-1
 81 322 l 1,4,-1
 322 322 l 1,0,-1
0 0 m 1,5,-1
 0 376 l 1,6,-1
 175 725 l 1,7,-1
 228 725 l 1,8,-1
 403 376 l 1,9,-1
 403 0 l 1,10,-1
 322 0 l 1,11,-1
 322 242 l 1,12,-1
 81 242 l 1,13,-1
 81 0 l 1,14,-1
 0 0 l 1,5,-1
107 886 m 1,15,-1
 161 940 l 1,16,-1
 269 833 l 1,17,-1
 215 779 l 1,18,-1
 107 886 l 1,15,-1
EndSplineSet
Validated: 1
EndChar

StartChar: Aacute
Encoding: 193 193 130
Width: 537
GlyphClass: 2
Flags: MW
LayerCount: 2
Fore
SplineSet
322 322 m 1,0,-1
 322 376 l 1,1,-1
 201 618 l 1,2,-1
 81 376 l 1,3,-1
 81 322 l 1,4,-1
 322 322 l 1,0,-1
0 0 m 1,5,-1
 0 376 l 1,6,-1
 175 725 l 1,7,-1
 228 725 l 1,8,-1
 403 376 l 1,9,-1
 403 0 l 1,10,-1
 322 0 l 1,11,-1
 322 242 l 1,12,-1
 81 242 l 1,13,-1
 81 0 l 1,14,-1
 0 0 l 1,5,-1
188 779 m 1,15,-1
 134 833 l 1,16,-1
 242 940 l 1,17,-1
 295 886 l 1,18,-1
 188 779 l 1,19,-1
 188 779 l 1,15,-1
EndSplineSet
Validated: 5
EndChar

StartChar: Acircumflex
Encoding: 194 194 131
Width: 537
GlyphClass: 2
Flags: MW
LayerCount: 2
Fore
SplineSet
322 322 m 1,0,-1
 322 376 l 1,1,-1
 201 618 l 1,2,-1
 81 376 l 1,3,-1
 81 322 l 1,4,-1
 322 322 l 1,0,-1
0 0 m 1,5,-1
 0 376 l 1,6,-1
 175 725 l 1,7,-1
 228 725 l 1,8,-1
 403 376 l 1,9,-1
 403 0 l 1,10,-1
 322 0 l 1,11,-1
 322 242 l 1,12,-1
 81 242 l 1,13,-1
 81 0 l 1,14,-1
 0 0 l 1,5,-1
134 779 m 1,15,-1
 81 833 l 1,16,-1
 188 940 l 1,17,-1
 215 940 l 1,18,-1
 322 833 l 1,19,-1
 269 779 l 1,20,-1
 215 833 l 1,21,-1
 215 833 l 1,22,-1
 201 846 l 1,23,-1
 134 779 l 1,24,-1
 134 779 l 1,15,-1
EndSplineSet
Validated: 5
EndChar

StartChar: Atilde
Encoding: 195 195 132
Width: 537
GlyphClass: 2
Flags: MW
LayerCount: 2
Fore
SplineSet
322 322 m 1,0,-1
 322 376 l 1,1,-1
 201 618 l 1,2,-1
 81 376 l 1,3,-1
 81 322 l 1,4,-1
 322 322 l 1,0,-1
0 0 m 1,5,-1
 0 376 l 1,6,-1
 175 725 l 1,7,-1
 228 725 l 1,8,-1
 403 376 l 1,9,-1
 403 0 l 1,10,-1
 322 0 l 1,11,-1
 322 242 l 1,12,-1
 81 242 l 1,13,-1
 81 0 l 1,14,-1
 0 0 l 1,5,-1
81 779 m 1,15,-1
 27 833 l 1,16,-1
 107 913 l 1,17,-1
 188 913 l 1,18,-1
 242 859 l 1,19,-1
 269 859 l 1,20,-1
 322 913 l 1,21,-1
 376 859 l 1,22,-1
 295 779 l 1,23,-1
 215 779 l 1,24,-1
 161 833 l 1,25,-1
 134 833 l 1,26,-1
 81 779 l 1,27,-1
 81 779 l 1,15,-1
EndSplineSet
Validated: 5
EndChar

StartChar: Adieresis
Encoding: 196 196 133
Width: 537
GlyphClass: 2
Flags: MW
LayerCount: 2
Fore
SplineSet
322 322 m 1,0,-1
 322 376 l 1,1,-1
 201 618 l 1,2,-1
 81 376 l 1,3,-1
 81 322 l 1,4,-1
 322 322 l 1,0,-1
0 0 m 1,5,-1
 0 376 l 1,6,-1
 175 725 l 1,7,-1
 228 725 l 1,8,-1
 403 376 l 1,9,-1
 403 0 l 1,10,-1
 322 0 l 1,11,-1
 322 242 l 1,12,-1
 81 242 l 1,13,-1
 81 0 l 1,14,-1
 0 0 l 1,5,-1
54 806 m 1,15,-1
 54 886 l 1,16,-1
 134 886 l 1,17,-1
 134 806 l 1,18,-1
 54 806 l 1,15,-1
269 806 m 1,19,-1
 269 886 l 1,20,-1
 349 886 l 1,21,-1
 349 806 l 1,22,-1
 269 806 l 1,19,-1
EndSplineSet
Validated: 1
EndChar

StartChar: Aring
Encoding: 197 197 134
Width: 537
GlyphClass: 2
Flags: MW
LayerCount: 2
Fore
SplineSet
322 322 m 1,0,-1
 322 376 l 1,1,-1
 201 618 l 1,2,-1
 81 376 l 1,3,-1
 81 322 l 1,4,-1
 322 322 l 1,0,-1
215 752 m 1,5,-1
 242 779 l 1,6,-1
 242 806 l 1,7,-1
 215 833 l 1,8,-1
 188 833 l 1,9,-1
 161 806 l 1,10,-1
 161 779 l 1,11,-1
 188 752 l 1,12,-1
 215 752 l 1,5,-1
0 0 m 1,13,-1
 0 376 l 1,14,-1
 161 698 l 1,15,-1
 107 752 l 1,16,-1
 107 833 l 1,17,-1
 161 886 l 1,18,-1
 242 886 l 1,19,-1
 295 833 l 1,20,-1
 295 752 l 1,21,-1
 242 698 l 1,22,-1
 403 376 l 1,23,-1
 403 0 l 1,24,-1
 322 0 l 1,25,-1
 322 242 l 1,26,-1
 81 242 l 1,27,-1
 81 0 l 1,28,-1
 0 0 l 1,13,-1
EndSplineSet
Validated: 1
EndChar

StartChar: AE
Encoding: 198 198 135
Width: 537
GlyphClass: 2
Flags: MW
LayerCount: 2
Fore
SplineSet
188 322 m 1,0,-1
 188 591 l 1,1,-1
 81 376 l 1,2,-1
 81 322 l 1,3,-1
 188 322 l 1,0,-1
0 0 m 1,4,-1
 0 376 l 1,5,-1
 175 725 l 1,6,-1
 403 725 l 1,7,-1
 403 645 l 1,8,-1
 269 645 l 1,9,-1
 269 403 l 1,10,-1
 349 403 l 1,11,-1
 349 322 l 1,12,-1
 269 322 l 1,13,-1
 269 81 l 1,14,-1
 403 81 l 1,15,-1
 403 0 l 1,16,-1
 188 0 l 1,17,-1
 188 242 l 1,18,-1
 81 242 l 1,19,-1
 81 0 l 1,20,-1
 0 0 l 1,4,-1
EndSplineSet
Validated: 1
EndChar

StartChar: Ccedilla
Encoding: 199 199 136
Width: 537
GlyphClass: 2
Flags: MW
LayerCount: 2
Fore
SplineSet
161 -161 m 1,0,-1
 107 -107 l 1,1,-1
 161 -54 l 1,2,-1
 161 0 l 1,3,-1
 134 0 l 1,4,-1
 0 134 l 1,5,-1
 0 591 l 1,6,-1
 134 725 l 1,7,-1
 269 725 l 1,8,-1
 403 591 l 1,9,-1
 349 537 l 1,10,-1
 242 645 l 1,11,-1
 161 645 l 1,12,-1
 81 564 l 1,13,-1
 81 161 l 1,14,-1
 161 81 l 1,15,-1
 242 81 l 1,16,-1
 349 188 l 1,17,-1
 403 134 l 1,18,-1
 269 0 l 1,19,-1
 242 0 l 1,20,-1
 242 -81 l 1,21,-1
 161 -161 l 1,22,-1
 161 -161 l 1,0,-1
EndSplineSet
Validated: 5
EndChar

StartChar: Egrave
Encoding: 200 200 137
Width: 537
GlyphClass: 2
Flags: MW
LayerCount: 2
Fore
SplineSet
0 0 m 1,0,-1
 0 725 l 1,1,-1
 403 725 l 1,2,-1
 403 645 l 1,3,-1
 81 645 l 1,4,-1
 81 403 l 1,5,-1
 322 403 l 1,6,-1
 322 322 l 1,7,-1
 81 322 l 1,8,-1
 81 81 l 1,9,-1
 403 81 l 1,10,-1
 403 0 l 1,11,-1
 0 0 l 1,0,-1
215 779 m 1,12,-1
 107 886 l 1,13,-1
 161 940 l 1,14,-1
 269 833 l 1,15,-1
 215 779 l 1,16,-1
 215 779 l 1,12,-1
EndSplineSet
Validated: 5
EndChar

StartChar: Eacute
Encoding: 201 201 138
Width: 537
GlyphClass: 2
Flags: MW
LayerCount: 2
Fore
SplineSet
0 0 m 1,0,-1
 0 725 l 1,1,-1
 403 725 l 1,2,-1
 403 645 l 1,3,-1
 81 645 l 1,4,-1
 81 403 l 1,5,-1
 322 403 l 1,6,-1
 322 322 l 1,7,-1
 81 322 l 1,8,-1
 81 81 l 1,9,-1
 403 81 l 1,10,-1
 403 0 l 1,11,-1
 0 0 l 1,0,-1
188 779 m 1,12,-1
 134 833 l 1,13,-1
 242 940 l 1,14,-1
 295 886 l 1,15,-1
 188 779 l 1,16,-1
 188 779 l 1,12,-1
EndSplineSet
Validated: 5
EndChar

StartChar: Ecircumflex
Encoding: 202 202 139
Width: 537
GlyphClass: 2
Flags: MW
LayerCount: 2
Fore
SplineSet
0 0 m 1,0,-1
 0 725 l 1,1,-1
 403 725 l 1,2,-1
 403 645 l 1,3,-1
 81 645 l 1,4,-1
 81 403 l 1,5,-1
 322 403 l 1,6,-1
 322 322 l 1,7,-1
 81 322 l 1,8,-1
 81 81 l 1,9,-1
 403 81 l 1,10,-1
 403 0 l 1,11,-1
 0 0 l 1,0,-1
134 779 m 1,12,-1
 81 833 l 1,13,-1
 188 940 l 1,14,-1
 215 940 l 1,15,-1
 322 833 l 1,16,-1
 269 779 l 1,17,-1
 215 833 l 1,18,-1
 215 833 l 1,19,-1
 201 846 l 1,20,-1
 134 779 l 1,21,-1
 134 779 l 1,12,-1
EndSplineSet
Validated: 5
EndChar

StartChar: Edieresis
Encoding: 203 203 140
Width: 537
GlyphClass: 2
Flags: MW
LayerCount: 2
Fore
SplineSet
0 0 m 1,0,-1
 0 725 l 1,1,-1
 403 725 l 1,2,-1
 403 645 l 1,3,-1
 81 645 l 1,4,-1
 81 403 l 1,5,-1
 322 403 l 1,6,-1
 322 322 l 1,7,-1
 81 322 l 1,8,-1
 81 81 l 1,9,-1
 403 81 l 1,10,-1
 403 0 l 1,11,-1
 0 0 l 1,0,-1
54 806 m 1,12,-1
 54 886 l 1,13,-1
 134 886 l 1,14,-1
 134 806 l 1,15,-1
 54 806 l 1,12,-1
269 806 m 1,16,-1
 269 886 l 1,17,-1
 349 886 l 1,18,-1
 349 806 l 1,19,-1
 269 806 l 1,16,-1
EndSplineSet
Validated: 1
EndChar

StartChar: Igrave
Encoding: 204 204 141
Width: 537
GlyphClass: 2
Flags: MW
LayerCount: 2
Fore
SplineSet
81 0 m 1,0,-1
 81 81 l 1,1,-1
 161 81 l 1,2,-1
 161 645 l 1,3,-1
 81 645 l 1,4,-1
 81 725 l 1,5,-1
 322 725 l 1,6,-1
 322 645 l 1,7,-1
 242 645 l 1,8,-1
 242 81 l 1,9,-1
 322 81 l 1,10,-1
 322 0 l 1,11,-1
 81 0 l 1,0,-1
215 779 m 1,12,-1
 107 886 l 1,13,-1
 161 940 l 1,14,-1
 269 833 l 1,15,-1
 215 779 l 1,16,-1
 215 779 l 1,12,-1
EndSplineSet
Validated: 5
EndChar

StartChar: Iacute
Encoding: 205 205 142
Width: 537
GlyphClass: 2
Flags: MW
LayerCount: 2
Fore
SplineSet
81 0 m 1,0,-1
 81 81 l 1,1,-1
 161 81 l 1,2,-1
 161 645 l 1,3,-1
 81 645 l 1,4,-1
 81 725 l 1,5,-1
 322 725 l 1,6,-1
 322 645 l 1,7,-1
 242 645 l 1,8,-1
 242 81 l 1,9,-1
 322 81 l 1,10,-1
 322 0 l 1,11,-1
 81 0 l 1,0,-1
188 779 m 1,12,-1
 134 833 l 1,13,-1
 242 940 l 1,14,-1
 295 886 l 1,15,-1
 188 779 l 1,16,-1
 188 779 l 1,12,-1
EndSplineSet
Validated: 5
EndChar

StartChar: Icircumflex
Encoding: 206 206 143
Width: 537
GlyphClass: 2
Flags: MW
LayerCount: 2
Fore
SplineSet
81 0 m 1,0,-1
 81 81 l 1,1,-1
 161 81 l 1,2,-1
 161 645 l 1,3,-1
 81 645 l 1,4,-1
 81 725 l 1,5,-1
 322 725 l 1,6,-1
 322 645 l 1,7,-1
 242 645 l 1,8,-1
 242 81 l 1,9,-1
 322 81 l 1,10,-1
 322 0 l 1,11,-1
 81 0 l 1,0,-1
134 779 m 1,12,-1
 81 833 l 1,13,-1
 188 940 l 1,14,-1
 215 940 l 1,15,-1
 322 833 l 1,16,-1
 269 779 l 1,17,-1
 215 833 l 1,18,-1
 215 833 l 1,19,-1
 201 846 l 1,20,-1
 134 779 l 1,21,-1
 134 779 l 1,12,-1
EndSplineSet
Validated: 5
EndChar

StartChar: Idieresis
Encoding: 207 207 144
Width: 537
GlyphClass: 2
Flags: MW
LayerCount: 2
Fore
SplineSet
81 0 m 1,0,-1
 81 81 l 1,1,-1
 161 81 l 1,2,-1
 161 645 l 1,3,-1
 81 645 l 1,4,-1
 81 725 l 1,5,-1
 322 725 l 1,6,-1
 322 645 l 1,7,-1
 242 645 l 1,8,-1
 242 81 l 1,9,-1
 322 81 l 1,10,-1
 322 0 l 1,11,-1
 81 0 l 1,0,-1
54 806 m 1,12,-1
 54 886 l 1,13,-1
 134 886 l 1,14,-1
 134 806 l 1,15,-1
 54 806 l 1,12,-1
269 806 m 1,16,-1
 269 886 l 1,17,-1
 349 886 l 1,18,-1
 349 806 l 1,19,-1
 269 806 l 1,16,-1
EndSplineSet
Validated: 1
EndChar

StartChar: Eth
Encoding: 208 208 145
Width: 537
GlyphClass: 2
Flags: MW
LayerCount: 2
Fore
SplineSet
242 81 m 1,0,-1
 322 161 l 1,1,-1
 322 564 l 1,2,-1
 242 645 l 1,3,-1
 107 645 l 1,4,-1
 107 403 l 1,5,-1
 215 403 l 1,6,-1
 215 322 l 1,7,-1
 107 322 l 1,8,-1
 107 81 l 1,9,-1
 242 81 l 1,0,-1
27 0 m 1,10,-1
 27 322 l 1,11,-1
 -27 322 l 1,12,-1
 -27 403 l 1,13,-1
 27 403 l 1,14,-1
 27 725 l 1,15,-1
 269 725 l 1,16,-1
 403 591 l 1,17,-1
 403 134 l 1,18,-1
 269 0 l 1,19,-1
 27 0 l 1,10,-1
EndSplineSet
Validated: 1
EndChar

StartChar: Ntilde
Encoding: 209 209 146
Width: 537
GlyphClass: 2
Flags: MW
LayerCount: 2
Fore
SplineSet
0 0 m 1,0,-1
 0 725 l 1,1,-1
 67 725 l 1,2,-1
 322 215 l 1,3,-1
 322 725 l 1,4,-1
 403 725 l 1,5,-1
 403 0 l 1,6,-1
 349 0 l 1,7,-1
 81 537 l 1,8,-1
 81 0 l 1,9,-1
 0 0 l 1,0,-1
81 779 m 1,10,-1
 27 833 l 1,11,-1
 107 913 l 1,12,-1
 188 913 l 1,13,-1
 242 859 l 1,14,-1
 269 859 l 1,15,-1
 322 913 l 1,16,-1
 376 859 l 1,17,-1
 295 779 l 1,18,-1
 215 779 l 1,19,-1
 161 833 l 1,20,-1
 134 833 l 1,21,-1
 81 779 l 1,22,-1
 81 779 l 1,10,-1
EndSplineSet
Validated: 5
EndChar

StartChar: Ograve
Encoding: 210 210 147
Width: 537
GlyphClass: 2
Flags: MW
LayerCount: 2
Fore
SplineSet
242 81 m 1,0,-1
 322 161 l 1,1,-1
 322 564 l 1,2,-1
 242 645 l 1,3,-1
 161 645 l 1,4,-1
 81 564 l 1,5,-1
 81 161 l 1,6,-1
 161 81 l 1,7,-1
 242 81 l 1,0,-1
134 0 m 1,8,-1
 0 134 l 1,9,-1
 0 591 l 1,10,-1
 134 725 l 1,11,-1
 269 725 l 1,12,-1
 403 591 l 1,13,-1
 403 134 l 1,14,-1
 269 0 l 1,15,-1
 134 0 l 1,8,-1
215 779 m 1,16,-1
 107 886 l 1,17,-1
 161 940 l 1,18,-1
 269 833 l 1,19,-1
 215 779 l 1,20,-1
 215 779 l 1,16,-1
EndSplineSet
Validated: 5
EndChar

StartChar: Oacute
Encoding: 211 211 148
Width: 537
GlyphClass: 2
Flags: MW
LayerCount: 2
Fore
SplineSet
242 81 m 1,0,-1
 322 161 l 1,1,-1
 322 564 l 1,2,-1
 242 645 l 1,3,-1
 161 645 l 1,4,-1
 81 564 l 1,5,-1
 81 161 l 1,6,-1
 161 81 l 1,7,-1
 242 81 l 1,0,-1
134 0 m 1,8,-1
 0 134 l 1,9,-1
 0 591 l 1,10,-1
 134 725 l 1,11,-1
 269 725 l 1,12,-1
 403 591 l 1,13,-1
 403 134 l 1,14,-1
 269 0 l 1,15,-1
 134 0 l 1,8,-1
188 779 m 1,16,-1
 134 833 l 1,17,-1
 242 940 l 1,18,-1
 295 886 l 1,19,-1
 188 779 l 1,20,-1
 188 779 l 1,16,-1
EndSplineSet
Validated: 5
EndChar

StartChar: Ocircumflex
Encoding: 212 212 149
Width: 537
GlyphClass: 2
Flags: MW
LayerCount: 2
Fore
SplineSet
242 81 m 1,0,-1
 322 161 l 1,1,-1
 322 564 l 1,2,-1
 242 645 l 1,3,-1
 161 645 l 1,4,-1
 81 564 l 1,5,-1
 81 161 l 1,6,-1
 161 81 l 1,7,-1
 242 81 l 1,0,-1
134 0 m 1,8,-1
 0 134 l 1,9,-1
 0 591 l 1,10,-1
 134 725 l 1,11,-1
 269 725 l 1,12,-1
 403 591 l 1,13,-1
 403 134 l 1,14,-1
 269 0 l 1,15,-1
 134 0 l 1,8,-1
134 779 m 1,16,-1
 81 833 l 1,17,-1
 188 940 l 1,18,-1
 215 940 l 1,19,-1
 322 833 l 1,20,-1
 269 779 l 1,21,-1
 215 833 l 1,22,-1
 215 833 l 1,23,-1
 201 846 l 1,24,-1
 134 779 l 1,25,-1
 134 779 l 1,16,-1
EndSplineSet
Validated: 5
EndChar

StartChar: Otilde
Encoding: 213 213 150
Width: 537
GlyphClass: 2
Flags: MW
LayerCount: 2
Fore
SplineSet
242 81 m 1,0,-1
 322 161 l 1,1,-1
 322 564 l 1,2,-1
 242 645 l 1,3,-1
 161 645 l 1,4,-1
 81 564 l 1,5,-1
 81 161 l 1,6,-1
 161 81 l 1,7,-1
 242 81 l 1,0,-1
134 0 m 1,8,-1
 0 134 l 1,9,-1
 0 591 l 1,10,-1
 134 725 l 1,11,-1
 269 725 l 1,12,-1
 403 591 l 1,13,-1
 403 134 l 1,14,-1
 269 0 l 1,15,-1
 134 0 l 1,8,-1
81 779 m 1,16,-1
 27 833 l 1,17,-1
 107 913 l 1,18,-1
 188 913 l 1,19,-1
 242 859 l 1,20,-1
 269 859 l 1,21,-1
 322 913 l 1,22,-1
 376 859 l 1,23,-1
 295 779 l 1,24,-1
 215 779 l 1,25,-1
 161 833 l 1,26,-1
 134 833 l 1,27,-1
 81 779 l 1,28,-1
 81 779 l 1,16,-1
EndSplineSet
Validated: 5
EndChar

StartChar: Odieresis
Encoding: 214 214 151
Width: 537
GlyphClass: 2
Flags: MW
LayerCount: 2
Fore
SplineSet
242 81 m 1,0,-1
 322 161 l 1,1,-1
 322 564 l 1,2,-1
 242 645 l 1,3,-1
 161 645 l 1,4,-1
 81 564 l 1,5,-1
 81 161 l 1,6,-1
 161 81 l 1,7,-1
 242 81 l 1,0,-1
134 0 m 1,8,-1
 0 134 l 1,9,-1
 0 591 l 1,10,-1
 134 725 l 1,11,-1
 269 725 l 1,12,-1
 403 591 l 1,13,-1
 403 134 l 1,14,-1
 269 0 l 1,15,-1
 134 0 l 1,8,-1
54 806 m 1,16,-1
 54 886 l 1,17,-1
 134 886 l 1,18,-1
 134 806 l 1,19,-1
 54 806 l 1,16,-1
269 806 m 1,20,-1
 269 886 l 1,21,-1
 349 886 l 1,22,-1
 349 806 l 1,23,-1
 269 806 l 1,20,-1
EndSplineSet
Validated: 1
EndChar

StartChar: multiply
Encoding: 215 215 152
Width: 537
GlyphClass: 2
Flags: MW
LayerCount: 2
Fore
SplineSet
201 309 m 1,0,-1
 54 161 l 1,1,-1
 0 215 l 1,2,-1
 148 363 l 1,3,-1
 0 510 l 1,4,-1
 54 564 l 1,5,-1
 201 416 l 1,6,-1
 349 564 l 1,7,-1
 403 510 l 1,8,-1
 255 363 l 1,9,-1
 403 215 l 1,10,-1
 349 161 l 1,11,-1
 201 309 l 1,0,-1
EndSplineSet
Validated: 1
EndChar

StartChar: Oslash
Encoding: 216 216 153
Width: 537
GlyphClass: 2
Flags: MW
LayerCount: 2
Fore
SplineSet
242 81 m 1,0,-1
 322 161 l 1,1,-1
 322 537 l 1,2,-1
 116 124 l 1,3,-1
 161 81 l 1,4,-1
 242 81 l 1,0,-1
81 215 m 1,5,-1
 277 608 l 1,6,-1
 242 645 l 1,7,-1
 161 645 l 1,8,-1
 81 564 l 1,9,-1
 81 215 l 1,10,-1
 81 215 l 1,5,-1
27 -27 m 1,11,-1
 -27 0 l 1,12,-1
 27 107 l 1,13,-1
 0 134 l 1,14,-1
 0 591 l 1,15,-1
 134 725 l 1,16,-1
 269 725 l 1,17,-1
 312 680 l 1,18,-1
 349 752 l 1,19,-1
 403 725 l 1,20,-1
 403 698 l 1,21,-1
 366 626 l 1,22,-1
 403 591 l 1,23,-1
 403 134 l 1,24,-1
 269 0 l 1,25,-1
 134 0 l 1,26,-1
 81 54 l 1,27,-1
 40 -27 l 1,28,-1
 27 -27 l 1,11,-1
EndSplineSet
Validated: 5
EndChar

StartChar: Ugrave
Encoding: 217 217 154
Width: 537
GlyphClass: 2
Flags: MW
LayerCount: 2
Fore
SplineSet
134 0 m 1,0,-1
 0 134 l 1,1,-1
 0 725 l 1,2,-1
 81 725 l 1,3,-1
 81 161 l 1,4,-1
 161 81 l 1,5,-1
 242 81 l 1,6,-1
 322 161 l 1,7,-1
 322 725 l 1,8,-1
 403 725 l 1,9,-1
 403 134 l 1,10,-1
 269 0 l 1,11,-1
 134 0 l 1,0,-1
215 779 m 1,12,-1
 107 886 l 1,13,-1
 161 940 l 1,14,-1
 269 833 l 1,15,-1
 215 779 l 1,16,-1
 215 779 l 1,12,-1
EndSplineSet
Validated: 5
EndChar

StartChar: Uacute
Encoding: 218 218 155
Width: 537
GlyphClass: 2
Flags: MW
LayerCount: 2
Fore
SplineSet
134 0 m 1,0,-1
 0 134 l 1,1,-1
 0 725 l 1,2,-1
 81 725 l 1,3,-1
 81 161 l 1,4,-1
 161 81 l 1,5,-1
 242 81 l 1,6,-1
 322 161 l 1,7,-1
 322 725 l 1,8,-1
 403 725 l 1,9,-1
 403 134 l 1,10,-1
 269 0 l 1,11,-1
 134 0 l 1,0,-1
188 779 m 1,12,-1
 134 833 l 1,13,-1
 242 940 l 1,14,-1
 295 886 l 1,15,-1
 188 779 l 1,16,-1
 188 779 l 1,12,-1
EndSplineSet
Validated: 5
EndChar

StartChar: Ucircumflex
Encoding: 219 219 156
Width: 537
GlyphClass: 2
Flags: MW
LayerCount: 2
Fore
SplineSet
134 0 m 1,0,-1
 0 134 l 1,1,-1
 0 725 l 1,2,-1
 81 725 l 1,3,-1
 81 161 l 1,4,-1
 161 81 l 1,5,-1
 242 81 l 1,6,-1
 322 161 l 1,7,-1
 322 725 l 1,8,-1
 403 725 l 1,9,-1
 403 134 l 1,10,-1
 269 0 l 1,11,-1
 134 0 l 1,0,-1
134 779 m 1,12,-1
 81 833 l 1,13,-1
 188 940 l 1,14,-1
 215 940 l 1,15,-1
 322 833 l 1,16,-1
 269 779 l 1,17,-1
 215 833 l 1,18,-1
 215 833 l 1,19,-1
 201 846 l 1,20,-1
 134 779 l 1,21,-1
 134 779 l 1,12,-1
EndSplineSet
Validated: 5
EndChar

StartChar: Udieresis
Encoding: 220 220 157
Width: 537
GlyphClass: 2
Flags: MW
LayerCount: 2
Fore
SplineSet
134 0 m 1,0,-1
 0 134 l 1,1,-1
 0 725 l 1,2,-1
 81 725 l 1,3,-1
 81 161 l 1,4,-1
 161 81 l 1,5,-1
 242 81 l 1,6,-1
 322 161 l 1,7,-1
 322 725 l 1,8,-1
 403 725 l 1,9,-1
 403 134 l 1,10,-1
 269 0 l 1,11,-1
 134 0 l 1,0,-1
54 806 m 1,12,-1
 54 886 l 1,13,-1
 134 886 l 1,14,-1
 134 806 l 1,15,-1
 54 806 l 1,12,-1
269 806 m 1,16,-1
 269 886 l 1,17,-1
 349 886 l 1,18,-1
 349 806 l 1,19,-1
 269 806 l 1,16,-1
EndSplineSet
Validated: 1
EndChar

StartChar: Yacute
Encoding: 221 221 158
Width: 537
GlyphClass: 2
Flags: MW
LayerCount: 2
Fore
SplineSet
161 0 m 1,0,-1
 161 376 l 1,1,-1
 0 698 l 1,2,-1
 54 725 l 1,3,-1
 67 725 l 1,4,-1
 201 457 l 1,5,-1
 336 725 l 1,6,-1
 349 725 l 1,7,-1
 403 698 l 1,8,-1
 242 376 l 1,9,-1
 242 0 l 1,10,-1
 161 0 l 1,0,-1
188 779 m 1,11,-1
 134 833 l 1,12,-1
 242 940 l 1,13,-1
 295 886 l 1,14,-1
 188 779 l 1,15,-1
 188 779 l 1,11,-1
EndSplineSet
Validated: 5
EndChar

StartChar: Thorn
Encoding: 222 222 159
Width: 537
GlyphClass: 2
Flags: MW
LayerCount: 2
Fore
SplineSet
242 242 m 1,0,-1
 322 322 l 1,1,-1
 322 403 l 1,2,-1
 242 483 l 1,3,-1
 81 483 l 1,4,-1
 81 242 l 1,5,-1
 242 242 l 1,0,-1
0 0 m 1,6,-1
 0 725 l 1,7,-1
 81 725 l 1,8,-1
 81 564 l 1,9,-1
 269 564 l 1,10,-1
 403 430 l 1,11,-1
 403 295 l 1,12,-1
 269 161 l 1,13,-1
 81 161 l 1,14,-1
 81 0 l 1,15,-1
 0 0 l 1,6,-1
EndSplineSet
Validated: 1
EndChar

StartChar: germandbls
Encoding: 223 223 160
Width: 537
GlyphClass: 2
Flags: MW
LayerCount: 2
Fore
SplineSet
0 0 m 1,0,-1
 0 618 l 1,1,-1
 107 725 l 1,2,-1
 215 725 l 1,3,-1
 322 618 l 1,4,-1
 322 537 l 1,5,-1
 242 457 l 1,6,-1
 240 457 l 1,7,-1
 228 443 l 1,8,-1
 403 269 l 1,9,-1
 403 107 l 1,10,-1
 295 0 l 1,11,-1
 269 0 l 1,12,-1
 161 107 l 1,13,-1
 215 161 l 1,14,-1
 269 107 l 1,15,-1
 269 106 l 1,16,-1
 282 94 l 1,17,-1
 322 134 l 1,18,-1
 322 242 l 1,19,-1
 134 430 l 1,20,-1
 134 457 l 1,21,-1
 242 564 l 1,22,-1
 242 591 l 1,23,-1
 188 645 l 1,24,-1
 134 645 l 1,25,-1
 81 591 l 1,26,-1
 81 0 l 1,27,-1
 0 0 l 1,0,-1
EndSplineSet
Validated: 1
EndChar

StartChar: agrave
Encoding: 224 224 161
Width: 537
GlyphClass: 2
Flags: MW
LayerCount: 2
Fore
SplineSet
215 81 m 1,0,-1
 322 188 l 1,1,-1
 322 269 l 1,2,-1
 161 269 l 1,3,-1
 81 188 l 1,4,-1
 81 161 l 1,5,-1
 161 81 l 1,6,-1
 215 81 l 1,0,-1
134 0 m 1,7,-1
 0 134 l 1,8,-1
 0 215 l 1,9,-1
 134 349 l 1,10,-1
 322 349 l 1,11,-1
 322 403 l 1,12,-1
 242 483 l 1,13,-1
 161 483 l 1,14,-1
 54 376 l 1,15,-1
 0 430 l 1,16,-1
 134 564 l 1,17,-1
 269 564 l 1,18,-1
 403 430 l 1,19,-1
 403 0 l 1,20,-1
 322 0 l 1,21,-1
 322 81 l 1,22,-1
 242 0 l 1,23,-1
 134 0 l 1,7,-1
215 618 m 1,24,-1
 107 725 l 1,25,-1
 161 779 l 1,26,-1
 269 671 l 1,27,-1
 215 618 l 1,28,-1
 215 618 l 1,24,-1
EndSplineSet
Validated: 5
EndChar

StartChar: aacute
Encoding: 225 225 162
Width: 537
GlyphClass: 2
Flags: MW
LayerCount: 2
Fore
SplineSet
215 81 m 1,0,-1
 322 188 l 1,1,-1
 322 269 l 1,2,-1
 161 269 l 1,3,-1
 81 188 l 1,4,-1
 81 161 l 1,5,-1
 161 81 l 1,6,-1
 215 81 l 1,0,-1
134 0 m 1,7,-1
 0 134 l 1,8,-1
 0 215 l 1,9,-1
 134 349 l 1,10,-1
 322 349 l 1,11,-1
 322 403 l 1,12,-1
 242 483 l 1,13,-1
 161 483 l 1,14,-1
 54 376 l 1,15,-1
 0 430 l 1,16,-1
 134 564 l 1,17,-1
 269 564 l 1,18,-1
 403 430 l 1,19,-1
 403 0 l 1,20,-1
 322 0 l 1,21,-1
 322 81 l 1,22,-1
 242 0 l 1,23,-1
 134 0 l 1,7,-1
188 618 m 1,24,-1
 134 671 l 1,25,-1
 242 779 l 1,26,-1
 295 725 l 1,27,-1
 188 618 l 1,28,-1
 188 618 l 1,24,-1
EndSplineSet
Validated: 5
EndChar

StartChar: acircumflex
Encoding: 226 226 163
Width: 537
GlyphClass: 2
Flags: MW
LayerCount: 2
Fore
SplineSet
215 81 m 1,0,-1
 322 188 l 1,1,-1
 322 269 l 1,2,-1
 161 269 l 1,3,-1
 81 188 l 1,4,-1
 81 161 l 1,5,-1
 161 81 l 1,6,-1
 215 81 l 1,0,-1
134 0 m 1,7,-1
 0 134 l 1,8,-1
 0 215 l 1,9,-1
 134 349 l 1,10,-1
 322 349 l 1,11,-1
 322 403 l 1,12,-1
 242 483 l 1,13,-1
 161 483 l 1,14,-1
 54 376 l 1,15,-1
 0 430 l 1,16,-1
 134 564 l 1,17,-1
 269 564 l 1,18,-1
 403 430 l 1,19,-1
 403 0 l 1,20,-1
 322 0 l 1,21,-1
 322 81 l 1,22,-1
 242 0 l 1,23,-1
 134 0 l 1,7,-1
134 618 m 1,24,-1
 81 671 l 1,25,-1
 188 779 l 1,26,-1
 215 779 l 1,27,-1
 322 671 l 1,28,-1
 269 618 l 1,29,-1
 215 671 l 1,30,-1
 215 671 l 1,31,-1
 201 685 l 1,32,-1
 134 618 l 1,33,-1
 134 618 l 1,24,-1
EndSplineSet
Validated: 5
EndChar

StartChar: atilde
Encoding: 227 227 164
Width: 537
GlyphClass: 2
Flags: MW
LayerCount: 2
Fore
SplineSet
215 81 m 1,0,-1
 322 188 l 1,1,-1
 322 269 l 1,2,-1
 161 269 l 1,3,-1
 81 188 l 1,4,-1
 81 161 l 1,5,-1
 161 81 l 1,6,-1
 215 81 l 1,0,-1
134 0 m 1,7,-1
 0 134 l 1,8,-1
 0 215 l 1,9,-1
 134 349 l 1,10,-1
 322 349 l 1,11,-1
 322 403 l 1,12,-1
 242 483 l 1,13,-1
 161 483 l 1,14,-1
 54 376 l 1,15,-1
 0 430 l 1,16,-1
 134 564 l 1,17,-1
 269 564 l 1,18,-1
 403 430 l 1,19,-1
 403 0 l 1,20,-1
 322 0 l 1,21,-1
 322 81 l 1,22,-1
 242 0 l 1,23,-1
 134 0 l 1,7,-1
81 618 m 1,24,-1
 27 671 l 1,25,-1
 107 752 l 1,26,-1
 188 752 l 1,27,-1
 242 698 l 1,28,-1
 269 698 l 1,29,-1
 322 752 l 1,30,-1
 376 698 l 1,31,-1
 295 618 l 1,32,-1
 215 618 l 1,33,-1
 161 671 l 1,34,-1
 134 671 l 1,35,-1
 81 618 l 1,36,-1
 81 618 l 1,24,-1
EndSplineSet
Validated: 5
EndChar

StartChar: adieresis
Encoding: 228 228 165
Width: 537
GlyphClass: 2
Flags: MW
LayerCount: 2
Fore
SplineSet
215 81 m 1,0,-1
 322 188 l 1,1,-1
 322 269 l 1,2,-1
 161 269 l 1,3,-1
 81 188 l 1,4,-1
 81 161 l 1,5,-1
 161 81 l 1,6,-1
 215 81 l 1,0,-1
134 0 m 1,7,-1
 0 134 l 1,8,-1
 0 215 l 1,9,-1
 134 349 l 1,10,-1
 322 349 l 1,11,-1
 322 403 l 1,12,-1
 242 483 l 1,13,-1
 161 483 l 1,14,-1
 54 376 l 1,15,-1
 0 430 l 1,16,-1
 134 564 l 1,17,-1
 269 564 l 1,18,-1
 403 430 l 1,19,-1
 403 0 l 1,20,-1
 322 0 l 1,21,-1
 322 81 l 1,22,-1
 242 0 l 1,23,-1
 134 0 l 1,7,-1
54 645 m 1,24,-1
 54 725 l 1,25,-1
 134 725 l 1,26,-1
 134 645 l 1,27,-1
 54 645 l 1,24,-1
269 645 m 1,28,-1
 269 725 l 1,29,-1
 349 725 l 1,30,-1
 349 645 l 1,31,-1
 269 645 l 1,28,-1
EndSplineSet
Validated: 1
EndChar

StartChar: aring
Encoding: 229 229 166
Width: 537
GlyphClass: 2
Flags: MW
LayerCount: 2
Fore
SplineSet
215 81 m 1,0,-1
 322 188 l 1,1,-1
 322 269 l 1,2,-1
 161 269 l 1,3,-1
 81 188 l 1,4,-1
 81 161 l 1,5,-1
 161 81 l 1,6,-1
 215 81 l 1,0,-1
134 0 m 1,7,-1
 0 134 l 1,8,-1
 0 215 l 1,9,-1
 134 349 l 1,10,-1
 322 349 l 1,11,-1
 322 403 l 1,12,-1
 242 483 l 1,13,-1
 161 483 l 1,14,-1
 54 376 l 1,15,-1
 0 430 l 1,16,-1
 134 564 l 1,17,-1
 269 564 l 1,18,-1
 403 430 l 1,19,-1
 403 0 l 1,20,-1
 322 0 l 1,21,-1
 322 81 l 1,22,-1
 242 0 l 1,23,-1
 134 0 l 1,7,-1
215 671 m 1,24,-1
 242 698 l 1,25,-1
 242 725 l 1,26,-1
 215 752 l 1,27,-1
 188 752 l 1,28,-1
 161 725 l 1,29,-1
 161 698 l 1,30,-1
 188 671 l 1,31,-1
 215 671 l 1,24,-1
161 618 m 1,32,-1
 107 671 l 1,33,-1
 107 752 l 1,34,-1
 161 806 l 1,35,-1
 242 806 l 1,36,-1
 295 752 l 1,37,-1
 295 671 l 1,38,-1
 242 618 l 1,39,-1
 161 618 l 1,32,-1
EndSplineSet
Validated: 1
EndChar

StartChar: ae
Encoding: 230 230 167
Width: 537
GlyphClass: 2
Flags: MW
LayerCount: 2
Fore
SplineSet
121 94 m 1,0,-1
 161 134 l 1,1,-1
 161 269 l 1,2,-1
 134 269 l 1,3,-1
 81 215 l 1,4,-1
 81 134 l 1,5,-1
 107 107 l 1,6,-1
 107 106 l 1,7,-1
 121 94 l 1,8,-1
 121 94 l 1,0,-1
322 322 m 1,9,-1
 322 430 l 1,10,-1
 295 457 l 1,11,-1
 295 457 l 1,12,-1
 282 470 l 1,13,-1
 242 430 l 1,14,-1
 242 322 l 1,15,-1
 322 322 l 1,9,-1
107 0 m 1,16,-1
 0 107 l 1,17,-1
 0 242 l 1,18,-1
 107 349 l 1,19,-1
 161 349 l 1,20,-1
 161 430 l 1,21,-1
 134 457 l 1,22,-1
 134 457 l 1,23,-1
 121 470 l 1,24,-1
 54 403 l 1,25,-1
 0 457 l 1,26,-1
 107 564 l 1,27,-1
 134 564 l 1,28,-1
 188 510 l 1,29,-1
 188 509 l 1,30,-1
 201 497 l 1,31,-1
 269 564 l 1,32,-1
 295 564 l 1,33,-1
 403 457 l 1,34,-1
 403 242 l 1,35,-1
 242 242 l 1,36,-1
 242 134 l 1,37,-1
 269 107 l 1,38,-1
 269 106 l 1,39,-1
 282 94 l 1,40,-1
 349 161 l 1,41,-1
 403 107 l 1,42,-1
 295 0 l 1,43,-1
 269 0 l 1,44,-1
 215 54 l 1,45,-1
 215 54 l 1,46,-1
 201 67 l 1,47,-1
 134 0 l 1,48,-1
 107 0 l 1,16,-1
EndSplineSet
Validated: 5
EndChar

StartChar: ccedilla
Encoding: 231 231 168
Width: 537
GlyphClass: 2
Flags: MW
LayerCount: 2
Fore
SplineSet
161 -161 m 1,0,-1
 107 -107 l 1,1,-1
 161 -54 l 1,2,-1
 161 0 l 1,3,-1
 134 0 l 1,4,-1
 0 134 l 1,5,-1
 0 430 l 1,6,-1
 134 564 l 1,7,-1
 269 564 l 1,8,-1
 403 430 l 1,9,-1
 349 376 l 1,10,-1
 242 483 l 1,11,-1
 161 483 l 1,12,-1
 81 403 l 1,13,-1
 81 161 l 1,14,-1
 161 81 l 1,15,-1
 242 81 l 1,16,-1
 349 188 l 1,17,-1
 403 134 l 1,18,-1
 269 0 l 1,19,-1
 242 0 l 1,20,-1
 242 -81 l 1,21,-1
 161 -161 l 1,22,-1
 161 -161 l 1,0,-1
EndSplineSet
Validated: 5
EndChar

StartChar: egrave
Encoding: 232 232 169
Width: 537
GlyphClass: 2
Flags: MW
LayerCount: 2
Fore
SplineSet
322 322 m 1,0,-1
 322 403 l 1,1,-1
 242 483 l 1,2,-1
 161 483 l 1,3,-1
 81 403 l 1,4,-1
 81 322 l 1,5,-1
 322 322 l 1,0,-1
134 0 m 1,6,-1
 0 134 l 1,7,-1
 0 430 l 1,8,-1
 134 564 l 1,9,-1
 269 564 l 1,10,-1
 403 430 l 1,11,-1
 403 242 l 1,12,-1
 81 242 l 1,13,-1
 81 161 l 1,14,-1
 161 81 l 1,15,-1
 242 81 l 1,16,-1
 349 188 l 1,17,-1
 403 134 l 1,18,-1
 269 0 l 1,19,-1
 134 0 l 1,6,-1
215 618 m 1,20,-1
 107 725 l 1,21,-1
 161 779 l 1,22,-1
 269 671 l 1,23,-1
 215 618 l 1,24,-1
 215 618 l 1,20,-1
EndSplineSet
Validated: 5
EndChar

StartChar: eacute
Encoding: 233 233 170
Width: 537
GlyphClass: 2
Flags: MW
LayerCount: 2
Fore
SplineSet
322 322 m 1,0,-1
 322 403 l 1,1,-1
 242 483 l 1,2,-1
 161 483 l 1,3,-1
 81 403 l 1,4,-1
 81 322 l 1,5,-1
 322 322 l 1,0,-1
134 0 m 1,6,-1
 0 134 l 1,7,-1
 0 430 l 1,8,-1
 134 564 l 1,9,-1
 269 564 l 1,10,-1
 403 430 l 1,11,-1
 403 242 l 1,12,-1
 81 242 l 1,13,-1
 81 161 l 1,14,-1
 161 81 l 1,15,-1
 242 81 l 1,16,-1
 349 188 l 1,17,-1
 403 134 l 1,18,-1
 269 0 l 1,19,-1
 134 0 l 1,6,-1
188 618 m 1,20,-1
 134 671 l 1,21,-1
 242 779 l 1,22,-1
 295 725 l 1,23,-1
 188 618 l 1,24,-1
 188 618 l 1,20,-1
EndSplineSet
Validated: 5
EndChar

StartChar: ecircumflex
Encoding: 234 234 171
Width: 537
GlyphClass: 2
Flags: MW
LayerCount: 2
Fore
SplineSet
322 322 m 1,0,-1
 322 403 l 1,1,-1
 242 483 l 1,2,-1
 161 483 l 1,3,-1
 81 403 l 1,4,-1
 81 322 l 1,5,-1
 322 322 l 1,0,-1
134 0 m 1,6,-1
 0 134 l 1,7,-1
 0 430 l 1,8,-1
 134 564 l 1,9,-1
 269 564 l 1,10,-1
 403 430 l 1,11,-1
 403 242 l 1,12,-1
 81 242 l 1,13,-1
 81 161 l 1,14,-1
 161 81 l 1,15,-1
 242 81 l 1,16,-1
 349 188 l 1,17,-1
 403 134 l 1,18,-1
 269 0 l 1,19,-1
 134 0 l 1,6,-1
134 618 m 1,20,-1
 81 671 l 1,21,-1
 188 779 l 1,22,-1
 215 779 l 1,23,-1
 322 671 l 1,24,-1
 269 618 l 1,25,-1
 215 671 l 1,26,-1
 215 671 l 1,27,-1
 201 685 l 1,28,-1
 134 618 l 1,29,-1
 134 618 l 1,20,-1
EndSplineSet
Validated: 5
EndChar

StartChar: edieresis
Encoding: 235 235 172
Width: 537
GlyphClass: 2
Flags: MW
LayerCount: 2
Fore
SplineSet
322 322 m 1,0,-1
 322 403 l 1,1,-1
 242 483 l 1,2,-1
 161 483 l 1,3,-1
 81 403 l 1,4,-1
 81 322 l 1,5,-1
 322 322 l 1,0,-1
134 0 m 1,6,-1
 0 134 l 1,7,-1
 0 430 l 1,8,-1
 134 564 l 1,9,-1
 269 564 l 1,10,-1
 403 430 l 1,11,-1
 403 242 l 1,12,-1
 81 242 l 1,13,-1
 81 161 l 1,14,-1
 161 81 l 1,15,-1
 242 81 l 1,16,-1
 349 188 l 1,17,-1
 403 134 l 1,18,-1
 269 0 l 1,19,-1
 134 0 l 1,6,-1
54 645 m 1,20,-1
 54 725 l 1,21,-1
 134 725 l 1,22,-1
 134 645 l 1,23,-1
 54 645 l 1,20,-1
269 645 m 1,24,-1
 269 725 l 1,25,-1
 349 725 l 1,26,-1
 349 645 l 1,27,-1
 269 645 l 1,24,-1
EndSplineSet
Validated: 1
EndChar

StartChar: igrave
Encoding: 236 236 173
Width: 537
GlyphClass: 2
Flags: MW
LayerCount: 2
Fore
SplineSet
81 0 m 1,0,-1
 81 81 l 1,1,-1
 161 81 l 1,2,-1
 161 483 l 1,3,-1
 81 483 l 1,4,-1
 81 564 l 1,5,-1
 242 564 l 1,6,-1
 242 81 l 1,7,-1
 322 81 l 1,8,-1
 322 0 l 1,9,-1
 81 0 l 1,0,-1
215 618 m 1,10,-1
 107 725 l 1,11,-1
 161 779 l 1,12,-1
 269 671 l 1,13,-1
 215 618 l 1,14,-1
 215 618 l 1,10,-1
EndSplineSet
Validated: 5
EndChar

StartChar: iacute
Encoding: 237 237 174
Width: 537
GlyphClass: 2
Flags: MW
LayerCount: 2
Fore
SplineSet
81 0 m 1,0,-1
 81 81 l 1,1,-1
 161 81 l 1,2,-1
 161 483 l 1,3,-1
 81 483 l 1,4,-1
 81 564 l 1,5,-1
 242 564 l 1,6,-1
 242 81 l 1,7,-1
 322 81 l 1,8,-1
 322 0 l 1,9,-1
 81 0 l 1,0,-1
188 618 m 1,10,-1
 134 671 l 1,11,-1
 242 779 l 1,12,-1
 295 725 l 1,13,-1
 188 618 l 1,14,-1
 188 618 l 1,10,-1
EndSplineSet
Validated: 5
EndChar

StartChar: icircumflex
Encoding: 238 238 175
Width: 537
GlyphClass: 2
Flags: MW
LayerCount: 2
Fore
SplineSet
81 0 m 1,0,-1
 81 81 l 1,1,-1
 161 81 l 1,2,-1
 161 483 l 1,3,-1
 81 483 l 1,4,-1
 81 564 l 1,5,-1
 242 564 l 1,6,-1
 242 81 l 1,7,-1
 322 81 l 1,8,-1
 322 0 l 1,9,-1
 81 0 l 1,0,-1
134 618 m 1,10,-1
 81 671 l 1,11,-1
 188 779 l 1,12,-1
 215 779 l 1,13,-1
 322 671 l 1,14,-1
 269 618 l 1,15,-1
 215 671 l 1,16,-1
 215 671 l 1,17,-1
 201 685 l 1,18,-1
 134 618 l 1,19,-1
 134 618 l 1,10,-1
EndSplineSet
Validated: 5
EndChar

StartChar: idieresis
Encoding: 239 239 176
Width: 537
GlyphClass: 2
Flags: MW
LayerCount: 2
Fore
SplineSet
81 0 m 1,0,-1
 81 81 l 1,1,-1
 161 81 l 1,2,-1
 161 483 l 1,3,-1
 81 483 l 1,4,-1
 81 564 l 1,5,-1
 242 564 l 1,6,-1
 242 81 l 1,7,-1
 322 81 l 1,8,-1
 322 0 l 1,9,-1
 81 0 l 1,0,-1
54 645 m 1,10,-1
 54 725 l 1,11,-1
 134 725 l 1,12,-1
 134 645 l 1,13,-1
 54 645 l 1,10,-1
269 645 m 1,14,-1
 269 725 l 1,15,-1
 349 725 l 1,16,-1
 349 645 l 1,17,-1
 269 645 l 1,14,-1
EndSplineSet
Validated: 1
EndChar

StartChar: eth
Encoding: 240 240 177
Width: 537
GlyphClass: 2
Flags: MW
LayerCount: 2
Fore
SplineSet
242 81 m 1,0,-1
 322 161 l 1,1,-1
 322 322 l 1,2,-1
 242 403 l 1,3,-1
 161 403 l 1,4,-1
 81 322 l 1,5,-1
 81 161 l 1,6,-1
 161 81 l 1,7,-1
 242 81 l 1,0,-1
134 0 m 1,8,-1
 0 134 l 1,9,-1
 0 349 l 1,10,-1
 134 483 l 1,11,-1
 269 483 l 1,12,-1
 322 430 l 1,13,-1
 322 483 l 1,14,-1
 274 579 l 1,15,-1
 188 537 l 1,16,-1
 161 591 l 1,17,-1
 161 604 l 1,18,-1
 242 645 l 1,19,-1
 215 698 l 1,20,-1
 269 725 l 1,21,-1
 282 725 l 1,22,-1
 306 677 l 1,23,-1
 403 725 l 1,24,-1
 430 671 l 1,25,-1
 430 658 l 1,26,-1
 337 611 l 1,27,-1
 403 483 l 1,28,-1
 403 134 l 1,29,-1
 269 0 l 1,30,-1
 134 0 l 1,8,-1
EndSplineSet
Validated: 1
EndChar

StartChar: ntilde
Encoding: 241 241 178
Width: 537
GlyphClass: 2
Flags: MW
LayerCount: 2
Fore
SplineSet
0 0 m 1,0,-1
 0 564 l 1,1,-1
 81 564 l 1,2,-1
 81 483 l 1,3,-1
 161 564 l 1,4,-1
 269 564 l 1,5,-1
 403 430 l 1,6,-1
 403 0 l 1,7,-1
 322 0 l 1,8,-1
 322 403 l 1,9,-1
 242 483 l 1,10,-1
 188 483 l 1,11,-1
 81 376 l 1,12,-1
 81 0 l 1,13,-1
 0 0 l 1,0,-1
81 618 m 1,14,-1
 27 671 l 1,15,-1
 107 752 l 1,16,-1
 188 752 l 1,17,-1
 242 698 l 1,18,-1
 269 698 l 1,19,-1
 322 752 l 1,20,-1
 376 698 l 1,21,-1
 295 618 l 1,22,-1
 215 618 l 1,23,-1
 161 671 l 1,24,-1
 134 671 l 1,25,-1
 81 618 l 1,26,-1
 81 618 l 1,14,-1
EndSplineSet
Validated: 5
EndChar

StartChar: ograve
Encoding: 242 242 179
Width: 537
GlyphClass: 2
Flags: MW
LayerCount: 2
Fore
SplineSet
242 81 m 1,0,-1
 322 161 l 1,1,-1
 322 403 l 1,2,-1
 242 483 l 1,3,-1
 161 483 l 1,4,-1
 81 403 l 1,5,-1
 81 161 l 1,6,-1
 161 81 l 1,7,-1
 242 81 l 1,0,-1
134 0 m 1,8,-1
 0 134 l 1,9,-1
 0 430 l 1,10,-1
 134 564 l 1,11,-1
 269 564 l 1,12,-1
 403 430 l 1,13,-1
 403 134 l 1,14,-1
 269 0 l 1,15,-1
 134 0 l 1,8,-1
215 618 m 1,16,-1
 107 725 l 1,17,-1
 161 779 l 1,18,-1
 269 671 l 1,19,-1
 215 618 l 1,20,-1
 215 618 l 1,16,-1
EndSplineSet
Validated: 5
EndChar

StartChar: oacute
Encoding: 243 243 180
Width: 537
GlyphClass: 2
Flags: MW
LayerCount: 2
Fore
SplineSet
242 81 m 1,0,-1
 322 161 l 1,1,-1
 322 403 l 1,2,-1
 242 483 l 1,3,-1
 161 483 l 1,4,-1
 81 403 l 1,5,-1
 81 161 l 1,6,-1
 161 81 l 1,7,-1
 242 81 l 1,0,-1
134 0 m 1,8,-1
 0 134 l 1,9,-1
 0 430 l 1,10,-1
 134 564 l 1,11,-1
 269 564 l 1,12,-1
 403 430 l 1,13,-1
 403 134 l 1,14,-1
 269 0 l 1,15,-1
 134 0 l 1,8,-1
188 618 m 1,16,-1
 134 671 l 1,17,-1
 242 779 l 1,18,-1
 295 725 l 1,19,-1
 188 618 l 1,20,-1
 188 618 l 1,16,-1
EndSplineSet
Validated: 5
EndChar

StartChar: ocircumflex
Encoding: 244 244 181
Width: 537
GlyphClass: 2
Flags: MW
LayerCount: 2
Fore
SplineSet
242 81 m 1,0,-1
 322 161 l 1,1,-1
 322 403 l 1,2,-1
 242 483 l 1,3,-1
 161 483 l 1,4,-1
 81 403 l 1,5,-1
 81 161 l 1,6,-1
 161 81 l 1,7,-1
 242 81 l 1,0,-1
134 0 m 1,8,-1
 0 134 l 1,9,-1
 0 430 l 1,10,-1
 134 564 l 1,11,-1
 269 564 l 1,12,-1
 403 430 l 1,13,-1
 403 134 l 1,14,-1
 269 0 l 1,15,-1
 134 0 l 1,8,-1
134 618 m 1,16,-1
 81 671 l 1,17,-1
 188 779 l 1,18,-1
 215 779 l 1,19,-1
 322 671 l 1,20,-1
 269 618 l 1,21,-1
 215 671 l 1,22,-1
 215 671 l 1,23,-1
 201 685 l 1,24,-1
 134 618 l 1,25,-1
 134 618 l 1,16,-1
EndSplineSet
Validated: 5
EndChar

StartChar: otilde
Encoding: 245 245 182
Width: 537
GlyphClass: 2
Flags: MW
LayerCount: 2
Fore
SplineSet
242 81 m 1,0,-1
 322 161 l 1,1,-1
 322 403 l 1,2,-1
 242 483 l 1,3,-1
 161 483 l 1,4,-1
 81 403 l 1,5,-1
 81 161 l 1,6,-1
 161 81 l 1,7,-1
 242 81 l 1,0,-1
134 0 m 1,8,-1
 0 134 l 1,9,-1
 0 430 l 1,10,-1
 134 564 l 1,11,-1
 269 564 l 1,12,-1
 403 430 l 1,13,-1
 403 134 l 1,14,-1
 269 0 l 1,15,-1
 134 0 l 1,8,-1
81 618 m 1,16,-1
 27 671 l 1,17,-1
 107 752 l 1,18,-1
 188 752 l 1,19,-1
 242 698 l 1,20,-1
 269 698 l 1,21,-1
 322 752 l 1,22,-1
 376 698 l 1,23,-1
 295 618 l 1,24,-1
 215 618 l 1,25,-1
 161 671 l 1,26,-1
 134 671 l 1,27,-1
 81 618 l 1,28,-1
 81 618 l 1,16,-1
EndSplineSet
Validated: 5
EndChar

StartChar: odieresis
Encoding: 246 246 183
Width: 537
GlyphClass: 2
Flags: MW
LayerCount: 2
Fore
SplineSet
242 81 m 1,0,-1
 322 161 l 1,1,-1
 322 403 l 1,2,-1
 242 483 l 1,3,-1
 161 483 l 1,4,-1
 81 403 l 1,5,-1
 81 161 l 1,6,-1
 161 81 l 1,7,-1
 242 81 l 1,0,-1
134 0 m 1,8,-1
 0 134 l 1,9,-1
 0 430 l 1,10,-1
 134 564 l 1,11,-1
 269 564 l 1,12,-1
 403 430 l 1,13,-1
 403 134 l 1,14,-1
 269 0 l 1,15,-1
 134 0 l 1,8,-1
54 645 m 1,16,-1
 54 725 l 1,17,-1
 134 725 l 1,18,-1
 134 645 l 1,19,-1
 54 645 l 1,16,-1
269 645 m 1,20,-1
 269 725 l 1,21,-1
 349 725 l 1,22,-1
 349 645 l 1,23,-1
 269 645 l 1,20,-1
EndSplineSet
Validated: 1
EndChar

StartChar: divide
Encoding: 247 247 184
Width: 537
GlyphClass: 2
Flags: MW
LayerCount: 2
Fore
SplineSet
161 161 m 1,0,-1
 161 242 l 1,1,-1
 242 242 l 1,2,-1
 242 161 l 1,3,-1
 161 161 l 1,0,-1
0 322 m 1,4,-1
 0 403 l 1,5,-1
 403 403 l 1,6,-1
 403 322 l 1,7,-1
 0 322 l 1,4,-1
161 483 m 1,8,-1
 161 564 l 1,9,-1
 242 564 l 1,10,-1
 242 483 l 1,11,-1
 161 483 l 1,8,-1
EndSplineSet
Validated: 1
EndChar

StartChar: oslash
Encoding: 248 248 185
Width: 537
GlyphClass: 2
Flags: MW
LayerCount: 2
Fore
SplineSet
242 81 m 1,0,-1
 322 161 l 1,1,-1
 322 403 l 1,2,-1
 312 411 l 1,3,-1
 151 89 l 1,4,-1
 161 81 l 1,5,-1
 242 81 l 1,0,-1
97 143 m 1,6,-1
 259 465 l 1,7,-1
 242 483 l 1,8,-1
 161 483 l 1,9,-1
 81 403 l 1,10,-1
 81 161 l 1,11,-1
 97 143 l 1,12,-1
 97 143 l 1,6,-1
54 -81 m 1,13,-1
 0 -54 l 1,14,-1
 62 71 l 1,15,-1
 0 134 l 1,16,-1
 0 430 l 1,17,-1
 134 564 l 1,18,-1
 269 564 l 1,19,-1
 295 537 l 1,20,-1
 336 618 l 1,21,-1
 349 618 l 1,22,-1
 403 591 l 1,23,-1
 349 483 l 1,24,-1
 403 430 l 1,25,-1
 403 134 l 1,26,-1
 269 0 l 1,27,-1
 134 0 l 1,28,-1
 116 17 l 1,29,-1
 67 -81 l 1,30,-1
 54 -81 l 1,13,-1
EndSplineSet
Validated: 5
EndChar

StartChar: ugrave
Encoding: 249 249 186
Width: 537
GlyphClass: 2
Flags: MW
LayerCount: 2
Fore
SplineSet
134 0 m 1,0,-1
 0 134 l 1,1,-1
 0 564 l 1,2,-1
 81 564 l 1,3,-1
 81 161 l 1,4,-1
 161 81 l 1,5,-1
 215 81 l 1,6,-1
 322 188 l 1,7,-1
 322 564 l 1,8,-1
 403 564 l 1,9,-1
 403 0 l 1,10,-1
 322 0 l 1,11,-1
 322 81 l 1,12,-1
 242 0 l 1,13,-1
 134 0 l 1,0,-1
215 618 m 1,14,-1
 107 725 l 1,15,-1
 161 779 l 1,16,-1
 269 671 l 1,17,-1
 215 618 l 1,18,-1
 215 618 l 1,14,-1
EndSplineSet
Validated: 5
EndChar

StartChar: uacute
Encoding: 250 250 187
Width: 537
GlyphClass: 2
Flags: MW
LayerCount: 2
Fore
SplineSet
134 0 m 1,0,-1
 0 134 l 1,1,-1
 0 564 l 1,2,-1
 81 564 l 1,3,-1
 81 161 l 1,4,-1
 161 81 l 1,5,-1
 215 81 l 1,6,-1
 322 188 l 1,7,-1
 322 564 l 1,8,-1
 403 564 l 1,9,-1
 403 0 l 1,10,-1
 322 0 l 1,11,-1
 322 81 l 1,12,-1
 242 0 l 1,13,-1
 134 0 l 1,0,-1
188 618 m 1,14,-1
 134 671 l 1,15,-1
 242 779 l 1,16,-1
 295 725 l 1,17,-1
 188 618 l 1,18,-1
 188 618 l 1,14,-1
EndSplineSet
Validated: 5
EndChar

StartChar: ucircumflex
Encoding: 251 251 188
Width: 537
GlyphClass: 2
Flags: MW
LayerCount: 2
Fore
SplineSet
134 0 m 1,0,-1
 0 134 l 1,1,-1
 0 564 l 1,2,-1
 81 564 l 1,3,-1
 81 161 l 1,4,-1
 161 81 l 1,5,-1
 215 81 l 1,6,-1
 322 188 l 1,7,-1
 322 564 l 1,8,-1
 403 564 l 1,9,-1
 403 0 l 1,10,-1
 322 0 l 1,11,-1
 322 81 l 1,12,-1
 242 0 l 1,13,-1
 134 0 l 1,0,-1
134 618 m 1,14,-1
 81 671 l 1,15,-1
 188 779 l 1,16,-1
 215 779 l 1,17,-1
 322 671 l 1,18,-1
 269 618 l 1,19,-1
 215 671 l 1,20,-1
 215 671 l 1,21,-1
 201 685 l 1,22,-1
 134 618 l 1,23,-1
 134 618 l 1,14,-1
EndSplineSet
Validated: 5
EndChar

StartChar: udieresis
Encoding: 252 252 189
Width: 537
GlyphClass: 2
Flags: MW
LayerCount: 2
Fore
SplineSet
134 0 m 1,0,-1
 0 134 l 1,1,-1
 0 564 l 1,2,-1
 81 564 l 1,3,-1
 81 161 l 1,4,-1
 161 81 l 1,5,-1
 215 81 l 1,6,-1
 322 188 l 1,7,-1
 322 564 l 1,8,-1
 403 564 l 1,9,-1
 403 0 l 1,10,-1
 322 0 l 1,11,-1
 322 81 l 1,12,-1
 242 0 l 1,13,-1
 134 0 l 1,0,-1
54 645 m 1,14,-1
 54 725 l 1,15,-1
 134 725 l 1,16,-1
 134 645 l 1,17,-1
 54 645 l 1,14,-1
269 645 m 1,18,-1
 269 725 l 1,19,-1
 349 725 l 1,20,-1
 349 645 l 1,21,-1
 269 645 l 1,18,-1
EndSplineSet
Validated: 1
EndChar

StartChar: yacute
Encoding: 253 253 190
Width: 537
GlyphClass: 2
Flags: MW
LayerCount: 2
Fore
SplineSet
134 -161 m 1,0,-1
 81 -134 l 1,1,-1
 161 27 l 1,2,-1
 0 349 l 1,3,-1
 0 564 l 1,4,-1
 81 564 l 1,5,-1
 81 349 l 1,6,-1
 201 107 l 1,7,-1
 322 349 l 1,8,-1
 322 564 l 1,9,-1
 403 564 l 1,10,-1
 403 349 l 1,11,-1
 148 -161 l 1,12,-1
 134 -161 l 1,0,-1
188 618 m 1,13,-1
 134 671 l 1,14,-1
 242 779 l 1,15,-1
 295 725 l 1,16,-1
 188 618 l 1,17,-1
 188 618 l 1,13,-1
EndSplineSet
Validated: 5
EndChar

StartChar: thorn
Encoding: 254 254 191
Width: 537
GlyphClass: 2
Flags: MW
LayerCount: 2
Fore
SplineSet
242 81 m 1,0,-1
 322 161 l 1,1,-1
 322 403 l 1,2,-1
 242 483 l 1,3,-1
 188 483 l 1,4,-1
 81 376 l 1,5,-1
 81 161 l 1,6,-1
 161 81 l 1,7,-1
 242 81 l 1,0,-1
0 -161 m 1,8,-1
 0 725 l 1,9,-1
 81 725 l 1,10,-1
 81 483 l 1,11,-1
 161 564 l 1,12,-1
 269 564 l 1,13,-1
 403 430 l 1,14,-1
 403 134 l 1,15,-1
 269 0 l 1,16,-1
 134 0 l 1,17,-1
 81 54 l 1,18,-1
 81 -161 l 1,19,-1
 0 -161 l 1,8,-1
EndSplineSet
Validated: 1
EndChar

StartChar: ydieresis
Encoding: 255 255 192
Width: 537
GlyphClass: 2
Flags: MW
LayerCount: 2
Fore
SplineSet
134 -161 m 1,0,-1
 81 -134 l 1,1,-1
 161 27 l 1,2,-1
 0 349 l 1,3,-1
 0 564 l 1,4,-1
 81 564 l 1,5,-1
 81 349 l 1,6,-1
 201 107 l 1,7,-1
 322 349 l 1,8,-1
 322 564 l 1,9,-1
 403 564 l 1,10,-1
 403 349 l 1,11,-1
 148 -161 l 1,12,-1
 134 -161 l 1,0,-1
54 645 m 1,13,-1
 54 725 l 1,14,-1
 134 725 l 1,15,-1
 134 645 l 1,16,-1
 54 645 l 1,13,-1
269 645 m 1,17,-1
 269 725 l 1,18,-1
 349 725 l 1,19,-1
 349 645 l 1,20,-1
 269 645 l 1,17,-1
EndSplineSet
Validated: 1
EndChar

StartChar: Amacron
Encoding: 256 256 193
Width: 537
GlyphClass: 2
Flags: MW
LayerCount: 2
Fore
SplineSet
322 322 m 1,0,-1
 322 376 l 1,1,-1
 201 618 l 1,2,-1
 81 376 l 1,3,-1
 81 322 l 1,4,-1
 322 322 l 1,0,-1
0 0 m 1,5,-1
 0 376 l 1,6,-1
 175 725 l 1,7,-1
 228 725 l 1,8,-1
 403 376 l 1,9,-1
 403 0 l 1,10,-1
 322 0 l 1,11,-1
 322 242 l 1,12,-1
 81 242 l 1,13,-1
 81 0 l 1,14,-1
 0 0 l 1,5,-1
54 806 m 1,15,-1
 54 886 l 1,16,-1
 349 886 l 1,17,-1
 349 806 l 1,18,-1
 54 806 l 1,15,-1
EndSplineSet
Validated: 1
EndChar

StartChar: amacron
Encoding: 257 257 194
Width: 537
GlyphClass: 2
Flags: MW
LayerCount: 2
Fore
SplineSet
215 81 m 1,0,-1
 322 188 l 1,1,-1
 322 269 l 1,2,-1
 161 269 l 1,3,-1
 81 188 l 1,4,-1
 81 161 l 1,5,-1
 161 81 l 1,6,-1
 215 81 l 1,0,-1
134 0 m 1,7,-1
 0 134 l 1,8,-1
 0 215 l 1,9,-1
 134 349 l 1,10,-1
 322 349 l 1,11,-1
 322 403 l 1,12,-1
 242 483 l 1,13,-1
 161 483 l 1,14,-1
 54 376 l 1,15,-1
 0 430 l 1,16,-1
 134 564 l 1,17,-1
 269 564 l 1,18,-1
 403 430 l 1,19,-1
 403 0 l 1,20,-1
 322 0 l 1,21,-1
 322 81 l 1,22,-1
 242 0 l 1,23,-1
 134 0 l 1,7,-1
54 645 m 1,24,-1
 54 725 l 1,25,-1
 349 725 l 1,26,-1
 349 645 l 1,27,-1
 54 645 l 1,24,-1
EndSplineSet
Validated: 1
EndChar

StartChar: Abreve
Encoding: 258 258 195
Width: 537
GlyphClass: 2
Flags: MW
LayerCount: 2
Fore
SplineSet
322 322 m 1,0,-1
 322 376 l 1,1,-1
 201 618 l 1,2,-1
 81 376 l 1,3,-1
 81 322 l 1,4,-1
 322 322 l 1,0,-1
0 0 m 1,5,-1
 0 376 l 1,6,-1
 175 725 l 1,7,-1
 228 725 l 1,8,-1
 403 376 l 1,9,-1
 403 0 l 1,10,-1
 322 0 l 1,11,-1
 322 242 l 1,12,-1
 81 242 l 1,13,-1
 81 0 l 1,14,-1
 0 0 l 1,5,-1
134 779 m 1,15,-1
 54 859 l 1,16,-1
 107 913 l 1,17,-1
 161 859 l 1,18,-1
 242 859 l 1,19,-1
 295 913 l 1,20,-1
 349 859 l 1,21,-1
 269 779 l 1,22,-1
 134 779 l 1,15,-1
EndSplineSet
Validated: 1
EndChar

StartChar: abreve
Encoding: 259 259 196
Width: 537
GlyphClass: 2
Flags: MW
LayerCount: 2
Fore
SplineSet
215 81 m 1,0,-1
 322 188 l 1,1,-1
 322 269 l 1,2,-1
 161 269 l 1,3,-1
 81 188 l 1,4,-1
 81 161 l 1,5,-1
 161 81 l 1,6,-1
 215 81 l 1,0,-1
134 0 m 1,7,-1
 0 134 l 1,8,-1
 0 215 l 1,9,-1
 134 349 l 1,10,-1
 322 349 l 1,11,-1
 322 403 l 1,12,-1
 242 483 l 1,13,-1
 161 483 l 1,14,-1
 54 376 l 1,15,-1
 0 430 l 1,16,-1
 134 564 l 1,17,-1
 269 564 l 1,18,-1
 403 430 l 1,19,-1
 403 0 l 1,20,-1
 322 0 l 1,21,-1
 322 81 l 1,22,-1
 242 0 l 1,23,-1
 134 0 l 1,7,-1
134 618 m 1,24,-1
 54 698 l 1,25,-1
 107 752 l 1,26,-1
 161 698 l 1,27,-1
 242 698 l 1,28,-1
 295 752 l 1,29,-1
 349 698 l 1,30,-1
 269 618 l 1,31,-1
 134 618 l 1,24,-1
EndSplineSet
Validated: 1
EndChar

StartChar: Aogonek
Encoding: 260 260 197
Width: 537
GlyphClass: 2
Flags: MW
LayerCount: 2
Fore
SplineSet
322 322 m 1,0,-1
 322 376 l 1,1,-1
 201 618 l 1,2,-1
 81 376 l 1,3,-1
 81 322 l 1,4,-1
 322 322 l 1,0,-1
349 -161 m 1,5,-1
 269 -81 l 1,6,-1
 269 -54 l 1,7,-1
 322 54 l 1,8,-1
 322 242 l 1,9,-1
 81 242 l 1,10,-1
 81 0 l 1,11,-1
 0 0 l 1,12,-1
 0 376 l 1,13,-1
 175 725 l 1,14,-1
 228 725 l 1,15,-1
 403 376 l 1,16,-1
 403 0 l 1,17,-1
 376 0 l 1,18,-1
 349 -54 l 1,19,-1
 403 -107 l 1,20,-1
 349 -161 l 1,21,-1
 349 -161 l 1,5,-1
EndSplineSet
Validated: 5
EndChar

StartChar: aogonek
Encoding: 261 261 198
Width: 537
GlyphClass: 2
Flags: MW
LayerCount: 2
Fore
SplineSet
215 81 m 1,0,-1
 322 188 l 1,1,-1
 322 269 l 1,2,-1
 161 269 l 1,3,-1
 81 188 l 1,4,-1
 81 161 l 1,5,-1
 161 81 l 1,6,-1
 215 81 l 1,0,-1
349 -161 m 1,7,-1
 269 -81 l 1,8,-1
 269 -54 l 1,9,-1
 322 54 l 1,10,-1
 322 81 l 1,11,-1
 242 0 l 1,12,-1
 134 0 l 1,13,-1
 0 134 l 1,14,-1
 0 215 l 1,15,-1
 134 349 l 1,16,-1
 322 349 l 1,17,-1
 322 403 l 1,18,-1
 242 483 l 1,19,-1
 161 483 l 1,20,-1
 54 376 l 1,21,-1
 0 430 l 1,22,-1
 134 564 l 1,23,-1
 269 564 l 1,24,-1
 403 430 l 1,25,-1
 403 0 l 1,26,-1
 376 0 l 1,27,-1
 349 -54 l 1,28,-1
 403 -107 l 1,29,-1
 349 -161 l 1,30,-1
 349 -161 l 1,7,-1
EndSplineSet
Validated: 5
EndChar

StartChar: Cacute
Encoding: 262 262 199
Width: 537
GlyphClass: 2
Flags: MW
LayerCount: 2
Fore
SplineSet
134 0 m 1,0,-1
 0 134 l 1,1,-1
 0 591 l 1,2,-1
 134 725 l 1,3,-1
 269 725 l 1,4,-1
 403 591 l 1,5,-1
 349 537 l 1,6,-1
 242 645 l 1,7,-1
 161 645 l 1,8,-1
 81 564 l 1,9,-1
 81 161 l 1,10,-1
 161 81 l 1,11,-1
 242 81 l 1,12,-1
 349 188 l 1,13,-1
 403 134 l 1,14,-1
 269 0 l 1,15,-1
 134 0 l 1,0,-1
188 779 m 1,16,-1
 134 833 l 1,17,-1
 242 940 l 1,18,-1
 295 886 l 1,19,-1
 188 779 l 1,20,-1
 188 779 l 1,16,-1
EndSplineSet
Validated: 5
EndChar

StartChar: cacute
Encoding: 263 263 200
Width: 537
GlyphClass: 2
Flags: MW
LayerCount: 2
Fore
SplineSet
134 0 m 1,0,-1
 0 134 l 1,1,-1
 0 430 l 1,2,-1
 134 564 l 1,3,-1
 269 564 l 1,4,-1
 403 430 l 1,5,-1
 349 376 l 1,6,-1
 242 483 l 1,7,-1
 161 483 l 1,8,-1
 81 403 l 1,9,-1
 81 161 l 1,10,-1
 161 81 l 1,11,-1
 242 81 l 1,12,-1
 349 188 l 1,13,-1
 403 134 l 1,14,-1
 269 0 l 1,15,-1
 134 0 l 1,0,-1
188 618 m 1,16,-1
 134 671 l 1,17,-1
 242 779 l 1,18,-1
 295 725 l 1,19,-1
 188 618 l 1,20,-1
 188 618 l 1,16,-1
EndSplineSet
Validated: 5
EndChar

StartChar: Ccircumflex
Encoding: 264 264 201
Width: 537
GlyphClass: 2
Flags: MW
LayerCount: 2
Fore
SplineSet
134 0 m 1,0,-1
 0 134 l 1,1,-1
 0 591 l 1,2,-1
 134 725 l 1,3,-1
 269 725 l 1,4,-1
 403 591 l 1,5,-1
 349 537 l 1,6,-1
 242 645 l 1,7,-1
 161 645 l 1,8,-1
 81 564 l 1,9,-1
 81 161 l 1,10,-1
 161 81 l 1,11,-1
 242 81 l 1,12,-1
 349 188 l 1,13,-1
 403 134 l 1,14,-1
 269 0 l 1,15,-1
 134 0 l 1,0,-1
134 779 m 1,16,-1
 81 833 l 1,17,-1
 188 940 l 1,18,-1
 215 940 l 1,19,-1
 322 833 l 1,20,-1
 269 779 l 1,21,-1
 215 833 l 1,22,-1
 215 833 l 1,23,-1
 201 846 l 1,24,-1
 134 779 l 1,25,-1
 134 779 l 1,16,-1
EndSplineSet
Validated: 5
EndChar

StartChar: ccircumflex
Encoding: 265 265 202
Width: 537
GlyphClass: 2
Flags: MW
LayerCount: 2
Fore
SplineSet
134 0 m 1,0,-1
 0 134 l 1,1,-1
 0 430 l 1,2,-1
 134 564 l 1,3,-1
 269 564 l 1,4,-1
 403 430 l 1,5,-1
 349 376 l 1,6,-1
 242 483 l 1,7,-1
 161 483 l 1,8,-1
 81 403 l 1,9,-1
 81 161 l 1,10,-1
 161 81 l 1,11,-1
 242 81 l 1,12,-1
 349 188 l 1,13,-1
 403 134 l 1,14,-1
 269 0 l 1,15,-1
 134 0 l 1,0,-1
134 618 m 1,16,-1
 81 671 l 1,17,-1
 188 779 l 1,18,-1
 215 779 l 1,19,-1
 322 671 l 1,20,-1
 269 618 l 1,21,-1
 215 671 l 1,22,-1
 215 671 l 1,23,-1
 201 685 l 1,24,-1
 134 618 l 1,25,-1
 134 618 l 1,16,-1
EndSplineSet
Validated: 5
EndChar

StartChar: Cdotaccent
Encoding: 266 266 203
Width: 537
GlyphClass: 2
Flags: MW
LayerCount: 2
Fore
SplineSet
134 0 m 1,0,-1
 0 134 l 1,1,-1
 0 591 l 1,2,-1
 134 725 l 1,3,-1
 269 725 l 1,4,-1
 403 591 l 1,5,-1
 349 537 l 1,6,-1
 242 645 l 1,7,-1
 161 645 l 1,8,-1
 81 564 l 1,9,-1
 81 161 l 1,10,-1
 161 81 l 1,11,-1
 242 81 l 1,12,-1
 349 188 l 1,13,-1
 403 134 l 1,14,-1
 269 0 l 1,15,-1
 134 0 l 1,0,-1
161 806 m 1,16,-1
 161 886 l 1,17,-1
 242 886 l 1,18,-1
 242 806 l 1,19,-1
 161 806 l 1,16,-1
EndSplineSet
Validated: 1
EndChar

StartChar: cdotaccent
Encoding: 267 267 204
Width: 537
GlyphClass: 2
Flags: MW
LayerCount: 2
Fore
SplineSet
134 0 m 1,0,-1
 0 134 l 1,1,-1
 0 430 l 1,2,-1
 134 564 l 1,3,-1
 269 564 l 1,4,-1
 403 430 l 1,5,-1
 349 376 l 1,6,-1
 242 483 l 1,7,-1
 161 483 l 1,8,-1
 81 403 l 1,9,-1
 81 161 l 1,10,-1
 161 81 l 1,11,-1
 242 81 l 1,12,-1
 349 188 l 1,13,-1
 403 134 l 1,14,-1
 269 0 l 1,15,-1
 134 0 l 1,0,-1
161 645 m 1,16,-1
 161 725 l 1,17,-1
 242 725 l 1,18,-1
 242 645 l 1,19,-1
 161 645 l 1,16,-1
EndSplineSet
Validated: 1
EndChar

StartChar: Ccaron
Encoding: 268 268 205
Width: 537
GlyphClass: 2
Flags: MW
LayerCount: 2
Fore
SplineSet
134 0 m 1,0,-1
 0 134 l 1,1,-1
 0 591 l 1,2,-1
 134 725 l 1,3,-1
 269 725 l 1,4,-1
 403 591 l 1,5,-1
 349 537 l 1,6,-1
 242 645 l 1,7,-1
 161 645 l 1,8,-1
 81 564 l 1,9,-1
 81 161 l 1,10,-1
 161 81 l 1,11,-1
 242 81 l 1,12,-1
 349 188 l 1,13,-1
 403 134 l 1,14,-1
 269 0 l 1,15,-1
 134 0 l 1,0,-1
188 779 m 1,16,-1
 81 886 l 1,17,-1
 134 940 l 1,18,-1
 188 886 l 1,19,-1
 188 885 l 1,20,-1
 201 873 l 1,21,-1
 269 940 l 1,22,-1
 322 886 l 1,23,-1
 215 779 l 1,24,-1
 188 779 l 1,16,-1
EndSplineSet
Validated: 1
EndChar

StartChar: ccaron
Encoding: 269 269 206
Width: 537
GlyphClass: 2
Flags: MW
LayerCount: 2
Fore
SplineSet
134 0 m 1,0,-1
 0 134 l 1,1,-1
 0 430 l 1,2,-1
 134 564 l 1,3,-1
 269 564 l 1,4,-1
 403 430 l 1,5,-1
 349 376 l 1,6,-1
 242 483 l 1,7,-1
 161 483 l 1,8,-1
 81 403 l 1,9,-1
 81 161 l 1,10,-1
 161 81 l 1,11,-1
 242 81 l 1,12,-1
 349 188 l 1,13,-1
 403 134 l 1,14,-1
 269 0 l 1,15,-1
 134 0 l 1,0,-1
188 618 m 1,16,-1
 81 725 l 1,17,-1
 134 779 l 1,18,-1
 188 725 l 1,19,-1
 188 724 l 1,20,-1
 201 712 l 1,21,-1
 269 779 l 1,22,-1
 322 725 l 1,23,-1
 215 618 l 1,24,-1
 188 618 l 1,16,-1
EndSplineSet
Validated: 1
EndChar

StartChar: Dcaron
Encoding: 270 270 207
Width: 537
GlyphClass: 2
Flags: MW
LayerCount: 2
Fore
SplineSet
242 81 m 1,0,-1
 322 161 l 1,1,-1
 322 564 l 1,2,-1
 242 645 l 1,3,-1
 81 645 l 1,4,-1
 81 81 l 1,5,-1
 242 81 l 1,0,-1
0 0 m 1,6,-1
 0 725 l 1,7,-1
 269 725 l 1,8,-1
 403 591 l 1,9,-1
 403 134 l 1,10,-1
 269 0 l 1,11,-1
 0 0 l 1,6,-1
188 779 m 1,12,-1
 81 886 l 1,13,-1
 134 940 l 1,14,-1
 188 886 l 1,15,-1
 188 885 l 1,16,-1
 201 873 l 1,17,-1
 269 940 l 1,18,-1
 322 886 l 1,19,-1
 215 779 l 1,20,-1
 188 779 l 1,12,-1
EndSplineSet
Validated: 1
EndChar

StartChar: dcaron
Encoding: 271 271 208
Width: 537
GlyphClass: 2
Flags: MW
LayerCount: 2
Fore
SplineSet
94 94 m 1,0,-1
 161 161 l 1,1,-1
 161 430 l 1,2,-1
 134 457 l 1,3,-1
 134 457 l 1,4,-1
 121 470 l 1,5,-1
 81 430 l 1,6,-1
 81 106 l 1,7,-1
 94 94 l 1,8,-1
 94 94 l 1,0,-1
81 0 m 1,9,-1
 0 81 l 1,10,-1
 0 457 l 1,11,-1
 107 564 l 1,12,-1
 134 564 l 1,13,-1
 161 537 l 1,14,-1
 161 725 l 1,15,-1
 242 725 l 1,16,-1
 242 0 l 1,17,-1
 161 0 l 1,18,-1
 161 54 l 1,19,-1
 107 0 l 1,20,-1
 81 0 l 1,9,-1
322 457 m 1,21,-1
 269 510 l 1,22,-1
 322 564 l 1,23,-1
 322 591 l 1,24,-1
 269 591 l 1,25,-1
 269 725 l 1,26,-1
 403 725 l 1,27,-1
 403 537 l 1,28,-1
 322 457 l 1,29,-1
 322 457 l 1,21,-1
EndSplineSet
Validated: 5
EndChar

StartChar: Dcroat
Encoding: 272 272 209
Width: 537
GlyphClass: 2
Flags: MW
LayerCount: 2
Fore
SplineSet
242 81 m 1,0,-1
 322 161 l 1,1,-1
 322 564 l 1,2,-1
 242 645 l 1,3,-1
 107 645 l 1,4,-1
 107 403 l 1,5,-1
 215 403 l 1,6,-1
 215 322 l 1,7,-1
 107 322 l 1,8,-1
 107 81 l 1,9,-1
 242 81 l 1,0,-1
27 0 m 1,10,-1
 27 322 l 1,11,-1
 -27 322 l 1,12,-1
 -27 403 l 1,13,-1
 27 403 l 1,14,-1
 27 725 l 1,15,-1
 269 725 l 1,16,-1
 403 591 l 1,17,-1
 403 134 l 1,18,-1
 269 0 l 1,19,-1
 27 0 l 1,10,-1
EndSplineSet
Validated: 1
EndChar

StartChar: dcroat
Encoding: 273 273 210
Width: 537
GlyphClass: 2
Flags: MW
LayerCount: 2
Fore
SplineSet
188 81 m 1,0,-1
 295 188 l 1,1,-1
 295 403 l 1,2,-1
 215 483 l 1,3,-1
 161 483 l 1,4,-1
 81 403 l 1,5,-1
 81 161 l 1,6,-1
 161 81 l 1,7,-1
 188 81 l 1,0,-1
134 0 m 1,8,-1
 0 134 l 1,9,-1
 0 430 l 1,10,-1
 134 564 l 1,11,-1
 242 564 l 1,12,-1
 295 510 l 1,13,-1
 295 618 l 1,14,-1
 54 618 l 1,15,-1
 54 698 l 1,16,-1
 295 698 l 1,17,-1
 295 725 l 1,18,-1
 376 725 l 1,19,-1
 376 698 l 1,20,-1
 430 698 l 1,21,-1
 430 618 l 1,22,-1
 376 618 l 1,23,-1
 376 0 l 1,24,-1
 295 0 l 1,25,-1
 295 81 l 1,26,-1
 215 0 l 1,27,-1
 134 0 l 1,8,-1
EndSplineSet
Validated: 1
EndChar

StartChar: Emacron
Encoding: 274 274 211
Width: 537
GlyphClass: 2
Flags: MW
LayerCount: 2
Fore
SplineSet
0 0 m 1,0,-1
 0 725 l 1,1,-1
 403 725 l 1,2,-1
 403 645 l 1,3,-1
 81 645 l 1,4,-1
 81 403 l 1,5,-1
 322 403 l 1,6,-1
 322 322 l 1,7,-1
 81 322 l 1,8,-1
 81 81 l 1,9,-1
 403 81 l 1,10,-1
 403 0 l 1,11,-1
 0 0 l 1,0,-1
54 806 m 1,12,-1
 54 886 l 1,13,-1
 349 886 l 1,14,-1
 349 806 l 1,15,-1
 54 806 l 1,12,-1
EndSplineSet
Validated: 1
EndChar

StartChar: emacron
Encoding: 275 275 212
Width: 537
GlyphClass: 2
Flags: MW
LayerCount: 2
Fore
SplineSet
322 322 m 1,0,-1
 322 403 l 1,1,-1
 242 483 l 1,2,-1
 161 483 l 1,3,-1
 81 403 l 1,4,-1
 81 322 l 1,5,-1
 322 322 l 1,0,-1
134 0 m 1,6,-1
 0 134 l 1,7,-1
 0 430 l 1,8,-1
 134 564 l 1,9,-1
 269 564 l 1,10,-1
 403 430 l 1,11,-1
 403 242 l 1,12,-1
 81 242 l 1,13,-1
 81 161 l 1,14,-1
 161 81 l 1,15,-1
 242 81 l 1,16,-1
 349 188 l 1,17,-1
 403 134 l 1,18,-1
 269 0 l 1,19,-1
 134 0 l 1,6,-1
54 645 m 1,20,-1
 54 725 l 1,21,-1
 349 725 l 1,22,-1
 349 645 l 1,23,-1
 54 645 l 1,20,-1
EndSplineSet
Validated: 1
EndChar

StartChar: Ebreve
Encoding: 276 276 213
Width: 537
GlyphClass: 2
Flags: MW
LayerCount: 2
Fore
SplineSet
0 0 m 1,0,-1
 0 725 l 1,1,-1
 403 725 l 1,2,-1
 403 645 l 1,3,-1
 81 645 l 1,4,-1
 81 403 l 1,5,-1
 322 403 l 1,6,-1
 322 322 l 1,7,-1
 81 322 l 1,8,-1
 81 81 l 1,9,-1
 403 81 l 1,10,-1
 403 0 l 1,11,-1
 0 0 l 1,0,-1
134 779 m 1,12,-1
 54 859 l 1,13,-1
 107 913 l 1,14,-1
 161 859 l 1,15,-1
 242 859 l 1,16,-1
 295 913 l 1,17,-1
 349 859 l 1,18,-1
 269 779 l 1,19,-1
 134 779 l 1,12,-1
EndSplineSet
Validated: 1
EndChar

StartChar: ebreve
Encoding: 277 277 214
Width: 537
GlyphClass: 2
Flags: MW
LayerCount: 2
Fore
SplineSet
322 322 m 1,0,-1
 322 403 l 1,1,-1
 242 483 l 1,2,-1
 161 483 l 1,3,-1
 81 403 l 1,4,-1
 81 322 l 1,5,-1
 322 322 l 1,0,-1
134 0 m 1,6,-1
 0 134 l 1,7,-1
 0 430 l 1,8,-1
 134 564 l 1,9,-1
 269 564 l 1,10,-1
 403 430 l 1,11,-1
 403 242 l 1,12,-1
 81 242 l 1,13,-1
 81 161 l 1,14,-1
 161 81 l 1,15,-1
 242 81 l 1,16,-1
 349 188 l 1,17,-1
 403 134 l 1,18,-1
 269 0 l 1,19,-1
 134 0 l 1,6,-1
134 618 m 1,20,-1
 54 698 l 1,21,-1
 107 752 l 1,22,-1
 161 698 l 1,23,-1
 242 698 l 1,24,-1
 295 752 l 1,25,-1
 349 698 l 1,26,-1
 269 618 l 1,27,-1
 134 618 l 1,20,-1
EndSplineSet
Validated: 1
EndChar

StartChar: Edotaccent
Encoding: 278 278 215
Width: 537
GlyphClass: 2
Flags: MW
LayerCount: 2
Fore
SplineSet
0 0 m 1,0,-1
 0 725 l 1,1,-1
 403 725 l 1,2,-1
 403 645 l 1,3,-1
 81 645 l 1,4,-1
 81 403 l 1,5,-1
 322 403 l 1,6,-1
 322 322 l 1,7,-1
 81 322 l 1,8,-1
 81 81 l 1,9,-1
 403 81 l 1,10,-1
 403 0 l 1,11,-1
 0 0 l 1,0,-1
161 806 m 1,12,-1
 161 886 l 1,13,-1
 242 886 l 1,14,-1
 242 806 l 1,15,-1
 161 806 l 1,12,-1
EndSplineSet
Validated: 1
EndChar

StartChar: edotaccent
Encoding: 279 279 216
Width: 537
GlyphClass: 2
Flags: MW
LayerCount: 2
Fore
SplineSet
322 322 m 1,0,-1
 322 403 l 1,1,-1
 242 483 l 1,2,-1
 161 483 l 1,3,-1
 81 403 l 1,4,-1
 81 322 l 1,5,-1
 322 322 l 1,0,-1
134 0 m 1,6,-1
 0 134 l 1,7,-1
 0 430 l 1,8,-1
 134 564 l 1,9,-1
 269 564 l 1,10,-1
 403 430 l 1,11,-1
 403 242 l 1,12,-1
 81 242 l 1,13,-1
 81 161 l 1,14,-1
 161 81 l 1,15,-1
 242 81 l 1,16,-1
 349 188 l 1,17,-1
 403 134 l 1,18,-1
 269 0 l 1,19,-1
 134 0 l 1,6,-1
161 645 m 1,20,-1
 161 725 l 1,21,-1
 242 725 l 1,22,-1
 242 645 l 1,23,-1
 161 645 l 1,20,-1
EndSplineSet
Validated: 1
EndChar

StartChar: Eogonek
Encoding: 280 280 217
Width: 537
GlyphClass: 2
Flags: MW
LayerCount: 2
Fore
SplineSet
349 -161 m 1,0,-1
 269 -81 l 1,1,-1
 269 -54 l 1,2,-1
 295 0 l 1,3,-1
 0 0 l 1,4,-1
 0 725 l 1,5,-1
 403 725 l 1,6,-1
 403 645 l 1,7,-1
 81 645 l 1,8,-1
 81 403 l 1,9,-1
 322 403 l 1,10,-1
 322 322 l 1,11,-1
 81 322 l 1,12,-1
 81 81 l 1,13,-1
 403 81 l 1,14,-1
 403 0 l 1,15,-1
 376 0 l 1,16,-1
 349 -54 l 1,17,-1
 403 -107 l 1,18,-1
 349 -161 l 1,19,-1
 349 -161 l 1,0,-1
EndSplineSet
Validated: 5
EndChar

StartChar: eogonek
Encoding: 281 281 218
Width: 537
GlyphClass: 2
Flags: MW
LayerCount: 2
Fore
SplineSet
322 322 m 1,0,-1
 322 403 l 1,1,-1
 242 483 l 1,2,-1
 161 483 l 1,3,-1
 81 403 l 1,4,-1
 81 322 l 1,5,-1
 322 322 l 1,0,-1
242 -161 m 1,6,-1
 161 -81 l 1,7,-1
 161 -54 l 1,8,-1
 188 0 l 1,9,-1
 134 0 l 1,10,-1
 0 134 l 1,11,-1
 0 430 l 1,12,-1
 134 564 l 1,13,-1
 269 564 l 1,14,-1
 403 430 l 1,15,-1
 403 242 l 1,16,-1
 81 242 l 1,17,-1
 81 161 l 1,18,-1
 161 81 l 1,19,-1
 242 81 l 1,20,-1
 349 188 l 1,21,-1
 403 134 l 1,22,-1
 269 0 l 1,23,-1
 242 -54 l 1,24,-1
 295 -107 l 1,25,-1
 242 -161 l 1,26,-1
 242 -161 l 1,6,-1
EndSplineSet
Validated: 5
EndChar

StartChar: Ecaron
Encoding: 282 282 219
Width: 537
GlyphClass: 2
Flags: MW
LayerCount: 2
Fore
SplineSet
0 0 m 1,0,-1
 0 725 l 1,1,-1
 403 725 l 1,2,-1
 403 645 l 1,3,-1
 81 645 l 1,4,-1
 81 403 l 1,5,-1
 322 403 l 1,6,-1
 322 322 l 1,7,-1
 81 322 l 1,8,-1
 81 81 l 1,9,-1
 403 81 l 1,10,-1
 403 0 l 1,11,-1
 0 0 l 1,0,-1
188 779 m 1,12,-1
 81 886 l 1,13,-1
 134 940 l 1,14,-1
 188 886 l 1,15,-1
 188 885 l 1,16,-1
 201 873 l 1,17,-1
 269 940 l 1,18,-1
 322 886 l 1,19,-1
 215 779 l 1,20,-1
 188 779 l 1,12,-1
EndSplineSet
Validated: 1
EndChar

StartChar: ecaron
Encoding: 283 283 220
Width: 537
GlyphClass: 2
Flags: MW
LayerCount: 2
Fore
SplineSet
322 322 m 1,0,-1
 322 403 l 1,1,-1
 242 483 l 1,2,-1
 161 483 l 1,3,-1
 81 403 l 1,4,-1
 81 322 l 1,5,-1
 322 322 l 1,0,-1
134 0 m 1,6,-1
 0 134 l 1,7,-1
 0 430 l 1,8,-1
 134 564 l 1,9,-1
 269 564 l 1,10,-1
 403 430 l 1,11,-1
 403 242 l 1,12,-1
 81 242 l 1,13,-1
 81 161 l 1,14,-1
 161 81 l 1,15,-1
 242 81 l 1,16,-1
 349 188 l 1,17,-1
 403 134 l 1,18,-1
 269 0 l 1,19,-1
 134 0 l 1,6,-1
188 618 m 1,20,-1
 81 725 l 1,21,-1
 134 779 l 1,22,-1
 188 725 l 1,23,-1
 188 724 l 1,24,-1
 201 712 l 1,25,-1
 269 779 l 1,26,-1
 322 725 l 1,27,-1
 215 618 l 1,28,-1
 188 618 l 1,20,-1
EndSplineSet
Validated: 1
EndChar

StartChar: Gcircumflex
Encoding: 284 284 221
Width: 537
GlyphClass: 2
Flags: MW
LayerCount: 2
Fore
SplineSet
134 0 m 1,0,-1
 0 134 l 1,1,-1
 0 591 l 1,2,-1
 134 725 l 1,3,-1
 269 725 l 1,4,-1
 403 591 l 1,5,-1
 349 537 l 1,6,-1
 242 645 l 1,7,-1
 161 645 l 1,8,-1
 81 564 l 1,9,-1
 81 161 l 1,10,-1
 161 81 l 1,11,-1
 215 81 l 1,12,-1
 322 188 l 1,13,-1
 322 322 l 1,14,-1
 161 322 l 1,15,-1
 161 403 l 1,16,-1
 403 403 l 1,17,-1
 403 0 l 1,18,-1
 322 0 l 1,19,-1
 322 81 l 1,20,-1
 242 0 l 1,21,-1
 134 0 l 1,0,-1
134 779 m 1,22,-1
 81 833 l 1,23,-1
 188 940 l 1,24,-1
 215 940 l 1,25,-1
 322 833 l 1,26,-1
 269 779 l 1,27,-1
 215 833 l 1,28,-1
 215 833 l 1,29,-1
 201 846 l 1,30,-1
 134 779 l 1,31,-1
 134 779 l 1,22,-1
EndSplineSet
Validated: 5
EndChar

StartChar: gcircumflex
Encoding: 285 285 222
Width: 537
GlyphClass: 2
Flags: MW
LayerCount: 2
Fore
SplineSet
295 -81 m 1,0,-1
 322 -54 l 1,1,-1
 322 -54 l 1,2,-1
 336 -40 l 1,3,-1
 295 0 l 1,4,-1
 134 0 l 1,5,-1
 107 -27 l 1,6,-1
 106 -27 l 1,7,-1
 94 -40 l 1,8,-1
 134 -81 l 1,9,-1
 295 -81 l 1,0,-1
242 242 m 1,10,-1
 322 322 l 1,11,-1
 322 376 l 1,12,-1
 215 483 l 1,13,-1
 161 483 l 1,14,-1
 81 403 l 1,15,-1
 81 322 l 1,16,-1
 161 242 l 1,17,-1
 242 242 l 1,10,-1
107 -161 m 1,18,-1
 0 -54 l 1,19,-1
 0 -27 l 1,20,-1
 54 27 l 1,21,-1
 54 27 l 1,22,-1
 67 40 l 1,23,-1
 0 107 l 1,24,-1
 0 134 l 1,25,-1
 81 215 l 1,26,-1
 0 295 l 1,27,-1
 0 430 l 1,28,-1
 134 564 l 1,29,-1
 403 564 l 1,30,-1
 403 483 l 1,31,-1
 322 483 l 1,32,-1
 403 403 l 1,33,-1
 403 295 l 1,34,-1
 269 161 l 1,35,-1
 134 161 l 1,36,-1
 107 134 l 1,37,-1
 106 134 l 1,38,-1
 94 121 l 1,39,-1
 134 81 l 1,40,-1
 322 81 l 1,41,-1
 430 -27 l 1,42,-1
 430 -54 l 1,43,-1
 322 -161 l 1,44,-1
 107 -161 l 1,18,-1
134 618 m 1,45,-1
 81 671 l 1,46,-1
 188 779 l 1,47,-1
 215 779 l 1,48,-1
 322 671 l 1,49,-1
 269 618 l 1,50,-1
 215 671 l 1,51,-1
 215 671 l 1,52,-1
 201 685 l 1,53,-1
 134 618 l 1,54,-1
 134 618 l 1,45,-1
EndSplineSet
Validated: 5
EndChar

StartChar: Gbreve
Encoding: 286 286 223
Width: 537
GlyphClass: 2
Flags: MW
LayerCount: 2
Fore
SplineSet
134 0 m 1,0,-1
 0 134 l 1,1,-1
 0 591 l 1,2,-1
 134 725 l 1,3,-1
 269 725 l 1,4,-1
 403 591 l 1,5,-1
 349 537 l 1,6,-1
 242 645 l 1,7,-1
 161 645 l 1,8,-1
 81 564 l 1,9,-1
 81 161 l 1,10,-1
 161 81 l 1,11,-1
 215 81 l 1,12,-1
 322 188 l 1,13,-1
 322 322 l 1,14,-1
 161 322 l 1,15,-1
 161 403 l 1,16,-1
 403 403 l 1,17,-1
 403 0 l 1,18,-1
 322 0 l 1,19,-1
 322 81 l 1,20,-1
 242 0 l 1,21,-1
 134 0 l 1,0,-1
134 779 m 1,22,-1
 54 859 l 1,23,-1
 107 913 l 1,24,-1
 161 859 l 1,25,-1
 242 859 l 1,26,-1
 295 913 l 1,27,-1
 349 859 l 1,28,-1
 269 779 l 1,29,-1
 134 779 l 1,22,-1
EndSplineSet
Validated: 1
EndChar

StartChar: gbreve
Encoding: 287 287 224
Width: 537
GlyphClass: 2
Flags: MW
LayerCount: 2
Fore
SplineSet
295 -81 m 1,0,-1
 322 -54 l 1,1,-1
 322 -54 l 1,2,-1
 336 -40 l 1,3,-1
 295 0 l 1,4,-1
 134 0 l 1,5,-1
 107 -27 l 1,6,-1
 106 -27 l 1,7,-1
 94 -40 l 1,8,-1
 134 -81 l 1,9,-1
 295 -81 l 1,0,-1
242 242 m 1,10,-1
 322 322 l 1,11,-1
 322 376 l 1,12,-1
 215 483 l 1,13,-1
 161 483 l 1,14,-1
 81 403 l 1,15,-1
 81 322 l 1,16,-1
 161 242 l 1,17,-1
 242 242 l 1,10,-1
107 -161 m 1,18,-1
 0 -54 l 1,19,-1
 0 -27 l 1,20,-1
 54 27 l 1,21,-1
 54 27 l 1,22,-1
 67 40 l 1,23,-1
 0 107 l 1,24,-1
 0 134 l 1,25,-1
 81 215 l 1,26,-1
 0 295 l 1,27,-1
 0 430 l 1,28,-1
 134 564 l 1,29,-1
 403 564 l 1,30,-1
 403 483 l 1,31,-1
 322 483 l 1,32,-1
 403 403 l 1,33,-1
 403 295 l 1,34,-1
 269 161 l 1,35,-1
 134 161 l 1,36,-1
 107 134 l 1,37,-1
 106 134 l 1,38,-1
 94 121 l 1,39,-1
 134 81 l 1,40,-1
 322 81 l 1,41,-1
 430 -27 l 1,42,-1
 430 -54 l 1,43,-1
 322 -161 l 1,44,-1
 107 -161 l 1,18,-1
134 618 m 1,45,-1
 54 698 l 1,46,-1
 107 752 l 1,47,-1
 161 698 l 1,48,-1
 242 698 l 1,49,-1
 295 752 l 1,50,-1
 349 698 l 1,51,-1
 269 618 l 1,52,-1
 134 618 l 1,45,-1
EndSplineSet
Validated: 1
EndChar

StartChar: Gdotaccent
Encoding: 288 288 225
Width: 537
GlyphClass: 2
Flags: MW
LayerCount: 2
Fore
SplineSet
134 0 m 1,0,-1
 0 134 l 1,1,-1
 0 591 l 1,2,-1
 134 725 l 1,3,-1
 269 725 l 1,4,-1
 403 591 l 1,5,-1
 349 537 l 1,6,-1
 242 645 l 1,7,-1
 161 645 l 1,8,-1
 81 564 l 1,9,-1
 81 161 l 1,10,-1
 161 81 l 1,11,-1
 215 81 l 1,12,-1
 322 188 l 1,13,-1
 322 322 l 1,14,-1
 161 322 l 1,15,-1
 161 403 l 1,16,-1
 403 403 l 1,17,-1
 403 0 l 1,18,-1
 322 0 l 1,19,-1
 322 81 l 1,20,-1
 242 0 l 1,21,-1
 134 0 l 1,0,-1
161 806 m 1,22,-1
 161 886 l 1,23,-1
 242 886 l 1,24,-1
 242 806 l 1,25,-1
 161 806 l 1,22,-1
EndSplineSet
Validated: 1
EndChar

StartChar: gdotaccent
Encoding: 289 289 226
Width: 537
GlyphClass: 2
Flags: MW
LayerCount: 2
Fore
SplineSet
295 -81 m 1,0,-1
 322 -54 l 1,1,-1
 322 -54 l 1,2,-1
 336 -40 l 1,3,-1
 295 0 l 1,4,-1
 134 0 l 1,5,-1
 107 -27 l 1,6,-1
 106 -27 l 1,7,-1
 94 -40 l 1,8,-1
 134 -81 l 1,9,-1
 295 -81 l 1,0,-1
242 242 m 1,10,-1
 322 322 l 1,11,-1
 322 376 l 1,12,-1
 215 483 l 1,13,-1
 161 483 l 1,14,-1
 81 403 l 1,15,-1
 81 322 l 1,16,-1
 161 242 l 1,17,-1
 242 242 l 1,10,-1
107 -161 m 1,18,-1
 0 -54 l 1,19,-1
 0 -27 l 1,20,-1
 54 27 l 1,21,-1
 54 27 l 1,22,-1
 67 40 l 1,23,-1
 0 107 l 1,24,-1
 0 134 l 1,25,-1
 81 215 l 1,26,-1
 0 295 l 1,27,-1
 0 430 l 1,28,-1
 134 564 l 1,29,-1
 403 564 l 1,30,-1
 403 483 l 1,31,-1
 322 483 l 1,32,-1
 403 403 l 1,33,-1
 403 295 l 1,34,-1
 269 161 l 1,35,-1
 134 161 l 1,36,-1
 107 134 l 1,37,-1
 106 134 l 1,38,-1
 94 121 l 1,39,-1
 134 81 l 1,40,-1
 322 81 l 1,41,-1
 430 -27 l 1,42,-1
 430 -54 l 1,43,-1
 322 -161 l 1,44,-1
 107 -161 l 1,18,-1
161 645 m 1,45,-1
 161 725 l 1,46,-1
 242 725 l 1,47,-1
 242 645 l 1,48,-1
 161 645 l 1,45,-1
EndSplineSet
Validated: 1
EndChar

StartChar: uni0122
Encoding: 290 290 227
Width: 537
GlyphClass: 2
Flags: MW
LayerCount: 2
Fore
SplineSet
161 -161 m 1,0,-1
 107 -107 l 1,1,-1
 161 -54 l 1,2,-1
 161 0 l 1,3,-1
 134 0 l 1,4,-1
 0 134 l 1,5,-1
 0 591 l 1,6,-1
 134 725 l 1,7,-1
 269 725 l 1,8,-1
 403 591 l 1,9,-1
 349 537 l 1,10,-1
 242 645 l 1,11,-1
 161 645 l 1,12,-1
 81 564 l 1,13,-1
 81 161 l 1,14,-1
 161 81 l 1,15,-1
 215 81 l 1,16,-1
 322 188 l 1,17,-1
 322 322 l 1,18,-1
 161 322 l 1,19,-1
 161 403 l 1,20,-1
 403 403 l 1,21,-1
 403 0 l 1,22,-1
 322 0 l 1,23,-1
 322 81 l 1,24,-1
 242 0 l 1,25,-1
 242 -81 l 1,26,-1
 161 -161 l 1,27,-1
 161 -161 l 1,0,-1
EndSplineSet
Validated: 5
EndChar

StartChar: uni0123
Encoding: 291 291 228
Width: 537
GlyphClass: 2
Flags: MW
LayerCount: 2
Fore
SplineSet
295 -81 m 1,0,-1
 322 -54 l 1,1,-1
 322 -54 l 1,2,-1
 336 -40 l 1,3,-1
 295 0 l 1,4,-1
 134 0 l 1,5,-1
 107 -27 l 1,6,-1
 106 -27 l 1,7,-1
 94 -40 l 1,8,-1
 134 -81 l 1,9,-1
 295 -81 l 1,0,-1
242 242 m 1,10,-1
 322 322 l 1,11,-1
 322 376 l 1,12,-1
 215 483 l 1,13,-1
 161 483 l 1,14,-1
 81 403 l 1,15,-1
 81 322 l 1,16,-1
 161 242 l 1,17,-1
 242 242 l 1,10,-1
107 -161 m 1,18,-1
 0 -54 l 1,19,-1
 0 -27 l 1,20,-1
 54 27 l 1,21,-1
 54 27 l 1,22,-1
 67 40 l 1,23,-1
 0 107 l 1,24,-1
 0 134 l 1,25,-1
 81 215 l 1,26,-1
 0 295 l 1,27,-1
 0 430 l 1,28,-1
 134 564 l 1,29,-1
 161 564 l 1,30,-1
 161 645 l 1,31,-1
 242 725 l 1,32,-1
 295 671 l 1,33,-1
 242 618 l 1,34,-1
 242 564 l 1,35,-1
 403 564 l 1,36,-1
 403 483 l 1,37,-1
 322 483 l 1,38,-1
 403 403 l 1,39,-1
 403 295 l 1,40,-1
 269 161 l 1,41,-1
 134 161 l 1,42,-1
 107 134 l 1,43,-1
 106 134 l 1,44,-1
 94 121 l 1,45,-1
 134 81 l 1,46,-1
 322 81 l 1,47,-1
 430 -27 l 1,48,-1
 430 -54 l 1,49,-1
 322 -161 l 1,50,-1
 107 -161 l 1,18,-1
EndSplineSet
Validated: 1
EndChar

StartChar: Hcircumflex
Encoding: 292 292 229
Width: 537
GlyphClass: 2
Flags: MW
LayerCount: 2
Fore
SplineSet
0 0 m 1,0,-1
 0 725 l 1,1,-1
 81 725 l 1,2,-1
 81 403 l 1,3,-1
 322 403 l 1,4,-1
 322 725 l 1,5,-1
 403 725 l 1,6,-1
 403 0 l 1,7,-1
 322 0 l 1,8,-1
 322 322 l 1,9,-1
 81 322 l 1,10,-1
 81 0 l 1,11,-1
 0 0 l 1,0,-1
134 779 m 1,12,-1
 81 833 l 1,13,-1
 188 940 l 1,14,-1
 215 940 l 1,15,-1
 322 833 l 1,16,-1
 269 779 l 1,17,-1
 215 833 l 1,18,-1
 215 833 l 1,19,-1
 201 846 l 1,20,-1
 134 779 l 1,21,-1
 134 779 l 1,12,-1
EndSplineSet
Validated: 5
EndChar

StartChar: hcircumflex
Encoding: 293 293 230
Width: 537
GlyphClass: 2
Flags: MW
LayerCount: 2
Fore
SplineSet
0 0 m 1,0,-1
 0 725 l 1,1,-1
 81 725 l 1,2,-1
 81 483 l 1,3,-1
 161 564 l 1,4,-1
 269 564 l 1,5,-1
 403 430 l 1,6,-1
 403 0 l 1,7,-1
 322 0 l 1,8,-1
 322 403 l 1,9,-1
 242 483 l 1,10,-1
 188 483 l 1,11,-1
 81 376 l 1,12,-1
 81 0 l 1,13,-1
 0 0 l 1,0,-1
134 779 m 1,14,-1
 81 833 l 1,15,-1
 188 940 l 1,16,-1
 215 940 l 1,17,-1
 322 833 l 1,18,-1
 269 779 l 1,19,-1
 215 833 l 1,20,-1
 215 833 l 1,21,-1
 201 846 l 1,22,-1
 134 779 l 1,23,-1
 134 779 l 1,14,-1
EndSplineSet
Validated: 5
EndChar

StartChar: Hbar
Encoding: 294 294 231
Width: 537
GlyphClass: 2
Flags: MW
LayerCount: 2
Fore
SplineSet
295 403 m 1,0,-1
 295 510 l 1,1,-1
 107 510 l 1,2,-1
 107 403 l 1,3,-1
 295 403 l 1,0,-1
27 0 m 1,4,-1
 27 510 l 1,5,-1
 -27 510 l 1,6,-1
 -27 591 l 1,7,-1
 27 591 l 1,8,-1
 27 725 l 1,9,-1
 107 725 l 1,10,-1
 107 591 l 1,11,-1
 295 591 l 1,12,-1
 295 725 l 1,13,-1
 376 725 l 1,14,-1
 376 591 l 1,15,-1
 430 591 l 1,16,-1
 430 510 l 1,17,-1
 376 510 l 1,18,-1
 376 0 l 1,19,-1
 295 0 l 1,20,-1
 295 322 l 1,21,-1
 107 322 l 1,22,-1
 107 0 l 1,23,-1
 27 0 l 1,4,-1
EndSplineSet
Validated: 1
EndChar

StartChar: hbar
Encoding: 295 295 232
Width: 537
GlyphClass: 2
Flags: MW
LayerCount: 2
Fore
SplineSet
27 0 m 1,0,-1
 27 618 l 1,1,-1
 -27 618 l 1,2,-1
 -27 698 l 1,3,-1
 27 698 l 1,4,-1
 27 725 l 1,5,-1
 107 725 l 1,6,-1
 107 698 l 1,7,-1
 349 698 l 1,8,-1
 349 618 l 1,9,-1
 107 618 l 1,10,-1
 107 483 l 1,11,-1
 188 564 l 1,12,-1
 269 564 l 1,13,-1
 403 430 l 1,14,-1
 403 0 l 1,15,-1
 322 0 l 1,16,-1
 322 403 l 1,17,-1
 242 483 l 1,18,-1
 215 483 l 1,19,-1
 107 376 l 1,20,-1
 107 0 l 1,21,-1
 27 0 l 1,0,-1
EndSplineSet
Validated: 1
EndChar

StartChar: Itilde
Encoding: 296 296 233
Width: 537
GlyphClass: 2
Flags: MW
LayerCount: 2
Fore
SplineSet
81 0 m 1,0,-1
 81 81 l 1,1,-1
 161 81 l 1,2,-1
 161 645 l 1,3,-1
 81 645 l 1,4,-1
 81 725 l 1,5,-1
 322 725 l 1,6,-1
 322 645 l 1,7,-1
 242 645 l 1,8,-1
 242 81 l 1,9,-1
 322 81 l 1,10,-1
 322 0 l 1,11,-1
 81 0 l 1,0,-1
81 779 m 1,12,-1
 27 833 l 1,13,-1
 107 913 l 1,14,-1
 188 913 l 1,15,-1
 242 859 l 1,16,-1
 269 859 l 1,17,-1
 322 913 l 1,18,-1
 376 859 l 1,19,-1
 295 779 l 1,20,-1
 215 779 l 1,21,-1
 161 833 l 1,22,-1
 134 833 l 1,23,-1
 81 779 l 1,24,-1
 81 779 l 1,12,-1
EndSplineSet
Validated: 5
EndChar

StartChar: itilde
Encoding: 297 297 234
Width: 537
GlyphClass: 2
Flags: MW
LayerCount: 2
Fore
SplineSet
81 0 m 1,0,-1
 81 81 l 1,1,-1
 161 81 l 1,2,-1
 161 483 l 1,3,-1
 81 483 l 1,4,-1
 81 564 l 1,5,-1
 242 564 l 1,6,-1
 242 81 l 1,7,-1
 322 81 l 1,8,-1
 322 0 l 1,9,-1
 81 0 l 1,0,-1
81 618 m 1,10,-1
 27 671 l 1,11,-1
 107 752 l 1,12,-1
 188 752 l 1,13,-1
 242 698 l 1,14,-1
 269 698 l 1,15,-1
 322 752 l 1,16,-1
 376 698 l 1,17,-1
 295 618 l 1,18,-1
 215 618 l 1,19,-1
 161 671 l 1,20,-1
 134 671 l 1,21,-1
 81 618 l 1,22,-1
 81 618 l 1,10,-1
EndSplineSet
Validated: 5
EndChar

StartChar: Imacron
Encoding: 298 298 235
Width: 537
GlyphClass: 2
Flags: MW
LayerCount: 2
Fore
SplineSet
81 0 m 1,0,-1
 81 81 l 1,1,-1
 161 81 l 1,2,-1
 161 645 l 1,3,-1
 81 645 l 1,4,-1
 81 725 l 1,5,-1
 322 725 l 1,6,-1
 322 645 l 1,7,-1
 242 645 l 1,8,-1
 242 81 l 1,9,-1
 322 81 l 1,10,-1
 322 0 l 1,11,-1
 81 0 l 1,0,-1
54 806 m 1,12,-1
 54 886 l 1,13,-1
 349 886 l 1,14,-1
 349 806 l 1,15,-1
 54 806 l 1,12,-1
EndSplineSet
Validated: 1
EndChar

StartChar: imacron
Encoding: 299 299 236
Width: 537
GlyphClass: 2
Flags: MW
LayerCount: 2
Fore
SplineSet
81 0 m 1,0,-1
 81 81 l 1,1,-1
 161 81 l 1,2,-1
 161 483 l 1,3,-1
 81 483 l 1,4,-1
 81 564 l 1,5,-1
 242 564 l 1,6,-1
 242 81 l 1,7,-1
 322 81 l 1,8,-1
 322 0 l 1,9,-1
 81 0 l 1,0,-1
54 645 m 1,10,-1
 54 725 l 1,11,-1
 349 725 l 1,12,-1
 349 645 l 1,13,-1
 54 645 l 1,10,-1
EndSplineSet
Validated: 1
EndChar

StartChar: Ibreve
Encoding: 300 300 237
Width: 537
GlyphClass: 2
Flags: MW
LayerCount: 2
Fore
SplineSet
81 0 m 1,0,-1
 81 81 l 1,1,-1
 161 81 l 1,2,-1
 161 645 l 1,3,-1
 81 645 l 1,4,-1
 81 725 l 1,5,-1
 322 725 l 1,6,-1
 322 645 l 1,7,-1
 242 645 l 1,8,-1
 242 81 l 1,9,-1
 322 81 l 1,10,-1
 322 0 l 1,11,-1
 81 0 l 1,0,-1
134 779 m 1,12,-1
 54 859 l 1,13,-1
 107 913 l 1,14,-1
 161 859 l 1,15,-1
 242 859 l 1,16,-1
 295 913 l 1,17,-1
 349 859 l 1,18,-1
 269 779 l 1,19,-1
 134 779 l 1,12,-1
EndSplineSet
Validated: 1
EndChar

StartChar: ibreve
Encoding: 301 301 238
Width: 537
GlyphClass: 2
Flags: MW
LayerCount: 2
Fore
SplineSet
81 0 m 1,0,-1
 81 81 l 1,1,-1
 161 81 l 1,2,-1
 161 483 l 1,3,-1
 81 483 l 1,4,-1
 81 564 l 1,5,-1
 242 564 l 1,6,-1
 242 81 l 1,7,-1
 322 81 l 1,8,-1
 322 0 l 1,9,-1
 81 0 l 1,0,-1
134 618 m 1,10,-1
 54 698 l 1,11,-1
 107 752 l 1,12,-1
 161 698 l 1,13,-1
 242 698 l 1,14,-1
 295 752 l 1,15,-1
 349 698 l 1,16,-1
 269 618 l 1,17,-1
 134 618 l 1,10,-1
EndSplineSet
Validated: 1
EndChar

StartChar: Iogonek
Encoding: 302 302 239
Width: 537
GlyphClass: 2
Flags: MW
LayerCount: 2
Fore
SplineSet
269 -161 m 1,0,-1
 188 -81 l 1,1,-1
 188 -54 l 1,2,-1
 215 0 l 1,3,-1
 81 0 l 1,4,-1
 81 81 l 1,5,-1
 161 81 l 1,6,-1
 161 645 l 1,7,-1
 81 645 l 1,8,-1
 81 725 l 1,9,-1
 322 725 l 1,10,-1
 322 645 l 1,11,-1
 242 645 l 1,12,-1
 242 81 l 1,13,-1
 322 81 l 1,14,-1
 322 0 l 1,15,-1
 295 0 l 1,16,-1
 269 -54 l 1,17,-1
 322 -107 l 1,18,-1
 269 -161 l 1,19,-1
 269 -161 l 1,0,-1
EndSplineSet
Validated: 5
EndChar

StartChar: iogonek
Encoding: 303 303 240
Width: 537
GlyphClass: 2
Flags: MW
LayerCount: 2
Fore
SplineSet
269 -161 m 1,0,-1
 188 -81 l 1,1,-1
 188 -54 l 1,2,-1
 215 0 l 1,3,-1
 81 0 l 1,4,-1
 81 81 l 1,5,-1
 161 81 l 1,6,-1
 161 483 l 1,7,-1
 81 483 l 1,8,-1
 81 564 l 1,9,-1
 242 564 l 1,10,-1
 242 81 l 1,11,-1
 322 81 l 1,12,-1
 322 0 l 1,13,-1
 295 0 l 1,14,-1
 269 -54 l 1,15,-1
 322 -107 l 1,16,-1
 269 -161 l 1,17,-1
 269 -161 l 1,0,-1
161 645 m 1,18,-1
 161 725 l 1,19,-1
 242 725 l 1,20,-1
 242 645 l 1,21,-1
 161 645 l 1,18,-1
EndSplineSet
Validated: 5
EndChar

StartChar: Idotaccent
Encoding: 304 304 241
Width: 537
GlyphClass: 2
Flags: MW
LayerCount: 2
Fore
SplineSet
81 0 m 1,0,-1
 81 81 l 1,1,-1
 161 81 l 1,2,-1
 161 645 l 1,3,-1
 81 645 l 1,4,-1
 81 725 l 1,5,-1
 322 725 l 1,6,-1
 322 645 l 1,7,-1
 242 645 l 1,8,-1
 242 81 l 1,9,-1
 322 81 l 1,10,-1
 322 0 l 1,11,-1
 81 0 l 1,0,-1
161 806 m 1,12,-1
 161 886 l 1,13,-1
 242 886 l 1,14,-1
 242 806 l 1,15,-1
 161 806 l 1,12,-1
EndSplineSet
Validated: 1
EndChar

StartChar: dotlessi
Encoding: 305 305 242
Width: 537
GlyphClass: 2
Flags: MW
LayerCount: 2
Fore
SplineSet
81 0 m 1,0,-1
 81 81 l 1,1,-1
 161 81 l 1,2,-1
 161 483 l 1,3,-1
 81 483 l 1,4,-1
 81 564 l 1,5,-1
 242 564 l 1,6,-1
 242 81 l 1,7,-1
 322 81 l 1,8,-1
 322 0 l 1,9,-1
 81 0 l 1,0,-1
EndSplineSet
Validated: 1
EndChar

StartChar: IJ
Encoding: 306 306 243
Width: 537
GlyphClass: 2
Flags: MW
LayerCount: 2
Fore
SplineSet
0 242 m 1,0,-1
 0 322 l 1,1,-1
 54 322 l 1,2,-1
 54 645 l 1,3,-1
 0 645 l 1,4,-1
 0 725 l 1,5,-1
 188 725 l 1,6,-1
 188 645 l 1,7,-1
 134 645 l 1,8,-1
 134 322 l 1,9,-1
 188 322 l 1,10,-1
 188 242 l 1,11,-1
 0 242 l 1,0,-1
161 0 m 1,12,-1
 27 134 l 1,13,-1
 81 188 l 1,14,-1
 188 81 l 1,15,-1
 242 81 l 1,16,-1
 322 161 l 1,17,-1
 322 725 l 1,18,-1
 403 725 l 1,19,-1
 403 134 l 1,20,-1
 269 0 l 1,21,-1
 161 0 l 1,12,-1
EndSplineSet
Validated: 1
EndChar

StartChar: ij
Encoding: 307 307 244
Width: 537
GlyphClass: 2
Flags: MW
LayerCount: 2
Fore
SplineSet
0 54 m 1,0,-1
 0 134 l 1,1,-1
 81 134 l 1,2,-1
 81 483 l 1,3,-1
 0 483 l 1,4,-1
 0 564 l 1,5,-1
 161 564 l 1,6,-1
 161 134 l 1,7,-1
 242 134 l 1,8,-1
 242 54 l 1,9,-1
 0 54 l 1,0,-1
188 -161 m 1,10,-1
 81 -54 l 1,11,-1
 134 0 l 1,12,-1
 215 -81 l 1,13,-1
 269 -81 l 1,14,-1
 322 -27 l 1,15,-1
 322 483 l 1,16,-1
 242 483 l 1,17,-1
 242 564 l 1,18,-1
 403 564 l 1,19,-1
 403 -54 l 1,20,-1
 295 -161 l 1,21,-1
 188 -161 l 1,10,-1
81 645 m 1,22,-1
 81 725 l 1,23,-1
 161 725 l 1,24,-1
 161 645 l 1,25,-1
 81 645 l 1,22,-1
322 645 m 1,26,-1
 322 725 l 1,27,-1
 403 725 l 1,28,-1
 403 645 l 1,29,-1
 322 645 l 1,26,-1
EndSplineSet
Validated: 1
EndChar

StartChar: Jcircumflex
Encoding: 308 308 245
Width: 537
GlyphClass: 2
Flags: MW
LayerCount: 2
Fore
SplineSet
134 0 m 1,0,-1
 0 134 l 1,1,-1
 54 188 l 1,2,-1
 161 81 l 1,3,-1
 242 81 l 1,4,-1
 322 161 l 1,5,-1
 322 725 l 1,6,-1
 403 725 l 1,7,-1
 403 134 l 1,8,-1
 269 0 l 1,9,-1
 134 0 l 1,0,-1
134 779 m 1,10,-1
 81 833 l 1,11,-1
 188 940 l 1,12,-1
 215 940 l 1,13,-1
 322 833 l 1,14,-1
 269 779 l 1,15,-1
 215 833 l 1,16,-1
 215 833 l 1,17,-1
 201 846 l 1,18,-1
 134 779 l 1,19,-1
 134 779 l 1,10,-1
EndSplineSet
Validated: 5
EndChar

StartChar: jcircumflex
Encoding: 309 309 246
Width: 537
GlyphClass: 2
Flags: MW
LayerCount: 2
Fore
SplineSet
107 -161 m 1,0,-1
 0 -54 l 1,1,-1
 54 0 l 1,2,-1
 134 -81 l 1,3,-1
 188 -81 l 1,4,-1
 242 -27 l 1,5,-1
 242 483 l 1,6,-1
 161 483 l 1,7,-1
 161 564 l 1,8,-1
 322 564 l 1,9,-1
 322 -54 l 1,10,-1
 215 -161 l 1,11,-1
 107 -161 l 1,0,-1
215 618 m 1,12,-1
 161 671 l 1,13,-1
 269 779 l 1,14,-1
 295 779 l 1,15,-1
 403 671 l 1,16,-1
 349 618 l 1,17,-1
 295 671 l 1,18,-1
 295 671 l 1,19,-1
 282 685 l 1,20,-1
 215 618 l 1,21,-1
 215 618 l 1,12,-1
EndSplineSet
Validated: 5
EndChar

StartChar: uni0136
Encoding: 310 310 247
Width: 537
GlyphClass: 2
Flags: MW
LayerCount: 2
Fore
SplineSet
161 -161 m 1,0,-1
 107 -107 l 1,1,-1
 161 -54 l 1,2,-1
 161 54 l 1,3,-1
 242 54 l 1,4,-1
 242 -81 l 1,5,-1
 161 -161 l 1,6,-1
 161 -161 l 1,0,-1
0 0 m 1,7,-1
 0 725 l 1,8,-1
 81 725 l 1,9,-1
 81 403 l 1,10,-1
 175 403 l 1,11,-1
 336 725 l 1,12,-1
 349 725 l 1,13,-1
 403 698 l 1,14,-1
 235 363 l 1,15,-1
 403 27 l 1,16,-1
 349 0 l 1,17,-1
 336 0 l 1,18,-1
 175 322 l 1,19,-1
 81 322 l 1,20,-1
 81 0 l 1,21,-1
 0 0 l 1,7,-1
EndSplineSet
Validated: 5
EndChar

StartChar: uni0137
Encoding: 311 311 248
Width: 537
GlyphClass: 2
Flags: MW
LayerCount: 2
Fore
SplineSet
161 -161 m 1,0,-1
 107 -107 l 1,1,-1
 161 -54 l 1,2,-1
 161 54 l 1,3,-1
 242 54 l 1,4,-1
 242 -81 l 1,5,-1
 161 -161 l 1,6,-1
 161 -161 l 1,0,-1
0 0 m 1,7,-1
 0 725 l 1,8,-1
 81 725 l 1,9,-1
 81 322 l 1,10,-1
 215 322 l 1,11,-1
 336 564 l 1,12,-1
 349 564 l 1,13,-1
 403 537 l 1,14,-1
 275 282 l 1,15,-1
 403 27 l 1,16,-1
 349 0 l 1,17,-1
 336 0 l 1,18,-1
 215 242 l 1,19,-1
 81 242 l 1,20,-1
 81 0 l 1,21,-1
 0 0 l 1,7,-1
EndSplineSet
Validated: 5
EndChar

StartChar: kgreenlandic
Encoding: 312 312 249
Width: 537
GlyphClass: 2
Flags: MW
LayerCount: 2
Fore
SplineSet
0 0 m 1,0,-1
 0 564 l 1,1,-1
 81 564 l 1,2,-1
 81 322 l 1,3,-1
 215 322 l 1,4,-1
 336 564 l 1,5,-1
 349 564 l 1,6,-1
 403 537 l 1,7,-1
 275 282 l 1,8,-1
 403 27 l 1,9,-1
 349 0 l 1,10,-1
 336 0 l 1,11,-1
 215 242 l 1,12,-1
 81 242 l 1,13,-1
 81 0 l 1,14,-1
 0 0 l 1,0,-1
EndSplineSet
Validated: 1
EndChar

StartChar: Lacute
Encoding: 313 313 250
Width: 537
GlyphClass: 2
Flags: MW
LayerCount: 2
Fore
SplineSet
0 0 m 1,0,-1
 0 725 l 1,1,-1
 81 725 l 1,2,-1
 81 81 l 1,3,-1
 403 81 l 1,4,-1
 403 0 l 1,5,-1
 0 0 l 1,0,-1
188 779 m 1,6,-1
 134 833 l 1,7,-1
 242 940 l 1,8,-1
 295 886 l 1,9,-1
 188 779 l 1,10,-1
 188 779 l 1,6,-1
EndSplineSet
Validated: 5
EndChar

StartChar: lacute
Encoding: 314 314 251
Width: 537
GlyphClass: 2
Flags: MW
LayerCount: 2
Fore
SplineSet
81 0 m 1,0,-1
 81 81 l 1,1,-1
 161 81 l 1,2,-1
 161 645 l 1,3,-1
 81 645 l 1,4,-1
 81 725 l 1,5,-1
 242 725 l 1,6,-1
 242 81 l 1,7,-1
 322 81 l 1,8,-1
 322 0 l 1,9,-1
 81 0 l 1,0,-1
188 779 m 1,10,-1
 134 833 l 1,11,-1
 242 940 l 1,12,-1
 295 886 l 1,13,-1
 188 779 l 1,14,-1
 188 779 l 1,10,-1
EndSplineSet
Validated: 5
EndChar

StartChar: uni013B
Encoding: 315 315 252
Width: 537
GlyphClass: 2
Flags: MW
LayerCount: 2
Fore
SplineSet
161 -161 m 1,0,-1
 107 -107 l 1,1,-1
 161 -54 l 1,2,-1
 161 0 l 1,3,-1
 0 0 l 1,4,-1
 0 725 l 1,5,-1
 81 725 l 1,6,-1
 81 81 l 1,7,-1
 403 81 l 1,8,-1
 403 0 l 1,9,-1
 242 0 l 1,10,-1
 242 -81 l 1,11,-1
 161 -161 l 1,12,-1
 161 -161 l 1,0,-1
EndSplineSet
Validated: 5
EndChar

StartChar: uni013C
Encoding: 316 316 253
Width: 537
GlyphClass: 2
Flags: MW
LayerCount: 2
Fore
SplineSet
161 -161 m 1,0,-1
 107 -107 l 1,1,-1
 161 -54 l 1,2,-1
 161 0 l 1,3,-1
 81 0 l 1,4,-1
 81 81 l 1,5,-1
 161 81 l 1,6,-1
 161 645 l 1,7,-1
 81 645 l 1,8,-1
 81 725 l 1,9,-1
 242 725 l 1,10,-1
 242 81 l 1,11,-1
 322 81 l 1,12,-1
 322 0 l 1,13,-1
 242 0 l 1,14,-1
 242 -81 l 1,15,-1
 161 -161 l 1,16,-1
 161 -161 l 1,0,-1
EndSplineSet
Validated: 5
EndChar

StartChar: Lcaron
Encoding: 317 317 254
Width: 537
GlyphClass: 2
Flags: MW
LayerCount: 2
Fore
SplineSet
0 0 m 1,0,-1
 0 725 l 1,1,-1
 81 725 l 1,2,-1
 81 81 l 1,3,-1
 403 81 l 1,4,-1
 403 0 l 1,5,-1
 0 0 l 1,0,-1
295 430 m 1,6,-1
 242 483 l 1,7,-1
 322 564 l 1,8,-1
 322 591 l 1,9,-1
 269 591 l 1,10,-1
 269 725 l 1,11,-1
 403 725 l 1,12,-1
 403 537 l 1,13,-1
 295 430 l 1,14,-1
 295 430 l 1,6,-1
EndSplineSet
Validated: 5
EndChar

StartChar: lcaron
Encoding: 318 318 255
Width: 537
GlyphClass: 2
Flags: MW
LayerCount: 2
Fore
SplineSet
0 0 m 1,0,-1
 0 81 l 1,1,-1
 81 81 l 1,2,-1
 81 645 l 1,3,-1
 0 645 l 1,4,-1
 0 725 l 1,5,-1
 161 725 l 1,6,-1
 161 81 l 1,7,-1
 242 81 l 1,8,-1
 242 0 l 1,9,-1
 0 0 l 1,0,-1
295 430 m 1,10,-1
 242 483 l 1,11,-1
 322 564 l 1,12,-1
 322 591 l 1,13,-1
 269 591 l 1,14,-1
 269 725 l 1,15,-1
 403 725 l 1,16,-1
 403 537 l 1,17,-1
 295 430 l 1,18,-1
 295 430 l 1,10,-1
EndSplineSet
Validated: 5
EndChar

StartChar: Ldot
Encoding: 319 319 256
Width: 537
GlyphClass: 2
Flags: MW
LayerCount: 2
Fore
SplineSet
242 322 m 1,0,-1
 242 403 l 1,1,-1
 322 403 l 1,2,-1
 322 322 l 1,3,-1
 242 322 l 1,0,-1
0 0 m 1,4,-1
 0 725 l 1,5,-1
 81 725 l 1,6,-1
 81 81 l 1,7,-1
 403 81 l 1,8,-1
 403 0 l 1,9,-1
 0 0 l 1,4,-1
EndSplineSet
Validated: 1
EndChar

StartChar: ldot
Encoding: 320 320 257
Width: 537
GlyphClass: 2
Flags: MW
LayerCount: 2
Fore
SplineSet
322 322 m 1,0,-1
 322 403 l 1,1,-1
 403 403 l 1,2,-1
 403 322 l 1,3,-1
 322 322 l 1,0,-1
54 0 m 1,4,-1
 54 81 l 1,5,-1
 134 81 l 1,6,-1
 134 645 l 1,7,-1
 54 645 l 1,8,-1
 54 725 l 1,9,-1
 215 725 l 1,10,-1
 215 81 l 1,11,-1
 295 81 l 1,12,-1
 295 0 l 1,13,-1
 54 0 l 1,4,-1
EndSplineSet
Validated: 1
EndChar

StartChar: Lslash
Encoding: 321 321 258
Width: 537
GlyphClass: 2
Flags: MW
LayerCount: 2
Fore
SplineSet
54 0 m 1,0,-1
 54 309 l 1,1,-1
 -27 269 l 1,2,-1
 -54 322 l 1,3,-1
 -54 336 l 1,4,-1
 54 389 l 1,5,-1
 54 725 l 1,6,-1
 134 725 l 1,7,-1
 134 430 l 1,8,-1
 242 483 l 1,9,-1
 269 430 l 1,10,-1
 269 416 l 1,11,-1
 134 349 l 1,12,-1
 134 81 l 1,13,-1
 403 81 l 1,14,-1
 403 0 l 1,15,-1
 54 0 l 1,0,-1
EndSplineSet
Validated: 1
EndChar

StartChar: lslash
Encoding: 322 322 259
Width: 537
GlyphClass: 2
Flags: MW
LayerCount: 2
Fore
SplineSet
81 0 m 1,0,-1
 81 81 l 1,1,-1
 161 81 l 1,2,-1
 161 336 l 1,3,-1
 81 295 l 1,4,-1
 54 349 l 1,5,-1
 54 363 l 1,6,-1
 161 416 l 1,7,-1
 161 645 l 1,8,-1
 81 645 l 1,9,-1
 81 725 l 1,10,-1
 242 725 l 1,11,-1
 242 457 l 1,12,-1
 349 510 l 1,13,-1
 376 457 l 1,14,-1
 376 443 l 1,15,-1
 242 376 l 1,16,-1
 242 81 l 1,17,-1
 322 81 l 1,18,-1
 322 0 l 1,19,-1
 81 0 l 1,0,-1
EndSplineSet
Validated: 1
EndChar

StartChar: Nacute
Encoding: 323 323 260
Width: 537
GlyphClass: 2
Flags: MW
LayerCount: 2
Fore
SplineSet
0 0 m 1,0,-1
 0 725 l 1,1,-1
 67 725 l 1,2,-1
 322 215 l 1,3,-1
 322 725 l 1,4,-1
 403 725 l 1,5,-1
 403 0 l 1,6,-1
 349 0 l 1,7,-1
 81 537 l 1,8,-1
 81 0 l 1,9,-1
 0 0 l 1,0,-1
188 779 m 1,10,-1
 134 833 l 1,11,-1
 242 940 l 1,12,-1
 295 886 l 1,13,-1
 188 779 l 1,14,-1
 188 779 l 1,10,-1
EndSplineSet
Validated: 5
EndChar

StartChar: nacute
Encoding: 324 324 261
Width: 537
GlyphClass: 2
Flags: MW
LayerCount: 2
Fore
SplineSet
0 0 m 1,0,-1
 0 564 l 1,1,-1
 81 564 l 1,2,-1
 81 483 l 1,3,-1
 161 564 l 1,4,-1
 269 564 l 1,5,-1
 403 430 l 1,6,-1
 403 0 l 1,7,-1
 322 0 l 1,8,-1
 322 403 l 1,9,-1
 242 483 l 1,10,-1
 188 483 l 1,11,-1
 81 376 l 1,12,-1
 81 0 l 1,13,-1
 0 0 l 1,0,-1
188 618 m 1,14,-1
 134 671 l 1,15,-1
 242 779 l 1,16,-1
 295 725 l 1,17,-1
 188 618 l 1,18,-1
 188 618 l 1,14,-1
EndSplineSet
Validated: 5
EndChar

StartChar: uni0145
Encoding: 325 325 262
Width: 537
GlyphClass: 2
Flags: MW
LayerCount: 2
Fore
SplineSet
161 -161 m 1,0,-1
 107 -107 l 1,1,-1
 161 -54 l 1,2,-1
 161 54 l 1,3,-1
 242 54 l 1,4,-1
 242 -81 l 1,5,-1
 161 -161 l 1,6,-1
 161 -161 l 1,0,-1
0 0 m 1,7,-1
 0 725 l 1,8,-1
 67 725 l 1,9,-1
 322 215 l 1,10,-1
 322 725 l 1,11,-1
 403 725 l 1,12,-1
 403 0 l 1,13,-1
 349 0 l 1,14,-1
 81 537 l 1,15,-1
 81 0 l 1,16,-1
 0 0 l 1,7,-1
EndSplineSet
Validated: 5
EndChar

StartChar: uni0146
Encoding: 326 326 263
Width: 537
GlyphClass: 2
Flags: MW
LayerCount: 2
Fore
SplineSet
161 -161 m 1,0,-1
 107 -107 l 1,1,-1
 161 -54 l 1,2,-1
 161 54 l 1,3,-1
 242 54 l 1,4,-1
 242 -81 l 1,5,-1
 161 -161 l 1,6,-1
 161 -161 l 1,0,-1
0 0 m 1,7,-1
 0 564 l 1,8,-1
 81 564 l 1,9,-1
 81 483 l 1,10,-1
 161 564 l 1,11,-1
 269 564 l 1,12,-1
 403 430 l 1,13,-1
 403 0 l 1,14,-1
 322 0 l 1,15,-1
 322 403 l 1,16,-1
 242 483 l 1,17,-1
 188 483 l 1,18,-1
 81 376 l 1,19,-1
 81 0 l 1,20,-1
 0 0 l 1,7,-1
EndSplineSet
Validated: 5
EndChar

StartChar: Ncaron
Encoding: 327 327 264
Width: 537
GlyphClass: 2
Flags: MW
LayerCount: 2
Fore
SplineSet
0 0 m 1,0,-1
 0 725 l 1,1,-1
 67 725 l 1,2,-1
 322 215 l 1,3,-1
 322 725 l 1,4,-1
 403 725 l 1,5,-1
 403 0 l 1,6,-1
 349 0 l 1,7,-1
 81 537 l 1,8,-1
 81 0 l 1,9,-1
 0 0 l 1,0,-1
188 779 m 1,10,-1
 81 886 l 1,11,-1
 134 940 l 1,12,-1
 188 886 l 1,13,-1
 188 885 l 1,14,-1
 201 873 l 1,15,-1
 269 940 l 1,16,-1
 322 886 l 1,17,-1
 215 779 l 1,18,-1
 188 779 l 1,10,-1
EndSplineSet
Validated: 1
EndChar

StartChar: ncaron
Encoding: 328 328 265
Width: 537
GlyphClass: 2
Flags: MW
LayerCount: 2
Fore
SplineSet
0 0 m 1,0,-1
 0 564 l 1,1,-1
 81 564 l 1,2,-1
 81 483 l 1,3,-1
 161 564 l 1,4,-1
 269 564 l 1,5,-1
 403 430 l 1,6,-1
 403 0 l 1,7,-1
 322 0 l 1,8,-1
 322 403 l 1,9,-1
 242 483 l 1,10,-1
 188 483 l 1,11,-1
 81 376 l 1,12,-1
 81 0 l 1,13,-1
 0 0 l 1,0,-1
188 618 m 1,14,-1
 81 725 l 1,15,-1
 134 779 l 1,16,-1
 188 725 l 1,17,-1
 188 724 l 1,18,-1
 201 712 l 1,19,-1
 269 779 l 1,20,-1
 322 725 l 1,21,-1
 215 618 l 1,22,-1
 188 618 l 1,14,-1
EndSplineSet
Validated: 1
EndChar

StartChar: napostrophe
Encoding: 329 329 266
Width: 537
GlyphClass: 2
Flags: MW
LayerCount: 2
Fore
SplineSet
161 0 m 1,0,-1
 161 564 l 1,1,-1
 242 564 l 1,2,-1
 242 510 l 1,3,-1
 295 564 l 1,4,-1
 322 564 l 1,5,-1
 403 483 l 1,6,-1
 403 0 l 1,7,-1
 322 0 l 1,8,-1
 322 457 l 1,9,-1
 309 470 l 1,10,-1
 242 403 l 1,11,-1
 242 0 l 1,12,-1
 161 0 l 1,0,-1
54 457 m 1,13,-1
 0 510 l 1,14,-1
 54 564 l 1,15,-1
 54 591 l 1,16,-1
 0 591 l 1,17,-1
 0 725 l 1,18,-1
 134 725 l 1,19,-1
 134 537 l 1,20,-1
 54 457 l 1,21,-1
 54 457 l 1,13,-1
EndSplineSet
Validated: 5
EndChar

StartChar: Eng
Encoding: 330 330 267
Width: 537
GlyphClass: 2
Flags: MW
LayerCount: 2
Fore
SplineSet
269 -161 m 1,0,-1
 215 -107 l 1,1,-1
 322 0 l 1,2,-1
 322 54 l 1,3,-1
 81 537 l 1,4,-1
 81 0 l 1,5,-1
 0 0 l 1,6,-1
 0 725 l 1,7,-1
 67 725 l 1,8,-1
 322 215 l 1,9,-1
 322 725 l 1,10,-1
 403 725 l 1,11,-1
 403 -27 l 1,12,-1
 269 -161 l 1,13,-1
 269 -161 l 1,0,-1
EndSplineSet
Validated: 5
EndChar

StartChar: eng
Encoding: 331 331 268
Width: 537
GlyphClass: 2
Flags: MW
LayerCount: 2
Fore
SplineSet
269 -161 m 1,0,-1
 215 -107 l 1,1,-1
 322 0 l 1,2,-1
 322 403 l 1,3,-1
 242 483 l 1,4,-1
 188 483 l 1,5,-1
 81 376 l 1,6,-1
 81 0 l 1,7,-1
 0 0 l 1,8,-1
 0 564 l 1,9,-1
 81 564 l 1,10,-1
 81 483 l 1,11,-1
 161 564 l 1,12,-1
 269 564 l 1,13,-1
 403 430 l 1,14,-1
 403 -27 l 1,15,-1
 269 -161 l 1,16,-1
 269 -161 l 1,0,-1
EndSplineSet
Validated: 5
EndChar

StartChar: Omacron
Encoding: 332 332 269
Width: 537
GlyphClass: 2
Flags: MW
LayerCount: 2
Fore
SplineSet
242 81 m 1,0,-1
 322 161 l 1,1,-1
 322 564 l 1,2,-1
 242 645 l 1,3,-1
 161 645 l 1,4,-1
 81 564 l 1,5,-1
 81 161 l 1,6,-1
 161 81 l 1,7,-1
 242 81 l 1,0,-1
134 0 m 1,8,-1
 0 134 l 1,9,-1
 0 591 l 1,10,-1
 134 725 l 1,11,-1
 269 725 l 1,12,-1
 403 591 l 1,13,-1
 403 134 l 1,14,-1
 269 0 l 1,15,-1
 134 0 l 1,8,-1
54 806 m 1,16,-1
 54 886 l 1,17,-1
 349 886 l 1,18,-1
 349 806 l 1,19,-1
 54 806 l 1,16,-1
EndSplineSet
Validated: 1
EndChar

StartChar: omacron
Encoding: 333 333 270
Width: 537
GlyphClass: 2
Flags: MW
LayerCount: 2
Fore
SplineSet
242 81 m 1,0,-1
 322 161 l 1,1,-1
 322 403 l 1,2,-1
 242 483 l 1,3,-1
 161 483 l 1,4,-1
 81 403 l 1,5,-1
 81 161 l 1,6,-1
 161 81 l 1,7,-1
 242 81 l 1,0,-1
134 0 m 1,8,-1
 0 134 l 1,9,-1
 0 430 l 1,10,-1
 134 564 l 1,11,-1
 269 564 l 1,12,-1
 403 430 l 1,13,-1
 403 134 l 1,14,-1
 269 0 l 1,15,-1
 134 0 l 1,8,-1
54 645 m 1,16,-1
 54 725 l 1,17,-1
 349 725 l 1,18,-1
 349 645 l 1,19,-1
 54 645 l 1,16,-1
EndSplineSet
Validated: 1
EndChar

StartChar: Obreve
Encoding: 334 334 271
Width: 537
GlyphClass: 2
Flags: MW
LayerCount: 2
Fore
SplineSet
242 81 m 1,0,-1
 322 161 l 1,1,-1
 322 564 l 1,2,-1
 242 645 l 1,3,-1
 161 645 l 1,4,-1
 81 564 l 1,5,-1
 81 161 l 1,6,-1
 161 81 l 1,7,-1
 242 81 l 1,0,-1
134 0 m 1,8,-1
 0 134 l 1,9,-1
 0 591 l 1,10,-1
 134 725 l 1,11,-1
 269 725 l 1,12,-1
 403 591 l 1,13,-1
 403 134 l 1,14,-1
 269 0 l 1,15,-1
 134 0 l 1,8,-1
134 779 m 1,16,-1
 54 859 l 1,17,-1
 107 913 l 1,18,-1
 161 859 l 1,19,-1
 242 859 l 1,20,-1
 295 913 l 1,21,-1
 349 859 l 1,22,-1
 269 779 l 1,23,-1
 134 779 l 1,16,-1
EndSplineSet
Validated: 1
EndChar

StartChar: obreve
Encoding: 335 335 272
Width: 537
GlyphClass: 2
Flags: MW
LayerCount: 2
Fore
SplineSet
242 81 m 1,0,-1
 322 161 l 1,1,-1
 322 403 l 1,2,-1
 242 483 l 1,3,-1
 161 483 l 1,4,-1
 81 403 l 1,5,-1
 81 161 l 1,6,-1
 161 81 l 1,7,-1
 242 81 l 1,0,-1
134 0 m 1,8,-1
 0 134 l 1,9,-1
 0 430 l 1,10,-1
 134 564 l 1,11,-1
 269 564 l 1,12,-1
 403 430 l 1,13,-1
 403 134 l 1,14,-1
 269 0 l 1,15,-1
 134 0 l 1,8,-1
134 618 m 1,16,-1
 54 698 l 1,17,-1
 107 752 l 1,18,-1
 161 698 l 1,19,-1
 242 698 l 1,20,-1
 295 752 l 1,21,-1
 349 698 l 1,22,-1
 269 618 l 1,23,-1
 134 618 l 1,16,-1
EndSplineSet
Validated: 1
EndChar

StartChar: Ohungarumlaut
Encoding: 336 336 273
Width: 537
GlyphClass: 2
Flags: MW
LayerCount: 2
Fore
SplineSet
242 81 m 1,0,-1
 322 161 l 1,1,-1
 322 564 l 1,2,-1
 242 645 l 1,3,-1
 161 645 l 1,4,-1
 81 564 l 1,5,-1
 81 161 l 1,6,-1
 161 81 l 1,7,-1
 242 81 l 1,0,-1
134 0 m 1,8,-1
 0 134 l 1,9,-1
 0 591 l 1,10,-1
 134 725 l 1,11,-1
 269 725 l 1,12,-1
 403 591 l 1,13,-1
 403 134 l 1,14,-1
 269 0 l 1,15,-1
 134 0 l 1,8,-1
107 779 m 1,16,-1
 54 833 l 1,17,-1
 161 940 l 1,18,-1
 215 886 l 1,19,-1
 107 779 l 1,20,-1
 107 779 l 1,16,-1
269 779 m 1,21,-1
 215 833 l 1,22,-1
 322 940 l 1,23,-1
 376 886 l 1,24,-1
 269 779 l 1,25,-1
 269 779 l 1,21,-1
EndSplineSet
Validated: 5
EndChar

StartChar: ohungarumlaut
Encoding: 337 337 274
Width: 537
GlyphClass: 2
Flags: MW
LayerCount: 2
Fore
SplineSet
242 81 m 1,0,-1
 322 161 l 1,1,-1
 322 403 l 1,2,-1
 242 483 l 1,3,-1
 161 483 l 1,4,-1
 81 403 l 1,5,-1
 81 161 l 1,6,-1
 161 81 l 1,7,-1
 242 81 l 1,0,-1
134 0 m 1,8,-1
 0 134 l 1,9,-1
 0 430 l 1,10,-1
 134 564 l 1,11,-1
 269 564 l 1,12,-1
 403 430 l 1,13,-1
 403 134 l 1,14,-1
 269 0 l 1,15,-1
 134 0 l 1,8,-1
107 618 m 1,16,-1
 54 671 l 1,17,-1
 161 779 l 1,18,-1
 215 725 l 1,19,-1
 107 618 l 1,20,-1
 107 618 l 1,16,-1
269 618 m 1,21,-1
 215 671 l 1,22,-1
 322 779 l 1,23,-1
 376 725 l 1,24,-1
 269 618 l 1,25,-1
 269 618 l 1,21,-1
EndSplineSet
Validated: 5
EndChar

StartChar: OE
Encoding: 338 338 275
Width: 537
GlyphClass: 2
Flags: MW
LayerCount: 2
Fore
SplineSet
121 94 m 1,0,-1
 188 161 l 1,1,-1
 188 564 l 1,2,-1
 134 618 l 1,3,-1
 134 618 l 1,4,-1
 121 631 l 1,5,-1
 81 591 l 1,6,-1
 81 134 l 1,7,-1
 107 107 l 1,8,-1
 107 106 l 1,9,-1
 121 94 l 1,10,-1
 121 94 l 1,0,-1
107 0 m 1,11,-1
 0 107 l 1,12,-1
 0 618 l 1,13,-1
 107 725 l 1,14,-1
 134 725 l 1,15,-1
 188 671 l 1,16,-1
 188 725 l 1,17,-1
 403 725 l 1,18,-1
 403 645 l 1,19,-1
 269 645 l 1,20,-1
 269 403 l 1,21,-1
 349 403 l 1,22,-1
 349 322 l 1,23,-1
 269 322 l 1,24,-1
 269 81 l 1,25,-1
 403 81 l 1,26,-1
 403 0 l 1,27,-1
 188 0 l 1,28,-1
 188 54 l 1,29,-1
 134 0 l 1,30,-1
 107 0 l 1,11,-1
EndSplineSet
Validated: 5
EndChar

StartChar: oe
Encoding: 339 339 276
Width: 537
GlyphClass: 2
Flags: MW
LayerCount: 2
Fore
SplineSet
121 94 m 1,0,-1
 161 134 l 1,1,-1
 161 430 l 1,2,-1
 134 457 l 1,3,-1
 134 457 l 1,4,-1
 121 470 l 1,5,-1
 81 430 l 1,6,-1
 81 134 l 1,7,-1
 107 107 l 1,8,-1
 107 106 l 1,9,-1
 121 94 l 1,10,-1
 121 94 l 1,0,-1
322 349 m 1,11,-1
 322 430 l 1,12,-1
 295 457 l 1,13,-1
 295 457 l 1,14,-1
 282 470 l 1,15,-1
 242 430 l 1,16,-1
 242 349 l 1,17,-1
 322 349 l 1,11,-1
107 0 m 1,18,-1
 0 107 l 1,19,-1
 0 457 l 1,20,-1
 107 564 l 1,21,-1
 134 564 l 1,22,-1
 188 510 l 1,23,-1
 188 509 l 1,24,-1
 201 497 l 1,25,-1
 269 564 l 1,26,-1
 295 564 l 1,27,-1
 403 457 l 1,28,-1
 403 269 l 1,29,-1
 242 269 l 1,30,-1
 242 134 l 1,31,-1
 269 107 l 1,32,-1
 269 106 l 1,33,-1
 282 94 l 1,34,-1
 349 161 l 1,35,-1
 403 107 l 1,36,-1
 295 0 l 1,37,-1
 269 0 l 1,38,-1
 215 54 l 1,39,-1
 215 54 l 1,40,-1
 201 67 l 1,41,-1
 134 0 l 1,42,-1
 107 0 l 1,18,-1
EndSplineSet
Validated: 5
EndChar

StartChar: Racute
Encoding: 340 340 277
Width: 537
GlyphClass: 2
Flags: MW
LayerCount: 2
Fore
SplineSet
242 403 m 1,0,-1
 322 483 l 1,1,-1
 322 564 l 1,2,-1
 242 645 l 1,3,-1
 81 645 l 1,4,-1
 81 403 l 1,5,-1
 242 403 l 1,0,-1
0 0 m 1,6,-1
 0 725 l 1,7,-1
 269 725 l 1,8,-1
 403 591 l 1,9,-1
 403 457 l 1,10,-1
 269 322 l 1,11,-1
 255 322 l 1,12,-1
 403 27 l 1,13,-1
 349 0 l 1,14,-1
 336 0 l 1,15,-1
 175 322 l 1,16,-1
 81 322 l 1,17,-1
 81 0 l 1,18,-1
 0 0 l 1,6,-1
188 779 m 1,19,-1
 134 833 l 1,20,-1
 242 940 l 1,21,-1
 295 886 l 1,22,-1
 188 779 l 1,23,-1
 188 779 l 1,19,-1
EndSplineSet
Validated: 5
EndChar

StartChar: racute
Encoding: 341 341 278
Width: 537
GlyphClass: 2
Flags: MW
LayerCount: 2
Fore
SplineSet
0 0 m 1,0,-1
 0 564 l 1,1,-1
 81 564 l 1,2,-1
 81 483 l 1,3,-1
 161 564 l 1,4,-1
 269 564 l 1,5,-1
 403 430 l 1,6,-1
 349 376 l 1,7,-1
 242 483 l 1,8,-1
 188 483 l 1,9,-1
 81 376 l 1,10,-1
 81 0 l 1,11,-1
 0 0 l 1,0,-1
188 618 m 1,12,-1
 134 671 l 1,13,-1
 242 779 l 1,14,-1
 295 725 l 1,15,-1
 188 618 l 1,16,-1
 188 618 l 1,12,-1
EndSplineSet
Validated: 5
EndChar

StartChar: uni0156
Encoding: 342 342 279
Width: 537
GlyphClass: 2
Flags: MW
LayerCount: 2
Fore
SplineSet
161 -161 m 1,0,-1
 107 -107 l 1,1,-1
 161 -54 l 1,2,-1
 161 54 l 1,3,-1
 242 54 l 1,4,-1
 242 -81 l 1,5,-1
 161 -161 l 1,6,-1
 161 -161 l 1,0,-1
242 403 m 1,7,-1
 322 483 l 1,8,-1
 322 564 l 1,9,-1
 242 645 l 1,10,-1
 81 645 l 1,11,-1
 81 403 l 1,12,-1
 242 403 l 1,7,-1
0 0 m 1,13,-1
 0 725 l 1,14,-1
 269 725 l 1,15,-1
 403 591 l 1,16,-1
 403 457 l 1,17,-1
 269 322 l 1,18,-1
 255 322 l 1,19,-1
 403 27 l 1,20,-1
 349 0 l 1,21,-1
 336 0 l 1,22,-1
 175 322 l 1,23,-1
 81 322 l 1,24,-1
 81 0 l 1,25,-1
 0 0 l 1,13,-1
EndSplineSet
Validated: 5
EndChar

StartChar: uni0157
Encoding: 343 343 280
Width: 537
GlyphClass: 2
Flags: MW
LayerCount: 2
Fore
SplineSet
54 -161 m 1,0,-1
 0 -107 l 1,1,-1
 54 -54 l 1,2,-1
 54 0 l 1,3,-1
 0 0 l 1,4,-1
 0 564 l 1,5,-1
 81 564 l 1,6,-1
 81 483 l 1,7,-1
 161 564 l 1,8,-1
 269 564 l 1,9,-1
 403 430 l 1,10,-1
 349 376 l 1,11,-1
 242 483 l 1,12,-1
 188 483 l 1,13,-1
 81 376 l 1,14,-1
 81 54 l 1,15,-1
 134 54 l 1,16,-1
 134 -81 l 1,17,-1
 54 -161 l 1,18,-1
 54 -161 l 1,0,-1
EndSplineSet
Validated: 5
EndChar

StartChar: Rcaron
Encoding: 344 344 281
Width: 537
GlyphClass: 2
Flags: MW
LayerCount: 2
Fore
SplineSet
242 403 m 1,0,-1
 322 483 l 1,1,-1
 322 564 l 1,2,-1
 242 645 l 1,3,-1
 81 645 l 1,4,-1
 81 403 l 1,5,-1
 242 403 l 1,0,-1
0 0 m 1,6,-1
 0 725 l 1,7,-1
 269 725 l 1,8,-1
 403 591 l 1,9,-1
 403 457 l 1,10,-1
 269 322 l 1,11,-1
 255 322 l 1,12,-1
 403 27 l 1,13,-1
 349 0 l 1,14,-1
 336 0 l 1,15,-1
 175 322 l 1,16,-1
 81 322 l 1,17,-1
 81 0 l 1,18,-1
 0 0 l 1,6,-1
188 779 m 1,19,-1
 81 886 l 1,20,-1
 134 940 l 1,21,-1
 188 886 l 1,22,-1
 188 885 l 1,23,-1
 201 873 l 1,24,-1
 269 940 l 1,25,-1
 322 886 l 1,26,-1
 215 779 l 1,27,-1
 188 779 l 1,19,-1
EndSplineSet
Validated: 1
EndChar

StartChar: rcaron
Encoding: 345 345 282
Width: 537
GlyphClass: 2
Flags: MW
LayerCount: 2
Fore
SplineSet
0 0 m 1,0,-1
 0 564 l 1,1,-1
 81 564 l 1,2,-1
 81 483 l 1,3,-1
 161 564 l 1,4,-1
 269 564 l 1,5,-1
 403 430 l 1,6,-1
 349 376 l 1,7,-1
 242 483 l 1,8,-1
 188 483 l 1,9,-1
 81 376 l 1,10,-1
 81 0 l 1,11,-1
 0 0 l 1,0,-1
188 618 m 1,12,-1
 81 725 l 1,13,-1
 134 779 l 1,14,-1
 188 725 l 1,15,-1
 188 724 l 1,16,-1
 201 712 l 1,17,-1
 269 779 l 1,18,-1
 322 725 l 1,19,-1
 215 618 l 1,20,-1
 188 618 l 1,12,-1
EndSplineSet
Validated: 1
EndChar

StartChar: Sacute
Encoding: 346 346 283
Width: 537
GlyphClass: 2
Flags: MW
LayerCount: 2
Fore
SplineSet
134 0 m 1,0,-1
 0 134 l 1,1,-1
 54 188 l 1,2,-1
 161 81 l 1,3,-1
 242 81 l 1,4,-1
 322 161 l 1,5,-1
 322 242 l 1,6,-1
 242 322 l 1,7,-1
 134 322 l 1,8,-1
 0 457 l 1,9,-1
 0 591 l 1,10,-1
 134 725 l 1,11,-1
 269 725 l 1,12,-1
 403 591 l 1,13,-1
 349 537 l 1,14,-1
 242 645 l 1,15,-1
 161 645 l 1,16,-1
 81 564 l 1,17,-1
 81 483 l 1,18,-1
 161 403 l 1,19,-1
 269 403 l 1,20,-1
 403 269 l 1,21,-1
 403 134 l 1,22,-1
 269 0 l 1,23,-1
 134 0 l 1,0,-1
188 779 m 1,24,-1
 134 833 l 1,25,-1
 242 940 l 1,26,-1
 295 886 l 1,27,-1
 188 779 l 1,28,-1
 188 779 l 1,24,-1
EndSplineSet
Validated: 5
EndChar

StartChar: sacute
Encoding: 347 347 284
Width: 537
GlyphClass: 2
Flags: MW
LayerCount: 2
Fore
SplineSet
134 0 m 1,0,-1
 0 134 l 1,1,-1
 54 188 l 1,2,-1
 161 81 l 1,3,-1
 242 81 l 1,4,-1
 322 161 l 1,5,-1
 242 242 l 1,6,-1
 134 242 l 1,7,-1
 0 376 l 1,8,-1
 0 430 l 1,9,-1
 134 564 l 1,10,-1
 269 564 l 1,11,-1
 403 430 l 1,12,-1
 349 376 l 1,13,-1
 242 483 l 1,14,-1
 161 483 l 1,15,-1
 81 403 l 1,16,-1
 161 322 l 1,17,-1
 269 322 l 1,18,-1
 403 188 l 1,19,-1
 403 134 l 1,20,-1
 269 0 l 1,21,-1
 134 0 l 1,0,-1
188 618 m 1,22,-1
 134 671 l 1,23,-1
 242 779 l 1,24,-1
 295 725 l 1,25,-1
 188 618 l 1,26,-1
 188 618 l 1,22,-1
EndSplineSet
Validated: 5
EndChar

StartChar: Scircumflex
Encoding: 348 348 285
Width: 537
GlyphClass: 2
Flags: MW
LayerCount: 2
Fore
SplineSet
134 0 m 1,0,-1
 0 134 l 1,1,-1
 54 188 l 1,2,-1
 161 81 l 1,3,-1
 242 81 l 1,4,-1
 322 161 l 1,5,-1
 322 242 l 1,6,-1
 242 322 l 1,7,-1
 134 322 l 1,8,-1
 0 457 l 1,9,-1
 0 591 l 1,10,-1
 134 725 l 1,11,-1
 269 725 l 1,12,-1
 403 591 l 1,13,-1
 349 537 l 1,14,-1
 242 645 l 1,15,-1
 161 645 l 1,16,-1
 81 564 l 1,17,-1
 81 483 l 1,18,-1
 161 403 l 1,19,-1
 269 403 l 1,20,-1
 403 269 l 1,21,-1
 403 134 l 1,22,-1
 269 0 l 1,23,-1
 134 0 l 1,0,-1
134 779 m 1,24,-1
 81 833 l 1,25,-1
 188 940 l 1,26,-1
 215 940 l 1,27,-1
 322 833 l 1,28,-1
 269 779 l 1,29,-1
 215 833 l 1,30,-1
 215 833 l 1,31,-1
 201 846 l 1,32,-1
 134 779 l 1,33,-1
 134 779 l 1,24,-1
EndSplineSet
Validated: 5
EndChar

StartChar: scircumflex
Encoding: 349 349 286
Width: 537
GlyphClass: 2
Flags: MW
LayerCount: 2
Fore
SplineSet
134 0 m 1,0,-1
 0 134 l 1,1,-1
 54 188 l 1,2,-1
 161 81 l 1,3,-1
 242 81 l 1,4,-1
 322 161 l 1,5,-1
 242 242 l 1,6,-1
 134 242 l 1,7,-1
 0 376 l 1,8,-1
 0 430 l 1,9,-1
 134 564 l 1,10,-1
 269 564 l 1,11,-1
 403 430 l 1,12,-1
 349 376 l 1,13,-1
 242 483 l 1,14,-1
 161 483 l 1,15,-1
 81 403 l 1,16,-1
 161 322 l 1,17,-1
 269 322 l 1,18,-1
 403 188 l 1,19,-1
 403 134 l 1,20,-1
 269 0 l 1,21,-1
 134 0 l 1,0,-1
134 618 m 1,22,-1
 81 671 l 1,23,-1
 188 779 l 1,24,-1
 215 779 l 1,25,-1
 322 671 l 1,26,-1
 269 618 l 1,27,-1
 215 671 l 1,28,-1
 215 671 l 1,29,-1
 201 685 l 1,30,-1
 134 618 l 1,31,-1
 134 618 l 1,22,-1
EndSplineSet
Validated: 5
EndChar

StartChar: Scedilla
Encoding: 350 350 287
Width: 537
GlyphClass: 2
Flags: MW
LayerCount: 2
Fore
SplineSet
161 -161 m 1,0,-1
 107 -107 l 1,1,-1
 161 -54 l 1,2,-1
 161 0 l 1,3,-1
 134 0 l 1,4,-1
 0 134 l 1,5,-1
 54 188 l 1,6,-1
 161 81 l 1,7,-1
 242 81 l 1,8,-1
 322 161 l 1,9,-1
 322 242 l 1,10,-1
 242 322 l 1,11,-1
 134 322 l 1,12,-1
 0 457 l 1,13,-1
 0 591 l 1,14,-1
 134 725 l 1,15,-1
 269 725 l 1,16,-1
 403 591 l 1,17,-1
 349 537 l 1,18,-1
 242 645 l 1,19,-1
 161 645 l 1,20,-1
 81 564 l 1,21,-1
 81 483 l 1,22,-1
 161 403 l 1,23,-1
 269 403 l 1,24,-1
 403 269 l 1,25,-1
 403 134 l 1,26,-1
 269 0 l 1,27,-1
 242 0 l 1,28,-1
 242 -81 l 1,29,-1
 161 -161 l 1,30,-1
 161 -161 l 1,0,-1
EndSplineSet
Validated: 5
EndChar

StartChar: scedilla
Encoding: 351 351 288
Width: 537
GlyphClass: 2
Flags: MW
LayerCount: 2
Fore
SplineSet
161 -161 m 1,0,-1
 107 -107 l 1,1,-1
 161 -54 l 1,2,-1
 161 0 l 1,3,-1
 134 0 l 1,4,-1
 0 134 l 1,5,-1
 54 188 l 1,6,-1
 161 81 l 1,7,-1
 242 81 l 1,8,-1
 322 161 l 1,9,-1
 242 242 l 1,10,-1
 134 242 l 1,11,-1
 0 376 l 1,12,-1
 0 430 l 1,13,-1
 134 564 l 1,14,-1
 269 564 l 1,15,-1
 403 430 l 1,16,-1
 349 376 l 1,17,-1
 242 483 l 1,18,-1
 161 483 l 1,19,-1
 81 403 l 1,20,-1
 161 322 l 1,21,-1
 269 322 l 1,22,-1
 403 188 l 1,23,-1
 403 134 l 1,24,-1
 269 0 l 1,25,-1
 242 0 l 1,26,-1
 242 -81 l 1,27,-1
 161 -161 l 1,28,-1
 161 -161 l 1,0,-1
EndSplineSet
Validated: 5
EndChar

StartChar: Scaron
Encoding: 352 352 289
Width: 537
GlyphClass: 2
Flags: MW
LayerCount: 2
Fore
SplineSet
134 0 m 1,0,-1
 0 134 l 1,1,-1
 54 188 l 1,2,-1
 161 81 l 1,3,-1
 242 81 l 1,4,-1
 322 161 l 1,5,-1
 322 242 l 1,6,-1
 242 322 l 1,7,-1
 134 322 l 1,8,-1
 0 457 l 1,9,-1
 0 591 l 1,10,-1
 134 725 l 1,11,-1
 269 725 l 1,12,-1
 403 591 l 1,13,-1
 349 537 l 1,14,-1
 242 645 l 1,15,-1
 161 645 l 1,16,-1
 81 564 l 1,17,-1
 81 483 l 1,18,-1
 161 403 l 1,19,-1
 269 403 l 1,20,-1
 403 269 l 1,21,-1
 403 134 l 1,22,-1
 269 0 l 1,23,-1
 134 0 l 1,0,-1
188 779 m 1,24,-1
 81 886 l 1,25,-1
 134 940 l 1,26,-1
 188 886 l 1,27,-1
 188 885 l 1,28,-1
 201 873 l 1,29,-1
 269 940 l 1,30,-1
 322 886 l 1,31,-1
 215 779 l 1,32,-1
 188 779 l 1,24,-1
EndSplineSet
Validated: 1
EndChar

StartChar: scaron
Encoding: 353 353 290
Width: 537
GlyphClass: 2
Flags: MW
LayerCount: 2
Fore
SplineSet
134 0 m 1,0,-1
 0 134 l 1,1,-1
 54 188 l 1,2,-1
 161 81 l 1,3,-1
 242 81 l 1,4,-1
 322 161 l 1,5,-1
 242 242 l 1,6,-1
 134 242 l 1,7,-1
 0 376 l 1,8,-1
 0 430 l 1,9,-1
 134 564 l 1,10,-1
 269 564 l 1,11,-1
 403 430 l 1,12,-1
 349 376 l 1,13,-1
 242 483 l 1,14,-1
 161 483 l 1,15,-1
 81 403 l 1,16,-1
 161 322 l 1,17,-1
 269 322 l 1,18,-1
 403 188 l 1,19,-1
 403 134 l 1,20,-1
 269 0 l 1,21,-1
 134 0 l 1,0,-1
188 618 m 1,22,-1
 81 725 l 1,23,-1
 134 779 l 1,24,-1
 188 725 l 1,25,-1
 188 724 l 1,26,-1
 201 712 l 1,27,-1
 269 779 l 1,28,-1
 322 725 l 1,29,-1
 215 618 l 1,30,-1
 188 618 l 1,22,-1
EndSplineSet
Validated: 1
EndChar

StartChar: uni0162
Encoding: 354 354 291
Width: 537
GlyphClass: 2
Flags: MW
LayerCount: 2
Fore
SplineSet
215 -161 m 1,0,-1
 161 -107 l 1,1,-1
 215 -54 l 1,2,-1
 215 0 l 1,3,-1
 161 0 l 1,4,-1
 161 645 l 1,5,-1
 0 645 l 1,6,-1
 0 725 l 1,7,-1
 403 725 l 1,8,-1
 403 645 l 1,9,-1
 242 645 l 1,10,-1
 242 54 l 1,11,-1
 295 54 l 1,12,-1
 295 -81 l 1,13,-1
 215 -161 l 1,14,-1
 215 -161 l 1,0,-1
EndSplineSet
Validated: 5
EndChar

StartChar: uni0163
Encoding: 355 355 292
Width: 537
GlyphClass: 2
Flags: MW
LayerCount: 2
Fore
SplineSet
188 -161 m 1,0,-1
 134 -107 l 1,1,-1
 188 -54 l 1,2,-1
 188 0 l 1,3,-1
 81 107 l 1,4,-1
 81 483 l 1,5,-1
 0 483 l 1,6,-1
 0 564 l 1,7,-1
 81 564 l 1,8,-1
 81 645 l 1,9,-1
 161 645 l 1,10,-1
 161 564 l 1,11,-1
 322 564 l 1,12,-1
 322 483 l 1,13,-1
 161 483 l 1,14,-1
 161 134 l 1,15,-1
 215 81 l 1,16,-1
 242 81 l 1,17,-1
 322 161 l 1,18,-1
 376 107 l 1,19,-1
 269 0 l 1,20,-1
 269 -81 l 1,21,-1
 188 -161 l 1,22,-1
 188 -161 l 1,0,-1
EndSplineSet
Validated: 5
EndChar

StartChar: Tcaron
Encoding: 356 356 293
Width: 537
GlyphClass: 2
Flags: MW
LayerCount: 2
Fore
SplineSet
161 0 m 1,0,-1
 161 645 l 1,1,-1
 0 645 l 1,2,-1
 0 725 l 1,3,-1
 403 725 l 1,4,-1
 403 645 l 1,5,-1
 242 645 l 1,6,-1
 242 0 l 1,7,-1
 161 0 l 1,0,-1
188 779 m 1,8,-1
 81 886 l 1,9,-1
 134 940 l 1,10,-1
 188 886 l 1,11,-1
 188 885 l 1,12,-1
 201 873 l 1,13,-1
 269 940 l 1,14,-1
 322 886 l 1,15,-1
 215 779 l 1,16,-1
 188 779 l 1,8,-1
EndSplineSet
Validated: 1
EndChar

StartChar: tcaron
Encoding: 357 357 294
Width: 537
GlyphClass: 2
Flags: MW
LayerCount: 2
Fore
SplineSet
188 0 m 1,0,-1
 81 107 l 1,1,-1
 81 483 l 1,2,-1
 0 483 l 1,3,-1
 0 564 l 1,4,-1
 81 564 l 1,5,-1
 81 645 l 1,6,-1
 161 645 l 1,7,-1
 161 564 l 1,8,-1
 242 564 l 1,9,-1
 242 483 l 1,10,-1
 161 483 l 1,11,-1
 161 134 l 1,12,-1
 215 81 l 1,13,-1
 242 81 l 1,14,-1
 322 161 l 1,15,-1
 376 107 l 1,16,-1
 269 0 l 1,17,-1
 188 0 l 1,0,-1
322 457 m 1,18,-1
 269 510 l 1,19,-1
 322 564 l 1,20,-1
 322 591 l 1,21,-1
 269 591 l 1,22,-1
 269 725 l 1,23,-1
 403 725 l 1,24,-1
 403 537 l 1,25,-1
 322 457 l 1,26,-1
 322 457 l 1,18,-1
EndSplineSet
Validated: 5
EndChar

StartChar: Tbar
Encoding: 358 358 295
Width: 537
GlyphClass: 2
Flags: MW
LayerCount: 2
Fore
SplineSet
161 0 m 1,0,-1
 161 322 l 1,1,-1
 54 322 l 1,2,-1
 54 403 l 1,3,-1
 161 403 l 1,4,-1
 161 645 l 1,5,-1
 0 645 l 1,6,-1
 0 725 l 1,7,-1
 403 725 l 1,8,-1
 403 645 l 1,9,-1
 242 645 l 1,10,-1
 242 403 l 1,11,-1
 349 403 l 1,12,-1
 349 322 l 1,13,-1
 242 322 l 1,14,-1
 242 0 l 1,15,-1
 161 0 l 1,0,-1
EndSplineSet
Validated: 1
EndChar

StartChar: tbar
Encoding: 359 359 296
Width: 537
GlyphClass: 2
Flags: MW
LayerCount: 2
Fore
SplineSet
188 0 m 1,0,-1
 81 107 l 1,1,-1
 81 242 l 1,2,-1
 0 242 l 1,3,-1
 0 322 l 1,4,-1
 81 322 l 1,5,-1
 81 483 l 1,6,-1
 0 483 l 1,7,-1
 0 564 l 1,8,-1
 81 564 l 1,9,-1
 81 645 l 1,10,-1
 161 645 l 1,11,-1
 161 564 l 1,12,-1
 322 564 l 1,13,-1
 322 483 l 1,14,-1
 161 483 l 1,15,-1
 161 322 l 1,16,-1
 269 322 l 1,17,-1
 269 242 l 1,18,-1
 161 242 l 1,19,-1
 161 134 l 1,20,-1
 215 81 l 1,21,-1
 242 81 l 1,22,-1
 322 161 l 1,23,-1
 376 107 l 1,24,-1
 269 0 l 1,25,-1
 188 0 l 1,0,-1
EndSplineSet
Validated: 1
EndChar

StartChar: Utilde
Encoding: 360 360 297
Width: 537
GlyphClass: 2
Flags: MW
LayerCount: 2
Fore
SplineSet
134 0 m 1,0,-1
 0 134 l 1,1,-1
 0 725 l 1,2,-1
 81 725 l 1,3,-1
 81 161 l 1,4,-1
 161 81 l 1,5,-1
 242 81 l 1,6,-1
 322 161 l 1,7,-1
 322 725 l 1,8,-1
 403 725 l 1,9,-1
 403 134 l 1,10,-1
 269 0 l 1,11,-1
 134 0 l 1,0,-1
81 779 m 1,12,-1
 27 833 l 1,13,-1
 107 913 l 1,14,-1
 188 913 l 1,15,-1
 242 859 l 1,16,-1
 269 859 l 1,17,-1
 322 913 l 1,18,-1
 376 859 l 1,19,-1
 295 779 l 1,20,-1
 215 779 l 1,21,-1
 161 833 l 1,22,-1
 134 833 l 1,23,-1
 81 779 l 1,24,-1
 81 779 l 1,12,-1
EndSplineSet
Validated: 5
EndChar

StartChar: utilde
Encoding: 361 361 298
Width: 537
GlyphClass: 2
Flags: MW
LayerCount: 2
Fore
SplineSet
134 0 m 1,0,-1
 0 134 l 1,1,-1
 0 564 l 1,2,-1
 81 564 l 1,3,-1
 81 161 l 1,4,-1
 161 81 l 1,5,-1
 215 81 l 1,6,-1
 322 188 l 1,7,-1
 322 564 l 1,8,-1
 403 564 l 1,9,-1
 403 0 l 1,10,-1
 322 0 l 1,11,-1
 322 81 l 1,12,-1
 242 0 l 1,13,-1
 134 0 l 1,0,-1
81 618 m 1,14,-1
 27 671 l 1,15,-1
 107 752 l 1,16,-1
 188 752 l 1,17,-1
 242 698 l 1,18,-1
 269 698 l 1,19,-1
 322 752 l 1,20,-1
 376 698 l 1,21,-1
 295 618 l 1,22,-1
 215 618 l 1,23,-1
 161 671 l 1,24,-1
 134 671 l 1,25,-1
 81 618 l 1,26,-1
 81 618 l 1,14,-1
EndSplineSet
Validated: 5
EndChar

StartChar: Umacron
Encoding: 362 362 299
Width: 537
GlyphClass: 2
Flags: MW
LayerCount: 2
Fore
SplineSet
134 0 m 1,0,-1
 0 134 l 1,1,-1
 0 725 l 1,2,-1
 81 725 l 1,3,-1
 81 161 l 1,4,-1
 161 81 l 1,5,-1
 242 81 l 1,6,-1
 322 161 l 1,7,-1
 322 725 l 1,8,-1
 403 725 l 1,9,-1
 403 134 l 1,10,-1
 269 0 l 1,11,-1
 134 0 l 1,0,-1
54 806 m 1,12,-1
 54 886 l 1,13,-1
 349 886 l 1,14,-1
 349 806 l 1,15,-1
 54 806 l 1,12,-1
EndSplineSet
Validated: 1
EndChar

StartChar: umacron
Encoding: 363 363 300
Width: 537
GlyphClass: 2
Flags: MW
LayerCount: 2
Fore
SplineSet
134 0 m 1,0,-1
 0 134 l 1,1,-1
 0 564 l 1,2,-1
 81 564 l 1,3,-1
 81 161 l 1,4,-1
 161 81 l 1,5,-1
 215 81 l 1,6,-1
 322 188 l 1,7,-1
 322 564 l 1,8,-1
 403 564 l 1,9,-1
 403 0 l 1,10,-1
 322 0 l 1,11,-1
 322 81 l 1,12,-1
 242 0 l 1,13,-1
 134 0 l 1,0,-1
54 645 m 1,14,-1
 54 725 l 1,15,-1
 349 725 l 1,16,-1
 349 645 l 1,17,-1
 54 645 l 1,14,-1
EndSplineSet
Validated: 1
EndChar

StartChar: Ubreve
Encoding: 364 364 301
Width: 537
GlyphClass: 2
Flags: MW
LayerCount: 2
Fore
SplineSet
134 0 m 1,0,-1
 0 134 l 1,1,-1
 0 725 l 1,2,-1
 81 725 l 1,3,-1
 81 161 l 1,4,-1
 161 81 l 1,5,-1
 242 81 l 1,6,-1
 322 161 l 1,7,-1
 322 725 l 1,8,-1
 403 725 l 1,9,-1
 403 134 l 1,10,-1
 269 0 l 1,11,-1
 134 0 l 1,0,-1
134 779 m 1,12,-1
 54 859 l 1,13,-1
 107 913 l 1,14,-1
 161 859 l 1,15,-1
 242 859 l 1,16,-1
 295 913 l 1,17,-1
 349 859 l 1,18,-1
 269 779 l 1,19,-1
 134 779 l 1,12,-1
EndSplineSet
Validated: 1
EndChar

StartChar: ubreve
Encoding: 365 365 302
Width: 537
GlyphClass: 2
Flags: MW
LayerCount: 2
Fore
SplineSet
134 0 m 1,0,-1
 0 134 l 1,1,-1
 0 564 l 1,2,-1
 81 564 l 1,3,-1
 81 161 l 1,4,-1
 161 81 l 1,5,-1
 215 81 l 1,6,-1
 322 188 l 1,7,-1
 322 564 l 1,8,-1
 403 564 l 1,9,-1
 403 0 l 1,10,-1
 322 0 l 1,11,-1
 322 81 l 1,12,-1
 242 0 l 1,13,-1
 134 0 l 1,0,-1
134 618 m 1,14,-1
 54 698 l 1,15,-1
 107 752 l 1,16,-1
 161 698 l 1,17,-1
 242 698 l 1,18,-1
 295 752 l 1,19,-1
 349 698 l 1,20,-1
 269 618 l 1,21,-1
 134 618 l 1,14,-1
EndSplineSet
Validated: 1
EndChar

StartChar: Uring
Encoding: 366 366 303
Width: 537
GlyphClass: 2
Flags: MW
LayerCount: 2
Fore
SplineSet
134 0 m 1,0,-1
 0 134 l 1,1,-1
 0 725 l 1,2,-1
 81 725 l 1,3,-1
 81 161 l 1,4,-1
 161 81 l 1,5,-1
 242 81 l 1,6,-1
 322 161 l 1,7,-1
 322 725 l 1,8,-1
 403 725 l 1,9,-1
 403 134 l 1,10,-1
 269 0 l 1,11,-1
 134 0 l 1,0,-1
215 752 m 1,12,-1
 242 779 l 1,13,-1
 242 806 l 1,14,-1
 215 833 l 1,15,-1
 188 833 l 1,16,-1
 161 806 l 1,17,-1
 161 779 l 1,18,-1
 188 752 l 1,19,-1
 215 752 l 1,12,-1
161 698 m 1,20,-1
 107 752 l 1,21,-1
 107 833 l 1,22,-1
 161 886 l 1,23,-1
 242 886 l 1,24,-1
 295 833 l 1,25,-1
 295 752 l 1,26,-1
 242 698 l 1,27,-1
 161 698 l 1,20,-1
EndSplineSet
Validated: 1
EndChar

StartChar: uring
Encoding: 367 367 304
Width: 537
GlyphClass: 2
Flags: MW
LayerCount: 2
Fore
SplineSet
134 0 m 1,0,-1
 0 134 l 1,1,-1
 0 564 l 1,2,-1
 81 564 l 1,3,-1
 81 161 l 1,4,-1
 161 81 l 1,5,-1
 215 81 l 1,6,-1
 322 188 l 1,7,-1
 322 564 l 1,8,-1
 403 564 l 1,9,-1
 403 0 l 1,10,-1
 322 0 l 1,11,-1
 322 81 l 1,12,-1
 242 0 l 1,13,-1
 134 0 l 1,0,-1
215 671 m 1,14,-1
 242 698 l 1,15,-1
 242 725 l 1,16,-1
 215 752 l 1,17,-1
 188 752 l 1,18,-1
 161 725 l 1,19,-1
 161 698 l 1,20,-1
 188 671 l 1,21,-1
 215 671 l 1,14,-1
161 618 m 1,22,-1
 107 671 l 1,23,-1
 107 752 l 1,24,-1
 161 806 l 1,25,-1
 242 806 l 1,26,-1
 295 752 l 1,27,-1
 295 671 l 1,28,-1
 242 618 l 1,29,-1
 161 618 l 1,22,-1
EndSplineSet
Validated: 1
EndChar

StartChar: Uhungarumlaut
Encoding: 368 368 305
Width: 537
GlyphClass: 2
Flags: MW
LayerCount: 2
Fore
SplineSet
134 0 m 1,0,-1
 0 134 l 1,1,-1
 0 725 l 1,2,-1
 81 725 l 1,3,-1
 81 161 l 1,4,-1
 161 81 l 1,5,-1
 242 81 l 1,6,-1
 322 161 l 1,7,-1
 322 725 l 1,8,-1
 403 725 l 1,9,-1
 403 134 l 1,10,-1
 269 0 l 1,11,-1
 134 0 l 1,0,-1
107 779 m 1,12,-1
 54 833 l 1,13,-1
 161 940 l 1,14,-1
 215 886 l 1,15,-1
 107 779 l 1,16,-1
 107 779 l 1,12,-1
269 779 m 1,17,-1
 215 833 l 1,18,-1
 322 940 l 1,19,-1
 376 886 l 1,20,-1
 269 779 l 1,21,-1
 269 779 l 1,17,-1
EndSplineSet
Validated: 5
EndChar

StartChar: uhungarumlaut
Encoding: 369 369 306
Width: 537
GlyphClass: 2
Flags: MW
LayerCount: 2
Fore
SplineSet
134 0 m 1,0,-1
 0 134 l 1,1,-1
 0 564 l 1,2,-1
 81 564 l 1,3,-1
 81 161 l 1,4,-1
 161 81 l 1,5,-1
 215 81 l 1,6,-1
 322 188 l 1,7,-1
 322 564 l 1,8,-1
 403 564 l 1,9,-1
 403 0 l 1,10,-1
 322 0 l 1,11,-1
 322 81 l 1,12,-1
 242 0 l 1,13,-1
 134 0 l 1,0,-1
107 618 m 1,14,-1
 54 671 l 1,15,-1
 161 779 l 1,16,-1
 215 725 l 1,17,-1
 107 618 l 1,18,-1
 107 618 l 1,14,-1
269 618 m 1,19,-1
 215 671 l 1,20,-1
 322 779 l 1,21,-1
 376 725 l 1,22,-1
 269 618 l 1,23,-1
 269 618 l 1,19,-1
EndSplineSet
Validated: 5
EndChar

StartChar: Uogonek
Encoding: 370 370 307
Width: 537
GlyphClass: 2
Flags: MW
LayerCount: 2
Fore
SplineSet
242 -161 m 1,0,-1
 161 -81 l 1,1,-1
 161 -54 l 1,2,-1
 188 0 l 1,3,-1
 134 0 l 1,4,-1
 0 134 l 1,5,-1
 0 725 l 1,6,-1
 81 725 l 1,7,-1
 81 161 l 1,8,-1
 161 81 l 1,9,-1
 242 81 l 1,10,-1
 322 161 l 1,11,-1
 322 725 l 1,12,-1
 403 725 l 1,13,-1
 403 134 l 1,14,-1
 269 0 l 1,15,-1
 242 -54 l 1,16,-1
 295 -107 l 1,17,-1
 242 -161 l 1,18,-1
 242 -161 l 1,0,-1
EndSplineSet
Validated: 5
EndChar

StartChar: uogonek
Encoding: 371 371 308
Width: 537
GlyphClass: 2
Flags: MW
LayerCount: 2
Fore
SplineSet
349 -161 m 1,0,-1
 269 -81 l 1,1,-1
 269 -54 l 1,2,-1
 322 54 l 1,3,-1
 322 81 l 1,4,-1
 242 0 l 1,5,-1
 134 0 l 1,6,-1
 0 134 l 1,7,-1
 0 564 l 1,8,-1
 81 564 l 1,9,-1
 81 161 l 1,10,-1
 161 81 l 1,11,-1
 215 81 l 1,12,-1
 322 188 l 1,13,-1
 322 564 l 1,14,-1
 403 564 l 1,15,-1
 403 0 l 1,16,-1
 376 0 l 1,17,-1
 349 -54 l 1,18,-1
 403 -107 l 1,19,-1
 349 -161 l 1,20,-1
 349 -161 l 1,0,-1
EndSplineSet
Validated: 5
EndChar

StartChar: Wcircumflex
Encoding: 372 372 309
Width: 537
GlyphClass: 2
Flags: MW
LayerCount: 2
Fore
SplineSet
0 0 m 1,0,-1
 0 725 l 1,1,-1
 81 725 l 1,2,-1
 81 188 l 1,3,-1
 175 376 l 1,4,-1
 228 376 l 1,5,-1
 322 188 l 1,6,-1
 322 725 l 1,7,-1
 403 725 l 1,8,-1
 403 0 l 1,9,-1
 336 0 l 1,10,-1
 201 269 l 1,11,-1
 67 0 l 1,12,-1
 0 0 l 1,0,-1
134 779 m 1,13,-1
 81 833 l 1,14,-1
 188 940 l 1,15,-1
 215 940 l 1,16,-1
 322 833 l 1,17,-1
 269 779 l 1,18,-1
 215 833 l 1,19,-1
 215 833 l 1,20,-1
 201 846 l 1,21,-1
 134 779 l 1,22,-1
 134 779 l 1,13,-1
EndSplineSet
Validated: 5
EndChar

StartChar: wcircumflex
Encoding: 373 373 310
Width: 537
GlyphClass: 2
Flags: MW
LayerCount: 2
Fore
SplineSet
0 0 m 1,0,-1
 0 564 l 1,1,-1
 81 564 l 1,2,-1
 81 188 l 1,3,-1
 175 376 l 1,4,-1
 228 376 l 1,5,-1
 322 188 l 1,6,-1
 322 564 l 1,7,-1
 403 564 l 1,8,-1
 403 0 l 1,9,-1
 336 0 l 1,10,-1
 201 269 l 1,11,-1
 67 0 l 1,12,-1
 0 0 l 1,0,-1
134 618 m 1,13,-1
 81 671 l 1,14,-1
 188 779 l 1,15,-1
 215 779 l 1,16,-1
 322 671 l 1,17,-1
 269 618 l 1,18,-1
 215 671 l 1,19,-1
 215 671 l 1,20,-1
 201 685 l 1,21,-1
 134 618 l 1,22,-1
 134 618 l 1,13,-1
EndSplineSet
Validated: 5
EndChar

StartChar: Ycircumflex
Encoding: 374 374 311
Width: 537
GlyphClass: 2
Flags: MW
LayerCount: 2
Fore
SplineSet
161 0 m 1,0,-1
 161 376 l 1,1,-1
 0 698 l 1,2,-1
 54 725 l 1,3,-1
 67 725 l 1,4,-1
 201 457 l 1,5,-1
 336 725 l 1,6,-1
 349 725 l 1,7,-1
 403 698 l 1,8,-1
 242 376 l 1,9,-1
 242 0 l 1,10,-1
 161 0 l 1,0,-1
134 779 m 1,11,-1
 81 833 l 1,12,-1
 188 940 l 1,13,-1
 215 940 l 1,14,-1
 322 833 l 1,15,-1
 269 779 l 1,16,-1
 215 833 l 1,17,-1
 215 833 l 1,18,-1
 201 846 l 1,19,-1
 134 779 l 1,20,-1
 134 779 l 1,11,-1
EndSplineSet
Validated: 5
EndChar

StartChar: ycircumflex
Encoding: 375 375 312
Width: 537
GlyphClass: 2
Flags: MW
LayerCount: 2
Fore
SplineSet
134 -161 m 1,0,-1
 81 -134 l 1,1,-1
 161 27 l 1,2,-1
 0 349 l 1,3,-1
 0 564 l 1,4,-1
 81 564 l 1,5,-1
 81 349 l 1,6,-1
 201 107 l 1,7,-1
 322 349 l 1,8,-1
 322 564 l 1,9,-1
 403 564 l 1,10,-1
 403 349 l 1,11,-1
 148 -161 l 1,12,-1
 134 -161 l 1,0,-1
134 618 m 1,13,-1
 81 671 l 1,14,-1
 188 779 l 1,15,-1
 215 779 l 1,16,-1
 322 671 l 1,17,-1
 269 618 l 1,18,-1
 215 671 l 1,19,-1
 215 671 l 1,20,-1
 201 685 l 1,21,-1
 134 618 l 1,22,-1
 134 618 l 1,13,-1
EndSplineSet
Validated: 5
EndChar

StartChar: Ydieresis
Encoding: 376 376 313
Width: 537
GlyphClass: 2
Flags: MW
LayerCount: 2
Fore
SplineSet
161 0 m 1,0,-1
 161 376 l 1,1,-1
 0 698 l 1,2,-1
 54 725 l 1,3,-1
 67 725 l 1,4,-1
 201 457 l 1,5,-1
 336 725 l 1,6,-1
 349 725 l 1,7,-1
 403 698 l 1,8,-1
 242 376 l 1,9,-1
 242 0 l 1,10,-1
 161 0 l 1,0,-1
54 806 m 1,11,-1
 54 886 l 1,12,-1
 134 886 l 1,13,-1
 134 806 l 1,14,-1
 54 806 l 1,11,-1
269 806 m 1,15,-1
 269 886 l 1,16,-1
 349 886 l 1,17,-1
 349 806 l 1,18,-1
 269 806 l 1,15,-1
EndSplineSet
Validated: 1
EndChar

StartChar: Zacute
Encoding: 377 377 314
Width: 537
GlyphClass: 2
Flags: MW
LayerCount: 2
Fore
SplineSet
0 0 m 1,0,-1
 0 54 l 1,1,-1
 295 645 l 1,2,-1
 0 645 l 1,3,-1
 0 725 l 1,4,-1
 403 725 l 1,5,-1
 403 698 l 1,6,-1
 94 81 l 1,7,-1
 403 81 l 1,8,-1
 403 0 l 1,9,-1
 0 0 l 1,0,-1
188 779 m 1,10,-1
 134 833 l 1,11,-1
 242 940 l 1,12,-1
 295 886 l 1,13,-1
 188 779 l 1,14,-1
 188 779 l 1,10,-1
EndSplineSet
Validated: 5
EndChar

StartChar: zacute
Encoding: 378 378 315
Width: 537
GlyphClass: 2
Flags: MW
LayerCount: 2
Fore
SplineSet
0 0 m 1,0,-1
 0 134 l 1,1,-1
 322 457 l 1,2,-1
 322 483 l 1,3,-1
 0 483 l 1,4,-1
 0 564 l 1,5,-1
 403 564 l 1,6,-1
 403 430 l 1,7,-1
 81 107 l 1,8,-1
 81 81 l 1,9,-1
 403 81 l 1,10,-1
 403 0 l 1,11,-1
 0 0 l 1,0,-1
188 618 m 1,12,-1
 134 671 l 1,13,-1
 242 779 l 1,14,-1
 295 725 l 1,15,-1
 188 618 l 1,16,-1
 188 618 l 1,12,-1
EndSplineSet
Validated: 5
EndChar

StartChar: Zdotaccent
Encoding: 379 379 316
Width: 537
GlyphClass: 2
Flags: MW
LayerCount: 2
Fore
SplineSet
0 0 m 1,0,-1
 0 54 l 1,1,-1
 295 645 l 1,2,-1
 0 645 l 1,3,-1
 0 725 l 1,4,-1
 403 725 l 1,5,-1
 403 698 l 1,6,-1
 94 81 l 1,7,-1
 403 81 l 1,8,-1
 403 0 l 1,9,-1
 0 0 l 1,0,-1
161 806 m 1,10,-1
 161 886 l 1,11,-1
 242 886 l 1,12,-1
 242 806 l 1,13,-1
 161 806 l 1,10,-1
EndSplineSet
Validated: 1
EndChar

StartChar: zdotaccent
Encoding: 380 380 317
Width: 537
GlyphClass: 2
Flags: MW
LayerCount: 2
Fore
SplineSet
0 0 m 1,0,-1
 0 134 l 1,1,-1
 322 457 l 1,2,-1
 322 483 l 1,3,-1
 0 483 l 1,4,-1
 0 564 l 1,5,-1
 403 564 l 1,6,-1
 403 430 l 1,7,-1
 81 107 l 1,8,-1
 81 81 l 1,9,-1
 403 81 l 1,10,-1
 403 0 l 1,11,-1
 0 0 l 1,0,-1
161 645 m 1,12,-1
 161 725 l 1,13,-1
 242 725 l 1,14,-1
 242 645 l 1,15,-1
 161 645 l 1,12,-1
EndSplineSet
Validated: 1
EndChar

StartChar: Zcaron
Encoding: 381 381 318
Width: 537
GlyphClass: 2
Flags: MW
LayerCount: 2
Fore
SplineSet
0 0 m 1,0,-1
 0 54 l 1,1,-1
 295 645 l 1,2,-1
 0 645 l 1,3,-1
 0 725 l 1,4,-1
 403 725 l 1,5,-1
 403 698 l 1,6,-1
 94 81 l 1,7,-1
 403 81 l 1,8,-1
 403 0 l 1,9,-1
 0 0 l 1,0,-1
188 779 m 1,10,-1
 81 886 l 1,11,-1
 134 940 l 1,12,-1
 188 886 l 1,13,-1
 188 885 l 1,14,-1
 201 873 l 1,15,-1
 269 940 l 1,16,-1
 322 886 l 1,17,-1
 215 779 l 1,18,-1
 188 779 l 1,10,-1
EndSplineSet
Validated: 1
EndChar

StartChar: zcaron
Encoding: 382 382 319
Width: 537
GlyphClass: 2
Flags: MW
LayerCount: 2
Fore
SplineSet
0 0 m 1,0,-1
 0 134 l 1,1,-1
 322 457 l 1,2,-1
 322 483 l 1,3,-1
 0 483 l 1,4,-1
 0 564 l 1,5,-1
 403 564 l 1,6,-1
 403 430 l 1,7,-1
 81 107 l 1,8,-1
 81 81 l 1,9,-1
 403 81 l 1,10,-1
 403 0 l 1,11,-1
 0 0 l 1,0,-1
188 618 m 1,12,-1
 81 725 l 1,13,-1
 134 779 l 1,14,-1
 188 725 l 1,15,-1
 188 724 l 1,16,-1
 201 712 l 1,17,-1
 269 779 l 1,18,-1
 322 725 l 1,19,-1
 215 618 l 1,20,-1
 188 618 l 1,12,-1
EndSplineSet
Validated: 1
EndChar

StartChar: longs
Encoding: 383 383 320
Width: 537
GlyphClass: 2
Flags: MW
LayerCount: 2
Fore
SplineSet
81 0 m 1,0,-1
 81 618 l 1,1,-1
 188 725 l 1,2,-1
 295 725 l 1,3,-1
 403 618 l 1,4,-1
 349 564 l 1,5,-1
 269 645 l 1,6,-1
 215 645 l 1,7,-1
 161 591 l 1,8,-1
 161 0 l 1,9,-1
 81 0 l 1,0,-1
EndSplineSet
Validated: 1
EndChar

StartChar: uni0180
Encoding: 384 384 321
Width: 537
GlyphClass: 2
Flags: MW
LayerCount: 2
Fore
SplineSet
242 81 m 1,0,-1
 322 161 l 1,1,-1
 322 403 l 1,2,-1
 242 483 l 1,3,-1
 215 483 l 1,4,-1
 107 376 l 1,5,-1
 107 161 l 1,6,-1
 188 81 l 1,7,-1
 242 81 l 1,0,-1
27 0 m 1,8,-1
 27 618 l 1,9,-1
 -27 618 l 1,10,-1
 -27 698 l 1,11,-1
 27 698 l 1,12,-1
 27 725 l 1,13,-1
 107 725 l 1,14,-1
 107 698 l 1,15,-1
 349 698 l 1,16,-1
 349 618 l 1,17,-1
 107 618 l 1,18,-1
 107 483 l 1,19,-1
 188 564 l 1,20,-1
 269 564 l 1,21,-1
 403 430 l 1,22,-1
 403 134 l 1,23,-1
 269 0 l 1,24,-1
 161 0 l 1,25,-1
 107 54 l 1,26,-1
 107 0 l 1,27,-1
 27 0 l 1,8,-1
EndSplineSet
Validated: 1
EndChar

StartChar: uni0181
Encoding: 385 385 322
Width: 537
GlyphClass: 2
Flags: MW
LayerCount: 2
Fore
SplineSet
242 81 m 1,0,-1
 322 161 l 1,1,-1
 322 242 l 1,2,-1
 242 322 l 1,3,-1
 215 322 l 1,4,-1
 215 81 l 1,5,-1
 242 81 l 1,0,-1
242 403 m 1,6,-1
 322 483 l 1,7,-1
 322 564 l 1,8,-1
 242 645 l 1,9,-1
 215 645 l 1,10,-1
 215 403 l 1,11,-1
 242 403 l 1,6,-1
134 0 m 1,12,-1
 134 645 l 1,13,-1
 107 645 l 1,14,-1
 27 564 l 1,15,-1
 -27 618 l 1,16,-1
 81 725 l 1,17,-1
 269 725 l 1,18,-1
 403 591 l 1,19,-1
 403 457 l 1,20,-1
 322 376 l 1,21,-1
 321 376 l 1,22,-1
 309 363 l 1,23,-1
 403 269 l 1,24,-1
 403 134 l 1,25,-1
 269 0 l 1,26,-1
 134 0 l 1,12,-1
EndSplineSet
Validated: 1
EndChar

StartChar: uni0182
Encoding: 386 386 323
Width: 537
GlyphClass: 2
Flags: MW
LayerCount: 2
Fore
SplineSet
242 81 m 1,0,-1
 322 161 l 1,1,-1
 322 242 l 1,2,-1
 242 322 l 1,3,-1
 81 322 l 1,4,-1
 81 81 l 1,5,-1
 242 81 l 1,0,-1
0 0 m 1,6,-1
 0 725 l 1,7,-1
 403 725 l 1,8,-1
 403 645 l 1,9,-1
 81 645 l 1,10,-1
 81 403 l 1,11,-1
 269 403 l 1,12,-1
 403 269 l 1,13,-1
 403 134 l 1,14,-1
 269 0 l 1,15,-1
 0 0 l 1,6,-1
EndSplineSet
Validated: 1
EndChar

StartChar: uni0183
Encoding: 387 387 324
Width: 537
GlyphClass: 2
Flags: MW
LayerCount: 2
Fore
SplineSet
242 81 m 1,0,-1
 322 161 l 1,1,-1
 322 403 l 1,2,-1
 242 483 l 1,3,-1
 188 483 l 1,4,-1
 81 376 l 1,5,-1
 81 161 l 1,6,-1
 161 81 l 1,7,-1
 242 81 l 1,0,-1
0 0 m 1,8,-1
 0 725 l 1,9,-1
 403 725 l 1,10,-1
 403 645 l 1,11,-1
 81 645 l 1,12,-1
 81 483 l 1,13,-1
 161 564 l 1,14,-1
 269 564 l 1,15,-1
 403 430 l 1,16,-1
 403 134 l 1,17,-1
 269 0 l 1,18,-1
 134 0 l 1,19,-1
 81 54 l 1,20,-1
 81 0 l 1,21,-1
 0 0 l 1,8,-1
EndSplineSet
Validated: 1
EndChar

StartChar: uni0184
Encoding: 388 388 325
Width: 537
GlyphClass: 2
Flags: MW
LayerCount: 2
Fore
SplineSet
242 81 m 1,0,-1
 322 161 l 1,1,-1
 322 242 l 1,2,-1
 242 322 l 1,3,-1
 81 322 l 1,4,-1
 81 81 l 1,5,-1
 242 81 l 1,0,-1
0 0 m 1,6,-1
 0 725 l 1,7,-1
 81 725 l 1,8,-1
 81 403 l 1,9,-1
 269 403 l 1,10,-1
 403 269 l 1,11,-1
 403 134 l 1,12,-1
 269 0 l 1,13,-1
 0 0 l 1,6,-1
EndSplineSet
Validated: 1
EndChar

StartChar: uni0185
Encoding: 389 389 326
Width: 537
GlyphClass: 2
Flags: MW
LayerCount: 2
Fore
SplineSet
242 81 m 1,0,-1
 322 161 l 1,1,-1
 322 403 l 1,2,-1
 242 483 l 1,3,-1
 188 483 l 1,4,-1
 81 376 l 1,5,-1
 81 161 l 1,6,-1
 161 81 l 1,7,-1
 242 81 l 1,0,-1
134 0 m 1,8,-1
 0 134 l 1,9,-1
 0 725 l 1,10,-1
 81 725 l 1,11,-1
 81 483 l 1,12,-1
 161 564 l 1,13,-1
 269 564 l 1,14,-1
 403 430 l 1,15,-1
 403 134 l 1,16,-1
 269 0 l 1,17,-1
 134 0 l 1,8,-1
EndSplineSet
Validated: 1
EndChar

StartChar: uni0186
Encoding: 390 390 327
Width: 537
GlyphClass: 2
Flags: MW
LayerCount: 2
Fore
SplineSet
134 0 m 1,0,-1
 0 134 l 1,1,-1
 54 188 l 1,2,-1
 161 81 l 1,3,-1
 242 81 l 1,4,-1
 322 161 l 1,5,-1
 322 564 l 1,6,-1
 242 645 l 1,7,-1
 161 645 l 1,8,-1
 54 537 l 1,9,-1
 0 591 l 1,10,-1
 134 725 l 1,11,-1
 269 725 l 1,12,-1
 403 591 l 1,13,-1
 403 134 l 1,14,-1
 269 0 l 1,15,-1
 134 0 l 1,0,-1
EndSplineSet
Validated: 1
EndChar

StartChar: uni0187
Encoding: 391 391 328
Width: 537
GlyphClass: 2
Flags: MW
LayerCount: 2
Fore
SplineSet
134 0 m 1,0,-1
 0 134 l 1,1,-1
 0 591 l 1,2,-1
 134 725 l 1,3,-1
 215 725 l 1,4,-1
 242 698 l 1,5,-1
 242 752 l 1,6,-1
 376 886 l 1,7,-1
 430 833 l 1,8,-1
 322 725 l 1,9,-1
 322 564 l 1,10,-1
 269 564 l 1,11,-1
 188 645 l 1,12,-1
 161 645 l 1,13,-1
 81 564 l 1,14,-1
 81 161 l 1,15,-1
 161 81 l 1,16,-1
 188 81 l 1,17,-1
 269 161 l 1,18,-1
 322 107 l 1,19,-1
 215 0 l 1,20,-1
 134 0 l 1,0,-1
EndSplineSet
Validated: 1
EndChar

StartChar: uni0188
Encoding: 392 392 329
Width: 537
GlyphClass: 2
Flags: MW
LayerCount: 2
Fore
SplineSet
134 0 m 1,0,-1
 0 134 l 1,1,-1
 0 430 l 1,2,-1
 134 564 l 1,3,-1
 215 564 l 1,4,-1
 242 537 l 1,5,-1
 242 591 l 1,6,-1
 376 725 l 1,7,-1
 430 671 l 1,8,-1
 322 564 l 1,9,-1
 322 403 l 1,10,-1
 269 403 l 1,11,-1
 188 483 l 1,12,-1
 161 483 l 1,13,-1
 81 403 l 1,14,-1
 81 161 l 1,15,-1
 161 81 l 1,16,-1
 188 81 l 1,17,-1
 269 161 l 1,18,-1
 322 107 l 1,19,-1
 215 0 l 1,20,-1
 134 0 l 1,0,-1
EndSplineSet
Validated: 1
EndChar

StartChar: uni0189
Encoding: 393 393 330
Width: 537
GlyphClass: 2
Flags: MW
LayerCount: 2
Fore
SplineSet
242 81 m 1,0,-1
 322 161 l 1,1,-1
 322 564 l 1,2,-1
 242 645 l 1,3,-1
 107 645 l 1,4,-1
 107 403 l 1,5,-1
 215 403 l 1,6,-1
 215 322 l 1,7,-1
 107 322 l 1,8,-1
 107 81 l 1,9,-1
 242 81 l 1,0,-1
27 0 m 1,10,-1
 27 322 l 1,11,-1
 -27 322 l 1,12,-1
 -27 403 l 1,13,-1
 27 403 l 1,14,-1
 27 725 l 1,15,-1
 269 725 l 1,16,-1
 403 591 l 1,17,-1
 403 134 l 1,18,-1
 269 0 l 1,19,-1
 27 0 l 1,10,-1
EndSplineSet
Validated: 1
EndChar

StartChar: uni018A
Encoding: 394 394 331
Width: 537
GlyphClass: 2
Flags: MW
LayerCount: 2
Fore
SplineSet
242 81 m 1,0,-1
 322 161 l 1,1,-1
 322 564 l 1,2,-1
 242 645 l 1,3,-1
 215 645 l 1,4,-1
 215 81 l 1,5,-1
 242 81 l 1,0,-1
134 0 m 1,6,-1
 134 645 l 1,7,-1
 107 645 l 1,8,-1
 27 564 l 1,9,-1
 -27 618 l 1,10,-1
 81 725 l 1,11,-1
 269 725 l 1,12,-1
 403 591 l 1,13,-1
 403 134 l 1,14,-1
 269 0 l 1,15,-1
 134 0 l 1,6,-1
EndSplineSet
Validated: 1
EndChar

StartChar: uni018B
Encoding: 395 395 332
Width: 537
GlyphClass: 2
Flags: MW
LayerCount: 2
Fore
SplineSet
322 81 m 1,0,-1
 322 322 l 1,1,-1
 161 322 l 1,2,-1
 81 242 l 1,3,-1
 81 161 l 1,4,-1
 161 81 l 1,5,-1
 322 81 l 1,0,-1
134 0 m 1,6,-1
 0 134 l 1,7,-1
 0 269 l 1,8,-1
 134 403 l 1,9,-1
 322 403 l 1,10,-1
 322 645 l 1,11,-1
 0 645 l 1,12,-1
 0 725 l 1,13,-1
 403 725 l 1,14,-1
 403 0 l 1,15,-1
 134 0 l 1,6,-1
EndSplineSet
Validated: 1
EndChar

StartChar: uni018C
Encoding: 396 396 333
Width: 537
GlyphClass: 2
Flags: MW
LayerCount: 2
Fore
SplineSet
215 81 m 1,0,-1
 322 188 l 1,1,-1
 322 403 l 1,2,-1
 242 483 l 1,3,-1
 161 483 l 1,4,-1
 81 403 l 1,5,-1
 81 161 l 1,6,-1
 161 81 l 1,7,-1
 215 81 l 1,0,-1
134 0 m 1,8,-1
 0 134 l 1,9,-1
 0 430 l 1,10,-1
 134 564 l 1,11,-1
 269 564 l 1,12,-1
 322 510 l 1,13,-1
 322 645 l 1,14,-1
 0 645 l 1,15,-1
 0 725 l 1,16,-1
 403 725 l 1,17,-1
 403 0 l 1,18,-1
 322 0 l 1,19,-1
 322 81 l 1,20,-1
 242 0 l 1,21,-1
 134 0 l 1,8,-1
EndSplineSet
Validated: 1
EndChar

StartChar: uni018D
Encoding: 397 397 334
Width: 537
GlyphClass: 2
Flags: MW
LayerCount: 2
Fore
SplineSet
242 242 m 1,0,-1
 322 322 l 1,1,-1
 322 564 l 1,2,-1
 242 645 l 1,3,-1
 161 645 l 1,4,-1
 81 564 l 1,5,-1
 81 322 l 1,6,-1
 161 242 l 1,7,-1
 242 242 l 1,0,-1
0 0 m 1,8,-1
 0 81 l 1,9,-1
 215 81 l 1,10,-1
 0 295 l 1,11,-1
 0 591 l 1,12,-1
 134 725 l 1,13,-1
 269 725 l 1,14,-1
 403 591 l 1,15,-1
 403 295 l 1,16,-1
 269 161 l 1,17,-1
 242 161 l 1,18,-1
 349 54 l 1,19,-1
 349 0 l 1,20,-1
 0 0 l 1,8,-1
EndSplineSet
Validated: 1
EndChar

StartChar: uni018E
Encoding: 398 398 335
Width: 537
GlyphClass: 2
Flags: MW
LayerCount: 2
Fore
SplineSet
0 0 m 1,0,-1
 0 81 l 1,1,-1
 322 81 l 1,2,-1
 322 322 l 1,3,-1
 54 322 l 1,4,-1
 54 403 l 1,5,-1
 322 403 l 1,6,-1
 322 645 l 1,7,-1
 0 645 l 1,8,-1
 0 725 l 1,9,-1
 403 725 l 1,10,-1
 403 0 l 1,11,-1
 0 0 l 1,0,-1
EndSplineSet
Validated: 1
EndChar

StartChar: uni018F
Encoding: 399 399 336
Width: 537
GlyphClass: 2
Flags: MW
LayerCount: 2
Fore
SplineSet
242 81 m 1,0,-1
 322 161 l 1,1,-1
 322 322 l 1,2,-1
 81 322 l 1,3,-1
 81 161 l 1,4,-1
 161 81 l 1,5,-1
 242 81 l 1,0,-1
134 0 m 1,6,-1
 0 134 l 1,7,-1
 0 403 l 1,8,-1
 322 403 l 1,9,-1
 322 564 l 1,10,-1
 242 645 l 1,11,-1
 161 645 l 1,12,-1
 54 537 l 1,13,-1
 0 591 l 1,14,-1
 134 725 l 1,15,-1
 269 725 l 1,16,-1
 403 591 l 1,17,-1
 403 134 l 1,18,-1
 269 0 l 1,19,-1
 134 0 l 1,6,-1
EndSplineSet
Validated: 1
EndChar

StartChar: uni0190
Encoding: 400 400 337
Width: 537
GlyphClass: 2
Flags: MW
LayerCount: 2
Fore
SplineSet
134 0 m 1,0,-1
 0 134 l 1,1,-1
 0 269 l 1,2,-1
 81 349 l 1,3,-1
 81 349 l 1,4,-1
 94 363 l 1,5,-1
 0 457 l 1,6,-1
 0 591 l 1,7,-1
 134 725 l 1,8,-1
 269 725 l 1,9,-1
 403 591 l 1,10,-1
 349 537 l 1,11,-1
 242 645 l 1,12,-1
 161 645 l 1,13,-1
 81 564 l 1,14,-1
 81 483 l 1,15,-1
 161 403 l 1,16,-1
 269 403 l 1,17,-1
 269 322 l 1,18,-1
 161 322 l 1,19,-1
 81 242 l 1,20,-1
 81 161 l 1,21,-1
 161 81 l 1,22,-1
 242 81 l 1,23,-1
 349 188 l 1,24,-1
 403 134 l 1,25,-1
 269 0 l 1,26,-1
 134 0 l 1,0,-1
EndSplineSet
Validated: 5
EndChar

StartChar: uni0191
Encoding: 401 401 338
Width: 537
GlyphClass: 2
Flags: MW
LayerCount: 2
Fore
SplineSet
27 -161 m 1,0,-1
 -27 -107 l 1,1,-1
 81 0 l 1,2,-1
 81 725 l 1,3,-1
 403 725 l 1,4,-1
 403 645 l 1,5,-1
 161 645 l 1,6,-1
 161 403 l 1,7,-1
 322 403 l 1,8,-1
 322 322 l 1,9,-1
 161 322 l 1,10,-1
 161 -27 l 1,11,-1
 27 -161 l 1,12,-1
 27 -161 l 1,0,-1
EndSplineSet
Validated: 5
EndChar

StartChar: florin
Encoding: 402 402 339
Width: 537
GlyphClass: 2
Flags: MW
LayerCount: 2
Fore
SplineSet
27 -161 m 1,0,-1
 -27 -107 l 1,1,-1
 81 0 l 1,2,-1
 81 403 l 1,3,-1
 0 403 l 1,4,-1
 0 483 l 1,5,-1
 81 483 l 1,6,-1
 81 618 l 1,7,-1
 188 725 l 1,8,-1
 295 725 l 1,9,-1
 403 618 l 1,10,-1
 349 564 l 1,11,-1
 269 645 l 1,12,-1
 215 645 l 1,13,-1
 161 591 l 1,14,-1
 161 483 l 1,15,-1
 322 483 l 1,16,-1
 322 403 l 1,17,-1
 161 403 l 1,18,-1
 161 -27 l 1,19,-1
 27 -161 l 1,20,-1
 27 -161 l 1,0,-1
EndSplineSet
Validated: 5
EndChar

StartChar: uni0193
Encoding: 403 403 340
Width: 537
GlyphClass: 2
Flags: MW
LayerCount: 2
Fore
SplineSet
134 0 m 1,0,-1
 0 134 l 1,1,-1
 0 591 l 1,2,-1
 134 725 l 1,3,-1
 215 725 l 1,4,-1
 242 698 l 1,5,-1
 242 752 l 1,6,-1
 376 886 l 1,7,-1
 430 833 l 1,8,-1
 322 725 l 1,9,-1
 322 564 l 1,10,-1
 269 564 l 1,11,-1
 188 645 l 1,12,-1
 161 645 l 1,13,-1
 81 564 l 1,14,-1
 81 161 l 1,15,-1
 134 107 l 1,16,-1
 134 106 l 1,17,-1
 148 94 l 1,18,-1
 242 188 l 1,19,-1
 242 322 l 1,20,-1
 161 322 l 1,21,-1
 161 403 l 1,22,-1
 322 403 l 1,23,-1
 322 0 l 1,24,-1
 242 0 l 1,25,-1
 242 81 l 1,26,-1
 161 0 l 1,27,-1
 134 0 l 1,0,-1
EndSplineSet
Validated: 1
EndChar

StartChar: uni0194
Encoding: 404 404 341
Width: 537
GlyphClass: 2
Flags: MW
LayerCount: 2
Fore
SplineSet
215 -81 m 1,0,-1
 242 -54 l 1,1,-1
 242 -27 l 1,2,-1
 201 54 l 1,3,-1
 161 -27 l 1,4,-1
 161 -54 l 1,5,-1
 188 -81 l 1,6,-1
 215 -81 l 1,0,-1
161 -161 m 1,7,-1
 81 -81 l 1,8,-1
 81 -27 l 1,9,-1
 161 134 l 1,10,-1
 0 457 l 1,11,-1
 0 725 l 1,12,-1
 81 725 l 1,13,-1
 81 457 l 1,14,-1
 201 215 l 1,15,-1
 322 457 l 1,16,-1
 322 725 l 1,17,-1
 403 725 l 1,18,-1
 403 457 l 1,19,-1
 242 134 l 1,20,-1
 322 -27 l 1,21,-1
 322 -81 l 1,22,-1
 242 -161 l 1,23,-1
 161 -161 l 1,7,-1
EndSplineSet
Validated: 1
EndChar

StartChar: uni0195
Encoding: 405 405 342
Width: 537
GlyphClass: 2
Flags: MW
LayerCount: 2
Fore
SplineSet
0 0 m 1,0,-1
 0 725 l 1,1,-1
 81 725 l 1,2,-1
 81 510 l 1,3,-1
 134 564 l 1,4,-1
 161 564 l 1,5,-1
 242 483 l 1,6,-1
 242 134 l 1,7,-1
 269 107 l 1,8,-1
 269 106 l 1,9,-1
 282 94 l 1,10,-1
 322 134 l 1,11,-1
 322 564 l 1,12,-1
 403 564 l 1,13,-1
 403 107 l 1,14,-1
 295 0 l 1,15,-1
 269 0 l 1,16,-1
 161 107 l 1,17,-1
 161 457 l 1,18,-1
 148 470 l 1,19,-1
 81 403 l 1,20,-1
 81 0 l 1,21,-1
 0 0 l 1,0,-1
EndSplineSet
Validated: 1
EndChar

StartChar: uni0196
Encoding: 406 406 343
Width: 537
GlyphClass: 2
Flags: MW
LayerCount: 2
Fore
SplineSet
295 0 m 1,0,-1
 161 134 l 1,1,-1
 161 645 l 1,2,-1
 81 645 l 1,3,-1
 81 725 l 1,4,-1
 322 725 l 1,5,-1
 322 645 l 1,6,-1
 242 645 l 1,7,-1
 242 161 l 1,8,-1
 349 54 l 1,9,-1
 295 0 l 1,10,-1
 295 0 l 1,0,-1
EndSplineSet
Validated: 5
EndChar

StartChar: uni0197
Encoding: 407 407 344
Width: 537
GlyphClass: 2
Flags: MW
LayerCount: 2
Fore
SplineSet
81 0 m 1,0,-1
 81 81 l 1,1,-1
 161 81 l 1,2,-1
 161 322 l 1,3,-1
 54 322 l 1,4,-1
 54 403 l 1,5,-1
 161 403 l 1,6,-1
 161 645 l 1,7,-1
 81 645 l 1,8,-1
 81 725 l 1,9,-1
 322 725 l 1,10,-1
 322 645 l 1,11,-1
 242 645 l 1,12,-1
 242 403 l 1,13,-1
 349 403 l 1,14,-1
 349 322 l 1,15,-1
 242 322 l 1,16,-1
 242 81 l 1,17,-1
 322 81 l 1,18,-1
 322 0 l 1,19,-1
 81 0 l 1,0,-1
EndSplineSet
Validated: 1
EndChar

StartChar: uni0198
Encoding: 408 408 345
Width: 537
GlyphClass: 2
Flags: MW
LayerCount: 2
Fore
SplineSet
0 0 m 1,0,-1
 0 725 l 1,1,-1
 81 725 l 1,2,-1
 81 403 l 1,3,-1
 94 403 l 1,4,-1
 255 725 l 1,5,-1
 322 725 l 1,6,-1
 430 618 l 1,7,-1
 376 564 l 1,8,-1
 295 645 l 1,9,-1
 154 363 l 1,10,-1
 322 27 l 1,11,-1
 269 0 l 1,12,-1
 255 0 l 1,13,-1
 94 322 l 1,14,-1
 81 322 l 1,15,-1
 81 0 l 1,16,-1
 0 0 l 1,0,-1
EndSplineSet
Validated: 1
EndChar

StartChar: uni0199
Encoding: 409 409 346
Width: 537
GlyphClass: 2
Flags: MW
LayerCount: 2
Fore
SplineSet
0 0 m 1,0,-1
 0 591 l 1,1,-1
 134 725 l 1,2,-1
 188 671 l 1,3,-1
 81 564 l 1,4,-1
 81 322 l 1,5,-1
 215 322 l 1,6,-1
 336 564 l 1,7,-1
 349 564 l 1,8,-1
 403 537 l 1,9,-1
 275 282 l 1,10,-1
 403 27 l 1,11,-1
 349 0 l 1,12,-1
 336 0 l 1,13,-1
 215 242 l 1,14,-1
 81 242 l 1,15,-1
 81 0 l 1,16,-1
 0 0 l 1,0,-1
EndSplineSet
Validated: 1
EndChar

StartChar: uni019A
Encoding: 410 410 347
Width: 537
GlyphClass: 2
Flags: MW
LayerCount: 2
Fore
SplineSet
81 0 m 1,0,-1
 81 81 l 1,1,-1
 161 81 l 1,2,-1
 161 322 l 1,3,-1
 54 322 l 1,4,-1
 54 403 l 1,5,-1
 161 403 l 1,6,-1
 161 645 l 1,7,-1
 81 645 l 1,8,-1
 81 725 l 1,9,-1
 242 725 l 1,10,-1
 242 403 l 1,11,-1
 349 403 l 1,12,-1
 349 322 l 1,13,-1
 242 322 l 1,14,-1
 242 81 l 1,15,-1
 322 81 l 1,16,-1
 322 0 l 1,17,-1
 81 0 l 1,0,-1
EndSplineSet
Validated: 1
EndChar

StartChar: uni019B
Encoding: 411 411 348
Width: 537
GlyphClass: 2
Flags: MW
LayerCount: 2
Fore
SplineSet
0 0 m 1,0,-1
 0 215 l 1,1,-1
 161 537 l 1,2,-1
 139 579 l 1,3,-1
 54 537 l 1,4,-1
 27 591 l 1,5,-1
 27 604 l 1,6,-1
 107 645 l 1,7,-1
 81 698 l 1,8,-1
 134 725 l 1,9,-1
 148 725 l 1,10,-1
 171 677 l 1,11,-1
 269 725 l 1,12,-1
 295 671 l 1,13,-1
 295 658 l 1,14,-1
 203 611 l 1,15,-1
 403 215 l 1,16,-1
 403 0 l 1,17,-1
 322 0 l 1,18,-1
 322 215 l 1,19,-1
 201 457 l 1,20,-1
 81 215 l 1,21,-1
 81 0 l 1,22,-1
 0 0 l 1,0,-1
EndSplineSet
Validated: 1
EndChar

StartChar: uni019C
Encoding: 412 412 349
Width: 537
GlyphClass: 2
Flags: MW
LayerCount: 2
Fore
SplineSet
107 0 m 1,0,-1
 0 107 l 1,1,-1
 0 725 l 1,2,-1
 81 725 l 1,3,-1
 81 134 l 1,4,-1
 107 107 l 1,5,-1
 107 106 l 1,6,-1
 121 94 l 1,7,-1
 161 134 l 1,8,-1
 161 725 l 1,9,-1
 242 725 l 1,10,-1
 242 106 l 1,11,-1
 255 94 l 1,12,-1
 322 161 l 1,13,-1
 322 725 l 1,14,-1
 403 725 l 1,15,-1
 403 0 l 1,16,-1
 322 0 l 1,17,-1
 322 54 l 1,18,-1
 269 0 l 1,19,-1
 242 0 l 1,20,-1
 188 54 l 1,21,-1
 134 0 l 1,22,-1
 107 0 l 1,0,-1
EndSplineSet
Validated: 1
EndChar

StartChar: uni019D
Encoding: 413 413 350
Width: 537
GlyphClass: 2
Flags: MW
LayerCount: 2
Fore
SplineSet
27 -161 m 1,0,-1
 -27 -107 l 1,1,-1
 81 0 l 1,2,-1
 81 725 l 1,3,-1
 148 725 l 1,4,-1
 322 376 l 1,5,-1
 322 725 l 1,6,-1
 403 725 l 1,7,-1
 403 0 l 1,8,-1
 322 0 l 1,9,-1
 322 215 l 1,10,-1
 161 537 l 1,11,-1
 161 -27 l 1,12,-1
 27 -161 l 1,13,-1
 27 -161 l 1,0,-1
EndSplineSet
Validated: 5
EndChar

StartChar: uni019E
Encoding: 414 414 351
Width: 537
GlyphClass: 2
Flags: MW
LayerCount: 2
Fore
SplineSet
322 -161 m 1,0,-1
 322 403 l 1,1,-1
 242 483 l 1,2,-1
 188 483 l 1,3,-1
 81 376 l 1,4,-1
 81 0 l 1,5,-1
 0 0 l 1,6,-1
 0 564 l 1,7,-1
 81 564 l 1,8,-1
 81 483 l 1,9,-1
 161 564 l 1,10,-1
 269 564 l 1,11,-1
 403 430 l 1,12,-1
 403 -161 l 1,13,-1
 322 -161 l 1,0,-1
EndSplineSet
Validated: 1
EndChar

StartChar: uni019F
Encoding: 415 415 352
Width: 537
GlyphClass: 2
Flags: MW
LayerCount: 2
Fore
SplineSet
242 81 m 1,0,-1
 322 161 l 1,1,-1
 322 322 l 1,2,-1
 81 322 l 1,3,-1
 81 161 l 1,4,-1
 161 81 l 1,5,-1
 242 81 l 1,0,-1
322 403 m 1,6,-1
 322 564 l 1,7,-1
 242 645 l 1,8,-1
 161 645 l 1,9,-1
 81 564 l 1,10,-1
 81 403 l 1,11,-1
 322 403 l 1,6,-1
134 0 m 1,12,-1
 0 134 l 1,13,-1
 0 591 l 1,14,-1
 134 725 l 1,15,-1
 269 725 l 1,16,-1
 403 591 l 1,17,-1
 403 134 l 1,18,-1
 269 0 l 1,19,-1
 134 0 l 1,12,-1
EndSplineSet
Validated: 1
EndChar

StartChar: Ohorn
Encoding: 416 416 353
Width: 537
GlyphClass: 2
Flags: MW
LayerCount: 2
Fore
SplineSet
121 94 m 1,0,-1
 161 134 l 1,1,-1
 161 591 l 1,2,-1
 134 618 l 1,3,-1
 134 618 l 1,4,-1
 121 631 l 1,5,-1
 81 591 l 1,6,-1
 81 134 l 1,7,-1
 107 107 l 1,8,-1
 107 106 l 1,9,-1
 121 94 l 1,10,-1
 121 94 l 1,0,-1
107 0 m 1,11,-1
 0 107 l 1,12,-1
 0 618 l 1,13,-1
 107 725 l 1,14,-1
 134 725 l 1,15,-1
 242 618 l 1,16,-1
 242 510 l 1,17,-1
 269 510 l 1,18,-1
 322 564 l 1,19,-1
 322 591 l 1,20,-1
 269 591 l 1,21,-1
 269 725 l 1,22,-1
 403 725 l 1,23,-1
 403 537 l 1,24,-1
 295 430 l 1,25,-1
 242 430 l 1,26,-1
 242 107 l 1,27,-1
 134 0 l 1,28,-1
 107 0 l 1,11,-1
EndSplineSet
Validated: 5
EndChar

StartChar: ohorn
Encoding: 417 417 354
Width: 537
GlyphClass: 2
Flags: MW
LayerCount: 2
Fore
SplineSet
121 94 m 1,0,-1
 161 134 l 1,1,-1
 161 430 l 1,2,-1
 134 457 l 1,3,-1
 134 457 l 1,4,-1
 121 470 l 1,5,-1
 81 430 l 1,6,-1
 81 134 l 1,7,-1
 107 107 l 1,8,-1
 107 106 l 1,9,-1
 121 94 l 1,10,-1
 121 94 l 1,0,-1
107 0 m 1,11,-1
 0 107 l 1,12,-1
 0 457 l 1,13,-1
 107 564 l 1,14,-1
 134 564 l 1,15,-1
 242 457 l 1,16,-1
 242 349 l 1,17,-1
 269 349 l 1,18,-1
 322 403 l 1,19,-1
 322 430 l 1,20,-1
 269 430 l 1,21,-1
 269 564 l 1,22,-1
 403 564 l 1,23,-1
 403 376 l 1,24,-1
 295 269 l 1,25,-1
 242 269 l 1,26,-1
 242 107 l 1,27,-1
 134 0 l 1,28,-1
 107 0 l 1,11,-1
EndSplineSet
Validated: 5
EndChar

StartChar: uni01A2
Encoding: 418 418 355
Width: 537
GlyphClass: 2
Flags: MW
LayerCount: 2
Fore
SplineSet
134 81 m 1,0,-1
 188 134 l 1,1,-1
 188 591 l 1,2,-1
 134 645 l 1,3,-1
 81 591 l 1,4,-1
 81 134 l 1,5,-1
 134 81 l 1,6,-1
 134 81 l 1,0,-1
322 -161 m 1,7,-1
 322 591 l 1,8,-1
 295 618 l 1,9,-1
 295 618 l 1,10,-1
 282 631 l 1,11,-1
 269 618 l 1,12,-1
 269 107 l 1,13,-1
 161 0 l 1,14,-1
 107 0 l 1,15,-1
 0 107 l 1,16,-1
 0 618 l 1,17,-1
 107 725 l 1,18,-1
 161 725 l 1,19,-1
 215 671 l 1,20,-1
 269 725 l 1,21,-1
 295 725 l 1,22,-1
 403 618 l 1,23,-1
 403 -161 l 1,24,-1
 322 -161 l 1,7,-1
EndSplineSet
Validated: 5
EndChar

StartChar: uni01A3
Encoding: 419 419 356
Width: 537
GlyphClass: 2
Flags: MW
LayerCount: 2
Fore
SplineSet
134 81 m 1,0,-1
 188 134 l 1,1,-1
 188 430 l 1,2,-1
 134 483 l 1,3,-1
 81 430 l 1,4,-1
 81 134 l 1,5,-1
 134 81 l 1,6,-1
 134 81 l 1,0,-1
322 -161 m 1,7,-1
 322 430 l 1,8,-1
 295 457 l 1,9,-1
 295 457 l 1,10,-1
 282 470 l 1,11,-1
 269 457 l 1,12,-1
 269 107 l 1,13,-1
 161 0 l 1,14,-1
 107 0 l 1,15,-1
 0 107 l 1,16,-1
 0 457 l 1,17,-1
 107 564 l 1,18,-1
 161 564 l 1,19,-1
 215 510 l 1,20,-1
 269 564 l 1,21,-1
 295 564 l 1,22,-1
 403 457 l 1,23,-1
 403 -161 l 1,24,-1
 322 -161 l 1,7,-1
EndSplineSet
Validated: 5
EndChar

StartChar: uni01A4
Encoding: 420 420 357
Width: 537
GlyphClass: 2
Flags: MW
LayerCount: 2
Fore
SplineSet
242 403 m 1,0,-1
 322 483 l 1,1,-1
 322 564 l 1,2,-1
 242 645 l 1,3,-1
 215 645 l 1,4,-1
 215 403 l 1,5,-1
 242 403 l 1,0,-1
134 0 m 1,6,-1
 134 645 l 1,7,-1
 107 645 l 1,8,-1
 27 564 l 1,9,-1
 -27 618 l 1,10,-1
 81 725 l 1,11,-1
 269 725 l 1,12,-1
 403 591 l 1,13,-1
 403 457 l 1,14,-1
 269 322 l 1,15,-1
 215 322 l 1,16,-1
 215 0 l 1,17,-1
 134 0 l 1,6,-1
EndSplineSet
Validated: 1
EndChar

StartChar: uni01A5
Encoding: 421 421 358
Width: 537
GlyphClass: 2
Flags: MW
LayerCount: 2
Fore
SplineSet
242 81 m 1,0,-1
 322 161 l 1,1,-1
 322 403 l 1,2,-1
 242 483 l 1,3,-1
 188 483 l 1,4,-1
 81 376 l 1,5,-1
 81 161 l 1,6,-1
 161 81 l 1,7,-1
 242 81 l 1,0,-1
0 -161 m 1,8,-1
 0 591 l 1,9,-1
 134 725 l 1,10,-1
 188 671 l 1,11,-1
 81 564 l 1,12,-1
 81 483 l 1,13,-1
 161 564 l 1,14,-1
 269 564 l 1,15,-1
 403 430 l 1,16,-1
 403 134 l 1,17,-1
 269 0 l 1,18,-1
 134 0 l 1,19,-1
 81 54 l 1,20,-1
 81 -161 l 1,21,-1
 0 -161 l 1,8,-1
EndSplineSet
Validated: 1
EndChar

StartChar: uni01A6
Encoding: 422 422 359
Width: 537
GlyphClass: 2
Flags: MW
LayerCount: 2
Fore
SplineSet
242 242 m 1,0,-1
 322 322 l 1,1,-1
 322 403 l 1,2,-1
 242 483 l 1,3,-1
 81 483 l 1,4,-1
 81 242 l 1,5,-1
 242 242 l 1,0,-1
336 -161 m 1,6,-1
 175 161 l 1,7,-1
 81 161 l 1,8,-1
 81 0 l 1,9,-1
 0 0 l 1,10,-1
 0 725 l 1,11,-1
 81 725 l 1,12,-1
 81 564 l 1,13,-1
 269 564 l 1,14,-1
 403 430 l 1,15,-1
 403 295 l 1,16,-1
 269 161 l 1,17,-1
 255 161 l 1,18,-1
 403 -134 l 1,19,-1
 349 -161 l 1,20,-1
 336 -161 l 1,6,-1
EndSplineSet
Validated: 1
EndChar

StartChar: uni01A7
Encoding: 423 423 360
Width: 537
GlyphClass: 2
Flags: MW
LayerCount: 2
Fore
SplineSet
134 0 m 1,0,-1
 0 134 l 1,1,-1
 0 269 l 1,2,-1
 134 403 l 1,3,-1
 242 403 l 1,4,-1
 322 483 l 1,5,-1
 322 564 l 1,6,-1
 242 645 l 1,7,-1
 161 645 l 1,8,-1
 54 537 l 1,9,-1
 0 591 l 1,10,-1
 134 725 l 1,11,-1
 269 725 l 1,12,-1
 403 591 l 1,13,-1
 403 457 l 1,14,-1
 269 322 l 1,15,-1
 161 322 l 1,16,-1
 81 242 l 1,17,-1
 81 161 l 1,18,-1
 161 81 l 1,19,-1
 242 81 l 1,20,-1
 349 188 l 1,21,-1
 403 134 l 1,22,-1
 269 0 l 1,23,-1
 134 0 l 1,0,-1
EndSplineSet
Validated: 1
EndChar

StartChar: uni01A8
Encoding: 424 424 361
Width: 537
GlyphClass: 2
Flags: MW
LayerCount: 2
Fore
SplineSet
134 0 m 1,0,-1
 0 134 l 1,1,-1
 0 188 l 1,2,-1
 134 322 l 1,3,-1
 242 322 l 1,4,-1
 322 403 l 1,5,-1
 242 483 l 1,6,-1
 161 483 l 1,7,-1
 54 376 l 1,8,-1
 0 430 l 1,9,-1
 134 564 l 1,10,-1
 269 564 l 1,11,-1
 403 430 l 1,12,-1
 403 376 l 1,13,-1
 269 242 l 1,14,-1
 161 242 l 1,15,-1
 81 161 l 1,16,-1
 161 81 l 1,17,-1
 242 81 l 1,18,-1
 349 188 l 1,19,-1
 403 134 l 1,20,-1
 269 0 l 1,21,-1
 134 0 l 1,0,-1
EndSplineSet
Validated: 1
EndChar

StartChar: uni01A9
Encoding: 425 425 362
Width: 537
GlyphClass: 2
Flags: MW
LayerCount: 2
Fore
SplineSet
0 0 m 1,0,-1
 0 54 l 1,1,-1
 154 363 l 1,2,-1
 0 671 l 1,3,-1
 0 725 l 1,4,-1
 403 725 l 1,5,-1
 403 645 l 1,6,-1
 94 645 l 1,7,-1
 235 363 l 1,8,-1
 94 81 l 1,9,-1
 403 81 l 1,10,-1
 403 0 l 1,11,-1
 0 0 l 1,0,-1
EndSplineSet
Validated: 1
EndChar

StartChar: uni01AA
Encoding: 426 426 363
Width: 537
GlyphClass: 2
Flags: MW
LayerCount: 2
Fore
SplineSet
188 564 m 1,0,-1
 242 618 l 1,1,-1
 215 645 l 1,2,-1
 161 645 l 1,3,-1
 107 591 l 1,4,-1
 134 564 l 1,5,-1
 188 564 l 1,0,-1
161 -161 m 1,6,-1
 54 -54 l 1,7,-1
 54 81 l 1,8,-1
 269 510 l 1,9,-1
 269 537 l 1,10,-1
 215 483 l 1,11,-1
 107 483 l 1,12,-1
 27 564 l 1,13,-1
 27 618 l 1,14,-1
 134 725 l 1,15,-1
 242 725 l 1,16,-1
 295 671 l 1,17,-1
 349 725 l 1,18,-1
 403 671 l 1,19,-1
 349 618 l 1,20,-1
 349 510 l 1,21,-1
 134 81 l 1,22,-1
 134 -27 l 1,23,-1
 188 -81 l 1,24,-1
 215 -81 l 1,25,-1
 295 0 l 1,26,-1
 349 -54 l 1,27,-1
 242 -161 l 1,28,-1
 161 -161 l 1,6,-1
EndSplineSet
Validated: 1
EndChar

StartChar: uni01AB
Encoding: 427 427 364
Width: 537
GlyphClass: 2
Flags: MW
LayerCount: 2
Fore
SplineSet
242 -161 m 1,0,-1
 188 -107 l 1,1,-1
 295 0 l 1,2,-1
 295 54 l 1,3,-1
 242 0 l 1,4,-1
 188 0 l 1,5,-1
 81 107 l 1,6,-1
 81 483 l 1,7,-1
 0 483 l 1,8,-1
 0 564 l 1,9,-1
 81 564 l 1,10,-1
 81 645 l 1,11,-1
 161 645 l 1,12,-1
 161 564 l 1,13,-1
 322 564 l 1,14,-1
 322 483 l 1,15,-1
 161 483 l 1,16,-1
 161 134 l 1,17,-1
 215 81 l 1,18,-1
 295 161 l 1,19,-1
 376 161 l 1,20,-1
 376 -27 l 1,21,-1
 242 -161 l 1,22,-1
 242 -161 l 1,0,-1
EndSplineSet
Validated: 5
EndChar

StartChar: uni01AC
Encoding: 428 428 365
Width: 537
GlyphClass: 2
Flags: MW
LayerCount: 2
Fore
SplineSet
161 0 m 1,0,-1
 161 645 l 1,1,-1
 107 645 l 1,2,-1
 27 564 l 1,3,-1
 -27 618 l 1,4,-1
 81 725 l 1,5,-1
 403 725 l 1,6,-1
 403 645 l 1,7,-1
 242 645 l 1,8,-1
 242 0 l 1,9,-1
 161 0 l 1,0,-1
EndSplineSet
Validated: 1
EndChar

StartChar: uni01AD
Encoding: 429 429 366
Width: 537
GlyphClass: 2
Flags: MW
LayerCount: 2
Fore
SplineSet
188 0 m 1,0,-1
 81 107 l 1,1,-1
 81 483 l 1,2,-1
 0 483 l 1,3,-1
 0 564 l 1,4,-1
 81 564 l 1,5,-1
 81 591 l 1,6,-1
 215 725 l 1,7,-1
 269 671 l 1,8,-1
 161 564 l 1,9,-1
 322 564 l 1,10,-1
 322 483 l 1,11,-1
 161 483 l 1,12,-1
 161 134 l 1,13,-1
 215 81 l 1,14,-1
 242 81 l 1,15,-1
 322 161 l 1,16,-1
 376 107 l 1,17,-1
 269 0 l 1,18,-1
 188 0 l 1,0,-1
EndSplineSet
Validated: 1
EndChar

StartChar: uni01AE
Encoding: 430 430 367
Width: 537
GlyphClass: 2
Flags: MW
LayerCount: 2
Fore
SplineSet
295 -161 m 1,0,-1
 161 -27 l 1,1,-1
 161 645 l 1,2,-1
 0 645 l 1,3,-1
 0 725 l 1,4,-1
 403 725 l 1,5,-1
 403 645 l 1,6,-1
 242 645 l 1,7,-1
 242 0 l 1,8,-1
 349 -107 l 1,9,-1
 295 -161 l 1,10,-1
 295 -161 l 1,0,-1
EndSplineSet
Validated: 5
EndChar

StartChar: Uhorn
Encoding: 431 431 368
Width: 537
GlyphClass: 2
Flags: MW
LayerCount: 2
Fore
SplineSet
107 0 m 1,0,-1
 0 107 l 1,1,-1
 0 725 l 1,2,-1
 81 725 l 1,3,-1
 81 134 l 1,4,-1
 107 107 l 1,5,-1
 107 106 l 1,6,-1
 121 94 l 1,7,-1
 161 134 l 1,8,-1
 161 725 l 1,9,-1
 242 725 l 1,10,-1
 242 510 l 1,11,-1
 269 510 l 1,12,-1
 322 564 l 1,13,-1
 322 591 l 1,14,-1
 269 591 l 1,15,-1
 269 725 l 1,16,-1
 403 725 l 1,17,-1
 403 537 l 1,18,-1
 295 430 l 1,19,-1
 242 430 l 1,20,-1
 242 107 l 1,21,-1
 134 0 l 1,22,-1
 107 0 l 1,0,-1
EndSplineSet
Validated: 1
EndChar

StartChar: uhorn
Encoding: 432 432 369
Width: 537
GlyphClass: 2
Flags: MW
LayerCount: 2
Fore
SplineSet
81 0 m 1,0,-1
 0 81 l 1,1,-1
 0 564 l 1,2,-1
 81 564 l 1,3,-1
 81 106 l 1,4,-1
 94 94 l 1,5,-1
 161 161 l 1,6,-1
 161 564 l 1,7,-1
 242 564 l 1,8,-1
 242 349 l 1,9,-1
 269 349 l 1,10,-1
 322 403 l 1,11,-1
 322 430 l 1,12,-1
 269 430 l 1,13,-1
 269 564 l 1,14,-1
 403 564 l 1,15,-1
 403 376 l 1,16,-1
 295 269 l 1,17,-1
 242 269 l 1,18,-1
 242 0 l 1,19,-1
 161 0 l 1,20,-1
 161 54 l 1,21,-1
 107 0 l 1,22,-1
 81 0 l 1,0,-1
EndSplineSet
Validated: 1
EndChar

StartChar: uni01B1
Encoding: 433 433 370
Width: 537
GlyphClass: 2
Flags: MW
LayerCount: 2
Fore
SplineSet
134 0 m 1,0,-1
 0 134 l 1,1,-1
 0 457 l 1,2,-1
 81 618 l 1,3,-1
 81 645 l 1,4,-1
 0 645 l 1,5,-1
 0 725 l 1,6,-1
 161 725 l 1,7,-1
 161 618 l 1,8,-1
 81 457 l 1,9,-1
 81 161 l 1,10,-1
 161 81 l 1,11,-1
 242 81 l 1,12,-1
 322 161 l 1,13,-1
 322 457 l 1,14,-1
 242 618 l 1,15,-1
 242 725 l 1,16,-1
 403 725 l 1,17,-1
 403 645 l 1,18,-1
 322 645 l 1,19,-1
 322 618 l 1,20,-1
 403 457 l 1,21,-1
 403 134 l 1,22,-1
 269 0 l 1,23,-1
 134 0 l 1,0,-1
EndSplineSet
Validated: 1
EndChar

StartChar: uni01B2
Encoding: 434 434 371
Width: 537
GlyphClass: 2
Flags: MW
LayerCount: 2
Fore
SplineSet
134 0 m 1,0,-1
 0 134 l 1,1,-1
 0 725 l 1,2,-1
 81 725 l 1,3,-1
 81 161 l 1,4,-1
 161 81 l 1,5,-1
 242 81 l 1,6,-1
 322 161 l 1,7,-1
 322 591 l 1,8,-1
 242 671 l 1,9,-1
 295 725 l 1,10,-1
 403 618 l 1,11,-1
 403 134 l 1,12,-1
 269 0 l 1,13,-1
 134 0 l 1,0,-1
EndSplineSet
Validated: 1
EndChar

StartChar: uni01B3
Encoding: 435 435 372
Width: 537
GlyphClass: 2
Flags: MW
LayerCount: 2
Fore
SplineSet
161 0 m 1,0,-1
 161 564 l 1,1,-1
 107 618 l 1,2,-1
 107 618 l 1,3,-1
 94 631 l 1,4,-1
 27 564 l 1,5,-1
 -27 618 l 1,6,-1
 81 725 l 1,7,-1
 107 725 l 1,8,-1
 242 591 l 1,9,-1
 242 537 l 1,10,-1
 336 725 l 1,11,-1
 349 725 l 1,12,-1
 403 698 l 1,13,-1
 242 376 l 1,14,-1
 242 0 l 1,15,-1
 161 0 l 1,0,-1
EndSplineSet
Validated: 1
EndChar

StartChar: uni01B4
Encoding: 436 436 373
Width: 537
GlyphClass: 2
Flags: MW
LayerCount: 2
Fore
SplineSet
81 -161 m 1,0,-1
 27 -134 l 1,1,-1
 121 54 l 1,2,-1
 0 295 l 1,3,-1
 0 564 l 1,4,-1
 81 564 l 1,5,-1
 81 295 l 1,6,-1
 161 134 l 1,7,-1
 242 295 l 1,8,-1
 242 591 l 1,9,-1
 376 725 l 1,10,-1
 430 671 l 1,11,-1
 322 564 l 1,12,-1
 322 295 l 1,13,-1
 94 -161 l 1,14,-1
 81 -161 l 1,0,-1
EndSplineSet
Validated: 1
EndChar

StartChar: uni01B5
Encoding: 437 437 374
Width: 537
GlyphClass: 2
Flags: MW
LayerCount: 2
Fore
SplineSet
0 0 m 1,0,-1
 0 54 l 1,1,-1
 134 322 l 1,2,-1
 27 322 l 1,3,-1
 27 403 l 1,4,-1
 175 403 l 1,5,-1
 295 645 l 1,6,-1
 0 645 l 1,7,-1
 0 725 l 1,8,-1
 403 725 l 1,9,-1
 403 698 l 1,10,-1
 255 403 l 1,11,-1
 376 403 l 1,12,-1
 376 322 l 1,13,-1
 215 322 l 1,14,-1
 94 81 l 1,15,-1
 403 81 l 1,16,-1
 403 0 l 1,17,-1
 0 0 l 1,0,-1
EndSplineSet
Validated: 1
EndChar

StartChar: uni01B6
Encoding: 438 438 375
Width: 537
GlyphClass: 2
Flags: MW
LayerCount: 2
Fore
SplineSet
0 0 m 1,0,-1
 0 134 l 1,1,-1
 107 242 l 1,2,-1
 27 242 l 1,3,-1
 27 322 l 1,4,-1
 188 322 l 1,5,-1
 322 457 l 1,6,-1
 322 483 l 1,7,-1
 0 483 l 1,8,-1
 0 564 l 1,9,-1
 403 564 l 1,10,-1
 403 430 l 1,11,-1
 295 322 l 1,12,-1
 376 322 l 1,13,-1
 376 242 l 1,14,-1
 215 242 l 1,15,-1
 81 107 l 1,16,-1
 81 81 l 1,17,-1
 403 81 l 1,18,-1
 403 0 l 1,19,-1
 0 0 l 1,0,-1
EndSplineSet
Validated: 1
EndChar

